<?xml version="1.0" encoding="UTF-8" standalone="no"?>
<!DOCTYPE svg PUBLIC "-//W3C//DTD SVG 1.1//EN"
 "http://www.w3.org/Graphics/SVG/1.1/DTD/svg11.dtd">
<!-- Generated by graphviz version 11.0.0 (20240428.1522)
 -->
<!-- Title: G Pages: 1 -->
<svg width="1567pt" height="1310pt"
 viewBox="0.00 0.00 1567.00 1310.40" xmlns="http://www.w3.org/2000/svg" xmlns:xlink="http://www.w3.org/1999/xlink">
<g id="graph0" class="graph" transform="scale(1 1) rotate(0) translate(4 1306.4)">
<title>G</title>
<polygon fill="white" stroke="none" points="-4,4 -4,-1306.4 1563,-1306.4 1563,4 -4,4"/>
<g id="clust1" class="cluster">
<title>cluster0</title>
<polygon fill="lightgrey" stroke="lightgrey" points="706,-326.25 706,-922.56 1494,-922.56 1494,-326.25 706,-326.25"/>
<polygon fill="none" stroke="lightgrey" points="981.5,-893.06 981.5,-915.56 1218.5,-915.56 1218.5,-893.06 981.5,-893.06"/>
<text text-anchor="start" x="1092.12" y="-900.26" font-family="Times,serif" font-weight="bold" font-size="14.00">jbl</text>
<polygon fill="none" stroke="lightgrey" points="981.5,-868.56 981.5,-891.06 1218.5,-891.06 1218.5,-868.56 981.5,-868.56"/>
<text text-anchor="start" x="1051.25" y="-874.76" font-family="Times,serif" font-size="14.00">(K8s Namespace)</text>
<polygon fill="none" stroke="lightgrey" points="981.5,-844.06 981.5,-866.56 1218.5,-866.56 1218.5,-844.06 981.5,-844.06"/>
<text text-anchor="start" x="984.5" y="-850.26" font-family="Times,serif" font-size="14.00">(could be the same as another namespace)</text>
<polygon fill="none" stroke="lightgrey" points="978.5,-841.06 978.5,-918.56 1221.5,-918.56 1221.5,-841.06 978.5,-841.06"/>
</g>
<g id="clust2" class="cluster">
<title>cluster4</title>
<polygon fill="lightgrey" stroke="lightgrey" points="438,-301.5 438,-427.5 698,-427.5 698,-301.5 438,-301.5"/>
<text text-anchor="start" x="514" y="-411.2" font-family="Times,serif" font-weight="bold" font-size="14.00">K8s Control Plane</text>
</g>
<g id="clust3" class="cluster">
<title>cluster1</title>
<polygon fill="lightgrey" stroke="lightgrey" points="8,-8 8,-283.5 517,-283.5 517,-8 8,-8"/>
<polygon fill="none" stroke="lightgrey" points="210.75,-254 210.75,-276.5 314.25,-276.5 314.25,-254 210.75,-254"/>
<text text-anchor="start" x="242.62" y="-261.2" font-family="Times,serif" font-weight="bold" font-size="14.00">jonline</text>
<polygon fill="none" stroke="lightgrey" points="210.75,-229.5 210.75,-252 314.25,-252 314.25,-229.5 210.75,-229.5"/>
<text text-anchor="start" x="213.75" y="-235.7" font-family="Times,serif" font-size="14.00">(K8s Namespace)</text>
<polygon fill="none" stroke="lightgrey" points="207.75,-226.5 207.75,-279.5 317.25,-279.5 317.25,-226.5 207.75,-226.5"/>
</g>
<g id="clust4" class="cluster">
<title>cluster2</title>
<polygon fill="lightgrey" stroke="lightgrey" points="1042,-8 1042,-283.5 1551,-283.5 1551,-8 1042,-8"/>
<polygon fill="none" stroke="lightgrey" points="1244.75,-254 1244.75,-276.5 1348.25,-276.5 1348.25,-254 1244.75,-254"/>
<text text-anchor="start" x="1259.38" y="-261.2" font-family="Times,serif" font-weight="bold" font-size="14.00">oakcitysocial</text>
<polygon fill="none" stroke="lightgrey" points="1244.75,-229.5 1244.75,-252 1348.25,-252 1348.25,-229.5 1244.75,-229.5"/>
<text text-anchor="start" x="1247.75" y="-235.7" font-family="Times,serif" font-size="14.00">(K8s Namespace)</text>
<polygon fill="none" stroke="lightgrey" points="1241.75,-226.5 1241.75,-279.5 1351.25,-279.5 1351.25,-226.5 1241.75,-226.5"/>
</g>
<g id="clust5" class="cluster">
<title>cluster3</title>
<polygon fill="lightgrey" stroke="lightgrey" points="525,-8 525,-283.5 1034,-283.5 1034,-8 525,-8"/>
<polygon fill="none" stroke="lightgrey" points="727.75,-254 727.75,-276.5 831.25,-276.5 831.25,-254 727.75,-254"/>
<text text-anchor="start" x="741.62" y="-261.2" font-family="Times,serif" font-weight="bold" font-size="14.00">bullcitysocial</text>
<polygon fill="none" stroke="lightgrey" points="727.75,-229.5 727.75,-252 831.25,-252 831.25,-229.5 727.75,-229.5"/>
<text text-anchor="start" x="730.75" y="-235.7" font-family="Times,serif" font-size="14.00">(K8s Namespace)</text>
<polygon fill="none" stroke="lightgrey" points="724.75,-226.5 724.75,-279.5 834.25,-279.5 834.25,-226.5 724.75,-226.5"/>
</g>
<!-- browser -->
<g id="node1" class="node">
<title>browser</title>
<ellipse fill="#c1b2ff" stroke="#c1b2ff" cx="903" cy="-1233.23" rx="65.17" ry="65.17"/>
<ellipse fill="none" stroke="#c1b2ff" cx="903" cy="-1233.23" rx="69.17" ry="69.17"/>
<text text-anchor="start" x="863.25" y="-1229.18" font-family="Times,serif" font-weight="bold" font-size="14.00">Web Browser</text>
</g>
<!-- jbl -->
<g id="node2" class="node">
<title>jbl</title>
<ellipse fill="white" stroke="white" cx="1100" cy="-751.28" rx="295.57" ry="77.78"/>
<polygon fill="none" stroke="white" points="902,-776.78 902,-799.28 1298,-799.28 1298,-776.78 902,-776.78"/>
<text text-anchor="start" x="1092.12" y="-783.98" font-family="Times,serif" font-weight="bold" font-size="14.00">jbl</text>
<polygon fill="none" stroke="white" points="902,-752.28 902,-774.78 1298,-774.78 1298,-752.28 902,-752.28"/>
<text text-anchor="start" x="1044.88" y="-758.48" font-family="Times,serif" font-size="14.00">(K8s LoadBalancer)</text>
<polygon fill="none" stroke="white" points="902,-727.78 902,-750.28 1298,-750.28 1298,-727.78 902,-727.78"/>
<text text-anchor="start" x="1022.75" y="-733.98" font-family="Times,serif" font-size="14.00">&quot;Jonline Balancer of Loads&quot;</text>
<polygon fill="none" stroke="white" points="902,-703.28 902,-725.78 1298,-725.78 1298,-703.28 902,-703.28"/>
<text text-anchor="start" x="905" y="-709.48" font-family="Times,serif" font-size="14.00">Could feasibly just pre&#45;configure and run/fork/await an Nginx instance.</text>
<polygon fill="none" stroke="white" points="899,-700.28 899,-802.28 1301,-802.28 1301,-700.28 899,-700.28"/>
</g>
<!-- browser&#45;&gt;jbl -->
<g id="edge1" class="edge">
<title>browser&#45;&gt;jbl</title>
<path fill="none" stroke="black" stroke-width="2" d="M883.12,-1166.64C872.36,-1119.8 864.81,-1056.04 884.25,-1003.56 908.41,-938.33 957.93,-878.63 1003.43,-833.8"/>
<polygon fill="black" stroke="black" stroke-width="2" points="1004.67,-837.48 1009.4,-828 999.79,-832.46 1004.67,-837.48"/>
<polygon fill="none" stroke="black" points="887,-1047.56 887,-1070.06 1115.75,-1070.06 1115.75,-1047.56 887,-1047.56"/>
<text text-anchor="start" x="940.25" y="-1054.76" font-family="Times,serif" font-style="italic" font-size="14.00">Single</text>
<text text-anchor="start" x="974" y="-1054.76" font-family="Times,serif" font-size="14.00"> </text>
<text text-anchor="start" x="977.75" y="-1054.76" font-family="Times,serif" font-weight="bold" font-size="14.00">$12/mo</text>
<text text-anchor="start" x="1020.5" y="-1054.76" font-family="Times,serif" font-size="14.00"> ingress</text>
<polygon fill="none" stroke="black" points="887,-1006.56 887,-1045.56 1115.75,-1045.56 1115.75,-1006.56 887,-1006.56"/>
<text text-anchor="start" x="965.38" y="-1029.26" font-family="Times,serif" font-size="14.00">Host Header:</text>
<text text-anchor="start" x="890" y="-1012.76" font-family="Times,serif" font-size="14.00">jonline.io | oakcity.social | bullcity.social</text>
<polygon fill="none" stroke="black" points="884,-1003.56 884,-1073.06 1118.75,-1073.06 1118.75,-1003.56 884,-1003.56"/>
</g>
<!-- resolve_dns -->
<g id="node3" class="node">
<title>resolve_dns</title>
<polygon fill="none" stroke="black" points="1244.8,-1127.06 1103.54,-1127.06 1067.2,-1091.06 1208.46,-1091.06 1244.8,-1127.06"/>
<text text-anchor="middle" x="1156" y="-1104.01" font-family="Times,serif" font-size="14.00">DNS Lookup</text>
</g>
<!-- browser&#45;&gt;resolve_dns -->
<g id="edge2" class="edge">
<title>browser&#45;&gt;resolve_dns</title>
<path fill="none" stroke="black" stroke-width="2" d="M965.21,-1202.19C1009.9,-1180.61 1069.16,-1152 1109.71,-1132.42"/>
<polygon fill="black" stroke="black" stroke-width="2" points="1109.64,-1136.34 1117.12,-1128.84 1106.6,-1130.03 1109.64,-1136.34"/>
</g>
<!-- parse_host -->
<g id="node9" class="node">
<title>parse_host</title>
<polygon fill="white" stroke="white" points="1217.31,-600.5 1030.69,-600.5 982.69,-564.5 1169.31,-564.5 1217.31,-600.5"/>
<text text-anchor="middle" x="1100" y="-577.45" font-family="Times,serif" font-size="14.00">Parse Host Header</text>
</g>
<!-- jbl&#45;&gt;parse_host -->
<g id="edge10" class="edge">
<title>jbl&#45;&gt;parse_host</title>
<path fill="none" stroke="black" d="M1100,-673.24C1100,-651.4 1100,-628.97 1100,-612"/>
<polygon fill="black" stroke="black" points="1103.5,-612.21 1100,-602.21 1096.5,-612.21 1103.5,-612.21"/>
</g>
<!-- jonlineio_dns -->
<g id="node4" class="node">
<title>jonlineio_dns</title>
<polygon fill="none" stroke="black" points="1176.88,-985.56 1115.12,-985.56 1115.12,-949.56 1182.88,-949.56 1182.88,-979.56 1176.88,-985.56"/>
<polyline fill="none" stroke="black" points="1176.88,-985.56 1176.88,-979.56"/>
<polyline fill="none" stroke="black" points="1182.88,-979.56 1176.88,-979.56"/>
<text text-anchor="middle" x="1149" y="-962.51" font-family="Times,serif" font-size="14.00">jonline.io</text>
</g>
<!-- resolve_dns&#45;&gt;jonlineio_dns -->
<g id="edge3" class="edge">
<title>resolve_dns&#45;&gt;jonlineio_dns</title>
<path fill="none" stroke="black" stroke-dasharray="1,5" d="M1155.13,-1090.68C1153.95,-1067.26 1151.85,-1025.3 1150.44,-997.19"/>
<polygon fill="black" stroke="black" points="1153.93,-997.05 1149.94,-987.24 1146.94,-997.4 1153.93,-997.05"/>
</g>
<!-- oakcitysocial_dns -->
<g id="node5" class="node">
<title>oakcitysocial_dns</title>
<polygon fill="none" stroke="black" points="1285.12,-985.56 1200.88,-985.56 1200.88,-949.56 1291.12,-949.56 1291.12,-979.56 1285.12,-985.56"/>
<polyline fill="none" stroke="black" points="1285.12,-985.56 1285.12,-979.56"/>
<polyline fill="none" stroke="black" points="1291.12,-979.56 1285.12,-979.56"/>
<text text-anchor="middle" x="1246" y="-962.51" font-family="Times,serif" font-size="14.00">oakcity.social</text>
</g>
<!-- resolve_dns&#45;&gt;oakcitysocial_dns -->
<g id="edge4" class="edge">
<title>resolve_dns&#45;&gt;oakcitysocial_dns</title>
<path fill="none" stroke="black" stroke-dasharray="1,5" d="M1167.22,-1090.68C1182.66,-1066.74 1210.62,-1023.41 1228.74,-995.32"/>
<polygon fill="black" stroke="black" points="1231.62,-997.3 1234.1,-987 1225.74,-993.51 1231.62,-997.3"/>
</g>
<!-- bullcitysocial_dns -->
<g id="node6" class="node">
<title>bullcitysocial_dns</title>
<polygon fill="none" stroke="black" points="1090.88,-985.56 1005.12,-985.56 1005.12,-949.56 1096.88,-949.56 1096.88,-979.56 1090.88,-985.56"/>
<polyline fill="none" stroke="black" points="1090.88,-985.56 1090.88,-979.56"/>
<polyline fill="none" stroke="black" points="1096.88,-979.56 1090.88,-979.56"/>
<text text-anchor="middle" x="1051" y="-962.51" font-family="Times,serif" font-size="14.00">bullcity.social</text>
</g>
<!-- resolve_dns&#45;&gt;bullcitysocial_dns -->
<g id="edge5" class="edge">
<title>resolve_dns&#45;&gt;bullcitysocial_dns</title>
<path fill="none" stroke="black" stroke-dasharray="1,5" d="M1154.71,-1090.87C1152.19,-1068.35 1144.76,-1028.77 1123,-1003.56 1118.41,-998.25 1112.83,-993.67 1106.82,-989.74"/>
<polygon fill="black" stroke="black" points="1108.83,-986.86 1098.43,-984.85 1105.31,-992.9 1108.83,-986.86"/>
</g>
<!-- jonlineio_dns&#45;&gt;jbl -->
<g id="edge6" class="edge">
<title>jonlineio_dns&#45;&gt;jbl</title>
<path fill="none" stroke="black" stroke-dasharray="1,5" d="M1145.07,-949.39C1139.64,-925.65 1129.46,-881.1 1120.14,-840.35"/>
<polygon fill="black" stroke="black" points="1123.58,-839.7 1117.94,-830.74 1116.76,-841.26 1123.58,-839.7"/>
</g>
<!-- oakcitysocial_dns&#45;&gt;jbl -->
<g id="edge7" class="edge">
<title>oakcitysocial_dns&#45;&gt;jbl</title>
<path fill="none" stroke="black" stroke-dasharray="1,5" d="M1234.3,-949.39C1217.75,-925.11 1186.38,-879.07 1158.12,-837.58"/>
<polygon fill="black" stroke="black" points="1161.14,-835.81 1152.62,-829.51 1155.36,-839.75 1161.14,-835.81"/>
</g>
<!-- bullcitysocial_dns&#45;&gt;jbl -->
<g id="edge8" class="edge">
<title>bullcitysocial_dns&#45;&gt;jbl</title>
<path fill="none" stroke="black" stroke-dasharray="1,5" d="M1054.93,-949.39C1060.36,-925.65 1070.54,-881.1 1079.86,-840.35"/>
<polygon fill="black" stroke="black" points="1083.24,-841.26 1082.06,-830.74 1076.42,-839.7 1083.24,-841.26"/>
</g>
<!-- configuration -->
<g id="node7" class="node">
<title>configuration</title>
<polygon fill="#c1b2ff" stroke="#c1b2ff" points="1479,-637.5 1235,-637.5 1235,-527.5 1479,-527.5 1479,-637.5"/>
<polygon fill="none" stroke="#c1b2ff" points="1246,-608 1246,-630.5 1468,-630.5 1468,-608 1246,-608"/>
<text text-anchor="start" x="1302.25" y="-615.2" font-family="Times,serif" font-weight="bold" font-size="14.00">JBL Configuration</text>
<polygon fill="none" stroke="#c1b2ff" points="1246,-583.5 1246,-606 1468,-606 1468,-583.5 1246,-583.5"/>
<text text-anchor="start" x="1308.25" y="-589.7" font-family="Times,serif" font-size="14.00">(K8s ConfigMap)</text>
<polygon fill="none" stroke="#c1b2ff" points="1246,-559 1246,-581.5 1468,-581.5 1468,-559 1246,-559"/>
<text text-anchor="start" x="1249.38" y="-565.2" font-family="Times,serif" font-size="14.00">Maps domain name &#45;&gt; K8s namespace</text>
<polygon fill="none" stroke="#c1b2ff" points="1246,-534.5 1246,-557 1468,-557 1468,-534.5 1246,-534.5"/>
<text text-anchor="start" x="1249" y="-540.7" font-family="Times,serif" font-size="14.00">Configurable with deploys/jbl/Makefile</text>
<polygon fill="none" stroke="#c1b2ff" points="1243,-531.5 1243,-633.5 1471,-633.5 1471,-531.5 1243,-531.5"/>
</g>
<!-- resolve_namespace -->
<g id="node8" class="node">
<title>resolve_namespace</title>
<polygon fill="white" stroke="white" points="1485.96,-490.5 871.98,-490.5 714.04,-454.5 1328.02,-454.5 1485.96,-490.5"/>
<text text-anchor="middle" x="1100" y="-467.45" font-family="Times,serif" font-size="14.00">Resolve Namespace from Host Header based on JBL Configuration</text>
</g>
<!-- configuration&#45;&gt;resolve_namespace -->
<g id="edge9" class="edge">
<title>configuration&#45;&gt;resolve_namespace</title>
<path fill="none" stroke="black" stroke-width="2" d="M1234.52,-530.03C1205.48,-517.83 1176.04,-505.45 1152.13,-495.4"/>
<polygon fill="black" stroke="black" stroke-width="2" points="1154.92,-492.78 1144.34,-492.13 1152.2,-499.23 1154.92,-492.78"/>
</g>
<!-- jonlineio -->
<g id="node10" class="node">
<title>jonlineio</title>
<polygon fill="white" stroke="white" points="869.88,-370.25 808.12,-370.25 808.12,-334.25 875.88,-334.25 875.88,-364.25 869.88,-370.25"/>
<polyline fill="none" stroke="white" points="869.88,-370.25 869.88,-364.25"/>
<polyline fill="none" stroke="white" points="875.88,-364.25 869.88,-364.25"/>
<text text-anchor="middle" x="842" y="-347.2" font-family="Times,serif" font-size="14.00">jonline.io</text>
</g>
<!-- resolve_namespace&#45;&gt;jonlineio -->
<g id="edge12" class="edge">
<title>resolve_namespace&#45;&gt;jonlineio</title>
<path fill="none" stroke="black" stroke-dasharray="1,5" d="M1052,-454.05C1031.74,-446.36 1008.03,-436.95 987,-427.5 951.62,-411.6 912.53,-391.43 883.86,-376.12"/>
<polygon fill="black" stroke="black" points="885.59,-373.08 875.13,-371.43 882.28,-379.25 885.59,-373.08"/>
</g>
<!-- oakcitysocial -->
<g id="node11" class="node">
<title>oakcitysocial</title>
<polygon fill="white" stroke="white" points="1339.12,-370.25 1254.88,-370.25 1254.88,-334.25 1345.12,-334.25 1345.12,-364.25 1339.12,-370.25"/>
<polyline fill="none" stroke="white" points="1339.12,-370.25 1339.12,-364.25"/>
<polyline fill="none" stroke="white" points="1345.12,-364.25 1339.12,-364.25"/>
<text text-anchor="middle" x="1300" y="-347.2" font-family="Times,serif" font-size="14.00">oakcity.social</text>
</g>
<!-- resolve_namespace&#45;&gt;oakcitysocial -->
<g id="edge13" class="edge">
<title>resolve_namespace&#45;&gt;oakcitysocial</title>
<path fill="none" stroke="black" stroke-dasharray="1,5" d="M1129.51,-454.05C1164.32,-433.47 1222.32,-399.18 1260.86,-376.39"/>
<polygon fill="black" stroke="black" points="1262.56,-379.45 1269.39,-371.35 1259,-373.42 1262.56,-379.45"/>
</g>
<!-- bullcitysocial -->
<g id="node12" class="node">
<title>bullcitysocial</title>
<polygon fill="white" stroke="white" points="1081.88,-370.25 996.12,-370.25 996.12,-334.25 1087.88,-334.25 1087.88,-364.25 1081.88,-370.25"/>
<polyline fill="none" stroke="white" points="1081.88,-370.25 1081.88,-364.25"/>
<polyline fill="none" stroke="white" points="1087.88,-364.25 1081.88,-364.25"/>
<text text-anchor="middle" x="1042" y="-347.2" font-family="Times,serif" font-size="14.00">bullcity.social</text>
</g>
<!-- resolve_namespace&#45;&gt;bullcitysocial -->
<g id="edge14" class="edge">
<title>resolve_namespace&#45;&gt;bullcitysocial</title>
<path fill="none" stroke="black" stroke-dasharray="1,5" d="M1091.44,-454.05C1081.96,-434.73 1066.56,-403.32 1055.46,-380.7"/>
<polygon fill="black" stroke="black" points="1058.62,-379.18 1051.07,-371.74 1052.33,-382.26 1058.62,-379.18"/>
</g>
<!-- parse_host&#45;&gt;resolve_namespace -->
<g id="edge11" class="edge">
<title>parse_host&#45;&gt;resolve_namespace</title>
<path fill="none" stroke="black" d="M1100,-564.15C1100,-547.46 1100,-521.92 1100,-502.2"/>
<polygon fill="black" stroke="black" points="1103.5,-502.32 1100,-492.32 1096.5,-502.32 1103.5,-502.32"/>
</g>
<!-- certs -->
<g id="node13" class="node">
<title>certs</title>
<polygon fill="#c1b2ff" stroke="#c1b2ff" points="690,-395 446,-395 446,-309.5 690,-309.5 690,-395"/>
<polygon fill="none" stroke="#c1b2ff" points="457,-365.5 457,-388 679,-388 679,-365.5 457,-365.5"/>
<text text-anchor="start" x="486.25" y="-372.7" font-family="Times,serif" font-weight="bold" font-size="14.00">TLS/SSL Cert Management</text>
<polygon fill="none" stroke="#c1b2ff" points="457,-341 457,-363.5 679,-363.5 679,-341 457,-341"/>
<text text-anchor="start" x="467.88" y="-347.2" font-family="Times,serif" font-size="14.00">(K8s ClusterRoles and RoleBinding)</text>
<polygon fill="none" stroke="#c1b2ff" points="457,-316.5 457,-339 679,-339 679,-316.5 457,-316.5"/>
<text text-anchor="start" x="460" y="-322.7" font-family="Times,serif" font-size="14.00">Configurable with deploys/jbl/Makefile</text>
<polygon fill="none" stroke="#c1b2ff" points="454,-313.5 454,-391 682,-391 682,-313.5 454,-313.5"/>
</g>
<!-- parse_host&#45;&gt;certs -->
<g id="edge18" class="edge">
<title>parse_host&#45;&gt;certs</title>
<path fill="none" stroke="black" d="M993.65,-573.14C910.69,-562.92 794.85,-540.33 705,-490.5 666.28,-469.02 631.18,-433.39 606.21,-403.81"/>
<polygon fill="black" stroke="black" points="609.16,-401.88 600.08,-396.42 603.77,-406.35 609.16,-401.88"/>
</g>
<!-- jonline0 -->
<g id="node14" class="node">
<title>jonline0</title>
<ellipse fill="white" stroke="white" cx="429" cy="-159.5" rx="80.26" ry="43.13"/>
<polygon fill="none" stroke="white" points="383.25,-160.5 383.25,-183 474.75,-183 474.75,-160.5 383.25,-160.5"/>
<text text-anchor="start" x="409.12" y="-167.7" font-family="Times,serif" font-weight="bold" font-size="14.00">jonline</text>
<polygon fill="none" stroke="white" points="383.25,-136 383.25,-158.5 474.75,-158.5 474.75,-136 383.25,-136"/>
<text text-anchor="start" x="386.25" y="-142.2" font-family="Times,serif" font-size="14.00">(K8s ClusterIP)</text>
<polygon fill="none" stroke="white" points="380.25,-133 380.25,-186 477.75,-186 477.75,-133 380.25,-133"/>
</g>
<!-- jonlineio&#45;&gt;jonline0 -->
<g id="edge17" class="edge">
<title>jonlineio&#45;&gt;jonline0</title>
<path fill="none" stroke="black" d="M807.88,-336.5C779.95,-325.06 739.13,-309.81 702,-301.5 662.56,-292.67 556.2,-303.37 521,-283.5 492.07,-267.17 469.51,-237.6 453.97,-211.55"/>
<polygon fill="black" stroke="black" points="457.12,-210.02 449.11,-203.09 451.05,-213.5 457.12,-210.02"/>
</g>
<!-- jonline1 -->
<g id="node18" class="node">
<title>jonline1</title>
<ellipse fill="white" stroke="white" cx="1463" cy="-159.5" rx="80.26" ry="43.13"/>
<polygon fill="none" stroke="white" points="1417.25,-160.5 1417.25,-183 1508.75,-183 1508.75,-160.5 1417.25,-160.5"/>
<text text-anchor="start" x="1443.12" y="-167.7" font-family="Times,serif" font-weight="bold" font-size="14.00">jonline</text>
<polygon fill="none" stroke="white" points="1417.25,-136 1417.25,-158.5 1508.75,-158.5 1508.75,-136 1417.25,-136"/>
<text text-anchor="start" x="1420.25" y="-142.2" font-family="Times,serif" font-size="14.00">(K8s ClusterIP)</text>
<polygon fill="none" stroke="white" points="1414.25,-133 1414.25,-186 1511.75,-186 1511.75,-133 1414.25,-133"/>
</g>
<!-- oakcitysocial&#45;&gt;jonline1 -->
<g id="edge21" class="edge">
<title>oakcitysocial&#45;&gt;jonline1</title>
<path fill="none" stroke="black" d="M1320.83,-333.82C1336,-320.68 1356.68,-301.84 1373,-283.5 1393.48,-260.48 1413.96,-232.95 1430.19,-209.78"/>
<polygon fill="black" stroke="black" points="1432.96,-211.93 1435.78,-201.72 1427.21,-207.94 1432.96,-211.93"/>
</g>
<!-- jonline2 -->
<g id="node22" class="node">
<title>jonline2</title>
<ellipse fill="white" stroke="white" cx="946" cy="-159.5" rx="80.26" ry="43.13"/>
<polygon fill="none" stroke="white" points="900.25,-160.5 900.25,-183 991.75,-183 991.75,-160.5 900.25,-160.5"/>
<text text-anchor="start" x="926.12" y="-167.7" font-family="Times,serif" font-weight="bold" font-size="14.00">jonline</text>
<polygon fill="none" stroke="white" points="900.25,-136 900.25,-158.5 991.75,-158.5 991.75,-136 900.25,-136"/>
<text text-anchor="start" x="903.25" y="-142.2" font-family="Times,serif" font-size="14.00">(K8s ClusterIP)</text>
<polygon fill="none" stroke="white" points="897.25,-133 897.25,-186 994.75,-186 994.75,-133 897.25,-133"/>
</g>
<!-- bullcitysocial&#45;&gt;jonline2 -->
<g id="edge24" class="edge">
<title>bullcitysocial&#45;&gt;jonline2</title>
<path fill="none" stroke="black" d="M1033.31,-333.99C1019.55,-306.65 992.23,-252.35 971.79,-211.74"/>
<polygon fill="black" stroke="black" points="974.92,-210.19 967.3,-202.83 968.67,-213.33 974.92,-210.19"/>
</g>
<!-- tls0 -->
<g id="node17" class="node">
<title>tls0</title>
<polygon fill="#c1b2ff" stroke="#c1b2ff" points="330.25,-214.5 15.75,-214.5 15.75,-104.5 330.25,-104.5 330.25,-214.5"/>
<polygon fill="none" stroke="#c1b2ff" points="26.75,-185 26.75,-207.5 319.25,-207.5 319.25,-185 26.75,-185"/>
<text text-anchor="start" x="145.62" y="-191.2" font-family="Times,serif" font-size="14.00">jonline&#45;tls</text>
<polygon fill="none" stroke="#c1b2ff" points="26.75,-160.5 26.75,-183 319.25,-183 319.25,-160.5 26.75,-160.5"/>
<text text-anchor="start" x="138.88" y="-166.7" font-family="Times,serif" font-size="14.00">(K8s Secret)</text>
<polygon fill="none" stroke="#c1b2ff" points="26.75,-136 26.75,-158.5 319.25,-158.5 319.25,-136 26.75,-136"/>
<text text-anchor="start" x="29.75" y="-142.2" font-family="Times,serif" font-size="14.00">Configurable with deploys/generated_certs/Makefile</text>
<polygon fill="none" stroke="#c1b2ff" points="26.75,-111.5 26.75,-134 319.25,-134 319.25,-111.5 26.75,-111.5"/>
<text text-anchor="start" x="53.75" y="-118.7" font-family="Times,serif" font-size="14.00">Lightweight integration with </text>
<text text-anchor="start" x="213.5" y="-118.7" font-family="Times,serif" font-style="italic" font-size="14.00">Cert&#45;Manager</text>
<polygon fill="none" stroke="#c1b2ff" points="23.75,-108.5 23.75,-210.5 322.25,-210.5 322.25,-108.5 23.75,-108.5"/>
</g>
<!-- certs&#45;&gt;tls0 -->
<g id="edge25" class="edge">
<title>certs&#45;&gt;tls0</title>
<path fill="none" stroke="black" d="M445.51,-323.28C410.48,-313.05 372.9,-299.88 340,-283.5 306.69,-266.92 273.07,-243.69 244.81,-221.88"/>
<polygon fill="black" stroke="black" points="247.06,-219.19 237.02,-215.79 242.74,-224.7 247.06,-219.19"/>
</g>
<!-- tls1 -->
<g id="node21" class="node">
<title>tls1</title>
<polygon fill="#c1b2ff" stroke="#c1b2ff" points="1364.25,-214.5 1049.75,-214.5 1049.75,-104.5 1364.25,-104.5 1364.25,-214.5"/>
<polygon fill="none" stroke="#c1b2ff" points="1060.75,-185 1060.75,-207.5 1353.25,-207.5 1353.25,-185 1060.75,-185"/>
<text text-anchor="start" x="1179.62" y="-191.2" font-family="Times,serif" font-size="14.00">jonline&#45;tls</text>
<polygon fill="none" stroke="#c1b2ff" points="1060.75,-160.5 1060.75,-183 1353.25,-183 1353.25,-160.5 1060.75,-160.5"/>
<text text-anchor="start" x="1172.88" y="-166.7" font-family="Times,serif" font-size="14.00">(K8s Secret)</text>
<polygon fill="none" stroke="#c1b2ff" points="1060.75,-136 1060.75,-158.5 1353.25,-158.5 1353.25,-136 1060.75,-136"/>
<text text-anchor="start" x="1063.75" y="-142.2" font-family="Times,serif" font-size="14.00">Configurable with deploys/generated_certs/Makefile</text>
<polygon fill="none" stroke="#c1b2ff" points="1060.75,-111.5 1060.75,-134 1353.25,-134 1353.25,-111.5 1060.75,-111.5"/>
<text text-anchor="start" x="1087.75" y="-118.7" font-family="Times,serif" font-size="14.00">Lightweight integration with </text>
<text text-anchor="start" x="1247.5" y="-118.7" font-family="Times,serif" font-style="italic" font-size="14.00">Cert&#45;Manager</text>
<polygon fill="none" stroke="#c1b2ff" points="1057.75,-108.5 1057.75,-210.5 1356.25,-210.5 1356.25,-108.5 1057.75,-108.5"/>
</g>
<!-- certs&#45;&gt;tls1 -->
<g id="edge26" class="edge">
<title>certs&#45;&gt;tls1</title>
<path fill="none" stroke="black" d="M672.45,-309.07C682.33,-306.12 692.28,-303.52 702,-301.5 775.22,-286.31 967.54,-308.53 1038,-283.5 1075.5,-270.18 1111.88,-245.7 1141.22,-222.07"/>
<polygon fill="black" stroke="black" points="1143.42,-224.79 1148.92,-215.74 1138.98,-219.38 1143.42,-224.79"/>
</g>
<!-- tls2 -->
<g id="node25" class="node">
<title>tls2</title>
<polygon fill="#c1b2ff" stroke="#c1b2ff" points="847.25,-214.5 532.75,-214.5 532.75,-104.5 847.25,-104.5 847.25,-214.5"/>
<polygon fill="none" stroke="#c1b2ff" points="543.75,-185 543.75,-207.5 836.25,-207.5 836.25,-185 543.75,-185"/>
<text text-anchor="start" x="662.62" y="-191.2" font-family="Times,serif" font-size="14.00">jonline&#45;tls</text>
<polygon fill="none" stroke="#c1b2ff" points="543.75,-160.5 543.75,-183 836.25,-183 836.25,-160.5 543.75,-160.5"/>
<text text-anchor="start" x="655.88" y="-166.7" font-family="Times,serif" font-size="14.00">(K8s Secret)</text>
<polygon fill="none" stroke="#c1b2ff" points="543.75,-136 543.75,-158.5 836.25,-158.5 836.25,-136 543.75,-136"/>
<text text-anchor="start" x="546.75" y="-142.2" font-family="Times,serif" font-size="14.00">Configurable with deploys/generated_certs/Makefile</text>
<polygon fill="none" stroke="#c1b2ff" points="543.75,-111.5 543.75,-134 836.25,-134 836.25,-111.5 543.75,-111.5"/>
<text text-anchor="start" x="570.75" y="-118.7" font-family="Times,serif" font-size="14.00">Lightweight integration with </text>
<text text-anchor="start" x="730.5" y="-118.7" font-family="Times,serif" font-style="italic" font-size="14.00">Cert&#45;Manager</text>
<polygon fill="none" stroke="#c1b2ff" points="540.75,-108.5 540.75,-210.5 839.25,-210.5 839.25,-108.5 540.75,-108.5"/>
</g>
<!-- certs&#45;&gt;tls2 -->
<g id="edge27" class="edge">
<title>certs&#45;&gt;tls2</title>
<path fill="none" stroke="black" d="M594.77,-309.39C610.72,-284.46 631.27,-252.32 649.2,-224.29"/>
<polygon fill="black" stroke="black" points="651.92,-226.54 654.36,-216.23 646.02,-222.77 651.92,-226.54"/>
</g>
<!-- minio0 -->
<g id="node15" class="node">
<title>minio0</title>
<path fill="white" stroke="white" d="M335,-48.73C335,-50.53 322.9,-52 308,-52 293.1,-52 281,-50.53 281,-48.73 281,-48.73 281,-19.27 281,-19.27 281,-17.47 293.1,-16 308,-16 322.9,-16 335,-17.47 335,-19.27 335,-19.27 335,-48.73 335,-48.73"/>
<path fill="none" stroke="white" d="M335,-48.73C335,-46.92 322.9,-45.45 308,-45.45 293.1,-45.45 281,-46.92 281,-48.73"/>
<text text-anchor="middle" x="308" y="-28.95" font-family="Times,serif" font-size="14.00">Minio</text>
</g>
<!-- jonline0&#45;&gt;minio0 -->
<g id="edge15" class="edge">
<title>jonline0&#45;&gt;minio0</title>
<path fill="none" stroke="black" d="M374.85,-127.37C358.67,-116.09 341.95,-102.21 329.5,-86.5 324.04,-79.61 319.75,-71.13 316.49,-63.06"/>
<polygon fill="black" stroke="black" points="319.87,-62.12 313.17,-53.91 313.29,-64.5 319.87,-62.12"/>
<text text-anchor="start" x="329" y="-74.2" font-family="Times,serif" font-size="14.00">5GB @ </text>
<text text-anchor="start" x="374.75" y="-74.2" font-family="Times,serif" font-weight="bold" font-size="14.00">50¢/mo</text>
</g>
<!-- postgres0 -->
<g id="node16" class="node">
<title>postgres0</title>
<path fill="white" stroke="white" d="M450.88,-48.73C450.88,-50.53 437.04,-52 420,-52 402.96,-52 389.12,-50.53 389.12,-48.73 389.12,-48.73 389.12,-19.27 389.12,-19.27 389.12,-17.47 402.96,-16 420,-16 437.04,-16 450.88,-17.47 450.88,-19.27 450.88,-19.27 450.88,-48.73 450.88,-48.73"/>
<path fill="none" stroke="white" d="M450.88,-48.73C450.88,-46.92 437.04,-45.45 420,-45.45 402.96,-45.45 389.12,-46.92 389.12,-48.73"/>
<text text-anchor="middle" x="420" y="-28.95" font-family="Times,serif" font-size="14.00">Postgres</text>
</g>
<!-- jonline0&#45;&gt;postgres0 -->
<g id="edge16" class="edge">
<title>jonline0&#45;&gt;postgres0</title>
<path fill="none" stroke="black" d="M425.9,-116C424.65,-98.82 423.24,-79.44 422.11,-63.94"/>
<polygon fill="black" stroke="black" points="425.6,-63.69 421.38,-53.97 418.62,-64.19 425.6,-63.69"/>
<text text-anchor="start" x="423" y="-74.2" font-family="Times,serif" font-size="14.00">1GB @ </text>
<text text-anchor="start" x="468.75" y="-74.2" font-family="Times,serif" font-weight="bold" font-size="14.00">10¢/mo</text>
</g>
<!-- minio1 -->
<g id="node19" class="node">
<title>minio1</title>
<path fill="white" stroke="white" d="M1369,-48.73C1369,-50.53 1356.9,-52 1342,-52 1327.1,-52 1315,-50.53 1315,-48.73 1315,-48.73 1315,-19.27 1315,-19.27 1315,-17.47 1327.1,-16 1342,-16 1356.9,-16 1369,-17.47 1369,-19.27 1369,-19.27 1369,-48.73 1369,-48.73"/>
<path fill="none" stroke="white" d="M1369,-48.73C1369,-46.92 1356.9,-45.45 1342,-45.45 1327.1,-45.45 1315,-46.92 1315,-48.73"/>
<text text-anchor="middle" x="1342" y="-28.95" font-family="Times,serif" font-size="14.00">Minio</text>
</g>
<!-- jonline1&#45;&gt;minio1 -->
<g id="edge19" class="edge">
<title>jonline1&#45;&gt;minio1</title>
<path fill="none" stroke="black" d="M1408.85,-127.37C1392.67,-116.09 1375.95,-102.21 1363.5,-86.5 1358.04,-79.61 1353.75,-71.13 1350.49,-63.06"/>
<polygon fill="black" stroke="black" points="1353.87,-62.12 1347.17,-53.91 1347.29,-64.5 1353.87,-62.12"/>
<text text-anchor="start" x="1363" y="-74.2" font-family="Times,serif" font-size="14.00">5GB @ </text>
<text text-anchor="start" x="1408.75" y="-74.2" font-family="Times,serif" font-weight="bold" font-size="14.00">50¢/mo</text>
</g>
<!-- postgres1 -->
<g id="node20" class="node">
<title>postgres1</title>
<path fill="white" stroke="white" d="M1484.88,-48.73C1484.88,-50.53 1471.04,-52 1454,-52 1436.96,-52 1423.12,-50.53 1423.12,-48.73 1423.12,-48.73 1423.12,-19.27 1423.12,-19.27 1423.12,-17.47 1436.96,-16 1454,-16 1471.04,-16 1484.88,-17.47 1484.88,-19.27 1484.88,-19.27 1484.88,-48.73 1484.88,-48.73"/>
<path fill="none" stroke="white" d="M1484.88,-48.73C1484.88,-46.92 1471.04,-45.45 1454,-45.45 1436.96,-45.45 1423.12,-46.92 1423.12,-48.73"/>
<text text-anchor="middle" x="1454" y="-28.95" font-family="Times,serif" font-size="14.00">Postgres</text>
</g>
<!-- jonline1&#45;&gt;postgres1 -->
<g id="edge20" class="edge">
<title>jonline1&#45;&gt;postgres1</title>
<path fill="none" stroke="black" d="M1459.9,-116C1458.65,-98.82 1457.24,-79.44 1456.11,-63.94"/>
<polygon fill="black" stroke="black" points="1459.6,-63.69 1455.38,-53.97 1452.62,-64.19 1459.6,-63.69"/>
<text text-anchor="start" x="1457" y="-74.2" font-family="Times,serif" font-size="14.00">1GB @ </text>
<text text-anchor="start" x="1502.75" y="-74.2" font-family="Times,serif" font-weight="bold" font-size="14.00">10¢/mo</text>
</g>
<!-- minio2 -->
<g id="node23" class="node">
<title>minio2</title>
<path fill="white" stroke="white" d="M852,-48.73C852,-50.53 839.9,-52 825,-52 810.1,-52 798,-50.53 798,-48.73 798,-48.73 798,-19.27 798,-19.27 798,-17.47 810.1,-16 825,-16 839.9,-16 852,-17.47 852,-19.27 852,-19.27 852,-48.73 852,-48.73"/>
<path fill="none" stroke="white" d="M852,-48.73C852,-46.92 839.9,-45.45 825,-45.45 810.1,-45.45 798,-46.92 798,-48.73"/>
<text text-anchor="middle" x="825" y="-28.95" font-family="Times,serif" font-size="14.00">Minio</text>
</g>
<!-- jonline2&#45;&gt;minio2 -->
<g id="edge22" class="edge">
<title>jonline2&#45;&gt;minio2</title>
<path fill="none" stroke="black" d="M891.85,-127.37C875.67,-116.09 858.95,-102.21 846.5,-86.5 841.04,-79.61 836.75,-71.13 833.49,-63.06"/>
<polygon fill="black" stroke="black" points="836.87,-62.12 830.17,-53.91 830.29,-64.5 836.87,-62.12"/>
<text text-anchor="start" x="846" y="-74.2" font-family="Times,serif" font-size="14.00">5GB @ </text>
<text text-anchor="start" x="891.75" y="-74.2" font-family="Times,serif" font-weight="bold" font-size="14.00">50¢/mo</text>
</g>
<!-- postgres2 -->
<g id="node24" class="node">
<title>postgres2</title>
<path fill="white" stroke="white" d="M967.88,-48.73C967.88,-50.53 954.04,-52 937,-52 919.96,-52 906.12,-50.53 906.12,-48.73 906.12,-48.73 906.12,-19.27 906.12,-19.27 906.12,-17.47 919.96,-16 937,-16 954.04,-16 967.88,-17.47 967.88,-19.27 967.88,-19.27 967.88,-48.73 967.88,-48.73"/>
<path fill="none" stroke="white" d="M967.88,-48.73C967.88,-46.92 954.04,-45.45 937,-45.45 919.96,-45.45 906.12,-46.92 906.12,-48.73"/>
<text text-anchor="middle" x="937" y="-28.95" font-family="Times,serif" font-size="14.00">Postgres</text>
</g>
<!-- jonline2&#45;&gt;postgres2 -->
<g id="edge23" class="edge">
<title>jonline2&#45;&gt;postgres2</title>
<path fill="none" stroke="black" d="M942.9,-116C941.65,-98.82 940.24,-79.44 939.11,-63.94"/>
<polygon fill="black" stroke="black" points="942.6,-63.69 938.38,-53.97 935.62,-64.19 942.6,-63.69"/>
<text text-anchor="start" x="940" y="-74.2" font-family="Times,serif" font-size="14.00">1GB @ </text>
<text text-anchor="start" x="985.75" y="-74.2" font-family="Times,serif" font-weight="bold" font-size="14.00">10¢/mo</text>
</g>
</g>
</svg>
