<?xml version="1.0" encoding="UTF-8" standalone="no"?>
<!DOCTYPE svg PUBLIC "-//W3C//DTD SVG 1.1//EN"
 "http://www.w3.org/Graphics/SVG/1.1/DTD/svg11.dtd">
<!-- Generated by graphviz version 9.0.0 (20230911.1827)
 -->
<!-- Title: G Pages: 1 -->
<svg width="1567pt" height="1312pt"
 viewBox="0.00 0.00 1567.00 1312.40" xmlns="http://www.w3.org/2000/svg" xmlns:xlink="http://www.w3.org/1999/xlink">
<g id="graph0" class="graph" transform="scale(1 1) rotate(0) translate(4 1308.4)">
<title>G</title>
<polygon fill="white" stroke="none" points="-4,4 -4,-1308.4 1563,-1308.4 1563,4 -4,4"/>
<g id="clust2" class="cluster">
<title>cluster4</title>
<polygon fill="lightgrey" stroke="lightgrey" points="481,-302.5 481,-428.5 741,-428.5 741,-302.5 481,-302.5"/>
<text text-anchor="start" x="557" y="-412.2" font-family="Times,serif" font-weight="bold" font-size="14.00">K8s Control Plane</text>
</g>
<g id="clust3" class="cluster">
<title>cluster1</title>
<polygon fill="lightgrey" stroke="lightgrey" points="8,-8 8,-283.5 517,-283.5 517,-8 8,-8"/>
<polygon fill="none" stroke="lightgrey" points="210.75,-254 210.75,-276.5 314.25,-276.5 314.25,-254 210.75,-254"/>
<text text-anchor="start" x="242.62" y="-261.2" font-family="Times,serif" font-weight="bold" font-size="14.00">jonline</text>
<polygon fill="none" stroke="lightgrey" points="210.75,-229.5 210.75,-252 314.25,-252 314.25,-229.5 210.75,-229.5"/>
<text text-anchor="start" x="213.75" y="-235.7" font-family="Times,serif" font-size="14.00">(K8s Namespace)</text>
<polygon fill="none" stroke="lightgrey" points="207.75,-226.5 207.75,-279.5 317.25,-279.5 317.25,-226.5 207.75,-226.5"/>
</g>
<g id="clust1" class="cluster">
<title>cluster0</title>
<polygon fill="lightgrey" stroke="lightgrey" points="749,-327.25 749,-924.56 1537,-924.56 1537,-327.25 749,-327.25"/>
<polygon fill="none" stroke="lightgrey" points="1024.5,-895.06 1024.5,-917.56 1261.5,-917.56 1261.5,-895.06 1024.5,-895.06"/>
<text text-anchor="start" x="1135.12" y="-902.26" font-family="Times,serif" font-weight="bold" font-size="14.00">jbl</text>
<polygon fill="none" stroke="lightgrey" points="1024.5,-870.56 1024.5,-893.06 1261.5,-893.06 1261.5,-870.56 1024.5,-870.56"/>
<text text-anchor="start" x="1094.25" y="-876.76" font-family="Times,serif" font-size="14.00">(K8s Namespace)</text>
<polygon fill="none" stroke="lightgrey" points="1024.5,-846.06 1024.5,-868.56 1261.5,-868.56 1261.5,-846.06 1024.5,-846.06"/>
<text text-anchor="start" x="1027.5" y="-852.26" font-family="Times,serif" font-size="14.00">(could be the same as another namespace)</text>
<polygon fill="none" stroke="lightgrey" points="1021.5,-843.06 1021.5,-920.56 1264.5,-920.56 1264.5,-843.06 1021.5,-843.06"/>
</g>
<g id="clust4" class="cluster">
<title>cluster2</title>
<polygon fill="lightgrey" stroke="lightgrey" points="1042,-8 1042,-283.5 1551,-283.5 1551,-8 1042,-8"/>
<polygon fill="none" stroke="lightgrey" points="1244.75,-254 1244.75,-276.5 1348.25,-276.5 1348.25,-254 1244.75,-254"/>
<text text-anchor="start" x="1259.38" y="-261.2" font-family="Times,serif" font-weight="bold" font-size="14.00">oakcitysocial</text>
<polygon fill="none" stroke="lightgrey" points="1244.75,-229.5 1244.75,-252 1348.25,-252 1348.25,-229.5 1244.75,-229.5"/>
<text text-anchor="start" x="1247.75" y="-235.7" font-family="Times,serif" font-size="14.00">(K8s Namespace)</text>
<polygon fill="none" stroke="lightgrey" points="1241.75,-226.5 1241.75,-279.5 1351.25,-279.5 1351.25,-226.5 1241.75,-226.5"/>
</g>
<g id="clust5" class="cluster">
<title>cluster3</title>
<polygon fill="lightgrey" stroke="lightgrey" points="525,-8 525,-283.5 1034,-283.5 1034,-8 525,-8"/>
<polygon fill="none" stroke="lightgrey" points="727.75,-254 727.75,-276.5 831.25,-276.5 831.25,-254 727.75,-254"/>
<text text-anchor="start" x="741.62" y="-261.2" font-family="Times,serif" font-weight="bold" font-size="14.00">bullcitysocial</text>
<polygon fill="none" stroke="lightgrey" points="727.75,-229.5 727.75,-252 831.25,-252 831.25,-229.5 727.75,-229.5"/>
<text text-anchor="start" x="730.75" y="-235.7" font-family="Times,serif" font-size="14.00">(K8s Namespace)</text>
<polygon fill="none" stroke="lightgrey" points="724.75,-226.5 724.75,-279.5 834.25,-279.5 834.25,-226.5 724.75,-226.5"/>
</g>
<!-- browser -->
<g id="node1" class="node">
<title>browser</title>
<ellipse fill="#c1b2ff" stroke="#c1b2ff" cx="948" cy="-1235.23" rx="65.17" ry="65.17"/>
<ellipse fill="none" stroke="#c1b2ff" cx="948" cy="-1235.23" rx="69.17" ry="69.17"/>
<text text-anchor="start" x="908.25" y="-1231.18" font-family="Times,serif" font-weight="bold" font-size="14.00">Web Browser</text>
</g>
<!-- jbl -->
<g id="node2" class="node">
<title>jbl</title>
<ellipse fill="white" stroke="white" cx="1143" cy="-753.28" rx="295.57" ry="77.78"/>
<polygon fill="none" stroke="white" points="945,-778.78 945,-801.28 1341,-801.28 1341,-778.78 945,-778.78"/>
<text text-anchor="start" x="1135.12" y="-785.98" font-family="Times,serif" font-weight="bold" font-size="14.00">jbl</text>
<polygon fill="none" stroke="white" points="945,-754.28 945,-776.78 1341,-776.78 1341,-754.28 945,-754.28"/>
<text text-anchor="start" x="1087.88" y="-760.48" font-family="Times,serif" font-size="14.00">(K8s LoadBalancer)</text>
<polygon fill="none" stroke="white" points="945,-729.78 945,-752.28 1341,-752.28 1341,-729.78 945,-729.78"/>
<text text-anchor="start" x="1065.75" y="-735.98" font-family="Times,serif" font-size="14.00">&quot;Jonline Balancer of Loads&quot;</text>
<polygon fill="none" stroke="white" points="945,-705.28 945,-727.78 1341,-727.78 1341,-705.28 945,-705.28"/>
<text text-anchor="start" x="948" y="-711.48" font-family="Times,serif" font-size="14.00">Could feasibly just pre&#45;configure and run/fork/await an Nginx instance.</text>
<polygon fill="none" stroke="white" points="942,-702.28 942,-804.28 1344,-804.28 1344,-702.28 942,-702.28"/>
</g>
<!-- browser&#45;&gt;jbl -->
<g id="edge1" class="edge">
<title>browser&#45;&gt;jbl</title>
<path fill="none" stroke="black" stroke-width="2" d="M929.97,-1168.18C920.46,-1121.4 914.27,-1057.92 933.25,-1005.56 956.73,-940.8 1005,-881.03 1049.32,-836.04"/>
<polygon fill="black" stroke="black" stroke-width="2" points="1050.53,-839.79 1055.12,-830.24 1045.58,-834.84 1050.53,-839.79"/>
<polygon fill="none" stroke="black" points="936,-1049.56 936,-1072.06 1164.75,-1072.06 1164.75,-1049.56 936,-1049.56"/>
<text text-anchor="start" x="989.25" y="-1056.76" font-family="Times,serif" font-style="italic" font-size="14.00">Single</text>
<text text-anchor="start" x="1023" y="-1056.76" font-family="Times,serif" font-size="14.00"> </text>
<text text-anchor="start" x="1026.75" y="-1056.76" font-family="Times,serif" font-weight="bold" font-size="14.00">$12/mo</text>
<text text-anchor="start" x="1069.5" y="-1056.76" font-family="Times,serif" font-size="14.00"> ingress</text>
<polygon fill="none" stroke="black" points="936,-1008.56 936,-1047.56 1164.75,-1047.56 1164.75,-1008.56 936,-1008.56"/>
<text text-anchor="start" x="1014.38" y="-1031.26" font-family="Times,serif" font-size="14.00">Host Header:</text>
<text text-anchor="start" x="939" y="-1014.76" font-family="Times,serif" font-size="14.00">jonline.io | oakcity.social | bullcity.social</text>
<polygon fill="none" stroke="black" points="933,-1005.56 933,-1075.06 1167.75,-1075.06 1167.75,-1005.56 933,-1005.56"/>
</g>
<!-- resolve_dns -->
<g id="node3" class="node">
<title>resolve_dns</title>
<polygon fill="none" stroke="black" points="1286.8,-1129.06 1145.54,-1129.06 1109.2,-1093.06 1250.46,-1093.06 1286.8,-1129.06"/>
<text text-anchor="middle" x="1198" y="-1106.01" font-family="Times,serif" font-size="14.00">DNS Lookup</text>
</g>
<!-- browser&#45;&gt;resolve_dns -->
<g id="edge2" class="edge">
<title>browser&#45;&gt;resolve_dns</title>
<path fill="none" stroke="black" stroke-width="2" d="M1010.12,-1203.88C1054.19,-1182.34 1112.37,-1153.91 1152.24,-1134.43"/>
<polygon fill="black" stroke="black" stroke-width="2" points="1152.3,-1138.29 1159.75,-1130.76 1149.22,-1132 1152.3,-1138.29"/>
</g>
<!-- parse_host -->
<g id="node9" class="node">
<title>parse_host</title>
<polygon fill="white" stroke="white" points="1260.31,-601.5 1073.69,-601.5 1025.69,-565.5 1212.31,-565.5 1260.31,-601.5"/>
<text text-anchor="middle" x="1143" y="-578.45" font-family="Times,serif" font-size="14.00">Parse Host Header</text>
</g>
<!-- jbl&#45;&gt;parse_host -->
<g id="edge10" class="edge">
<title>jbl&#45;&gt;parse_host</title>
<path fill="none" stroke="black" d="M1143,-675.27C1143,-653.22 1143,-630.54 1143,-613.36"/>
<polygon fill="black" stroke="black" points="1146.5,-613.43 1143,-603.43 1139.5,-613.43 1146.5,-613.43"/>
</g>
<!-- jonlineio_dns -->
<g id="node4" class="node">
<title>jonlineio_dns</title>
<polygon fill="none" stroke="black" points="1220.88,-987.56 1159.12,-987.56 1159.12,-951.56 1226.88,-951.56 1226.88,-981.56 1220.88,-987.56"/>
<polyline fill="none" stroke="black" points="1220.88,-987.56 1220.88,-981.56"/>
<polyline fill="none" stroke="black" points="1226.88,-981.56 1220.88,-981.56"/>
<text text-anchor="middle" x="1193" y="-964.51" font-family="Times,serif" font-size="14.00">jonline.io</text>
</g>
<!-- resolve_dns&#45;&gt;jonlineio_dns -->
<g id="edge3" class="edge">
<title>resolve_dns&#45;&gt;jonlineio_dns</title>
<path fill="none" stroke="black" stroke-dasharray="1,5" d="M1198.39,-1092.66C1198.72,-1071.91 1198.89,-1036.17 1197,-1005.56 1196.87,-1003.5 1196.71,-1001.37 1196.52,-999.23"/>
<polygon fill="black" stroke="black" points="1200.02,-999.07 1195.51,-989.48 1193.06,-999.79 1200.02,-999.07"/>
</g>
<!-- oakcitysocial_dns -->
<g id="node5" class="node">
<title>oakcitysocial_dns</title>
<polygon fill="none" stroke="black" points="1329.12,-987.56 1244.88,-987.56 1244.88,-951.56 1335.12,-951.56 1335.12,-981.56 1329.12,-987.56"/>
<polyline fill="none" stroke="black" points="1329.12,-987.56 1329.12,-981.56"/>
<polyline fill="none" stroke="black" points="1335.12,-981.56 1329.12,-981.56"/>
<text text-anchor="middle" x="1290" y="-964.51" font-family="Times,serif" font-size="14.00">oakcity.social</text>
</g>
<!-- resolve_dns&#45;&gt;oakcitysocial_dns -->
<g id="edge4" class="edge">
<title>resolve_dns&#45;&gt;oakcitysocial_dns</title>
<path fill="none" stroke="black" stroke-dasharray="1,5" d="M1209.47,-1092.68C1225.25,-1068.74 1253.83,-1025.41 1272.35,-997.32"/>
<polygon fill="black" stroke="black" points="1275.26,-999.27 1277.85,-988.99 1269.42,-995.41 1275.26,-999.27"/>
</g>
<!-- bullcitysocial_dns -->
<g id="node6" class="node">
<title>bullcitysocial_dns</title>
<polygon fill="none" stroke="black" points="1134.88,-987.56 1049.12,-987.56 1049.12,-951.56 1140.88,-951.56 1140.88,-981.56 1134.88,-987.56"/>
<polyline fill="none" stroke="black" points="1134.88,-987.56 1134.88,-981.56"/>
<polyline fill="none" stroke="black" points="1140.88,-981.56 1134.88,-981.56"/>
<text text-anchor="middle" x="1095" y="-964.51" font-family="Times,serif" font-size="14.00">bullcity.social</text>
</g>
<!-- resolve_dns&#45;&gt;bullcitysocial_dns -->
<g id="edge5" class="edge">
<title>resolve_dns&#45;&gt;bullcitysocial_dns</title>
<path fill="none" stroke="black" stroke-dasharray="1,5" d="M1198.12,-1092.85C1197.39,-1070.31 1192.93,-1030.71 1172,-1005.56 1166.32,-998.74 1159.03,-993.18 1151.2,-988.68"/>
<polygon fill="black" stroke="black" points="1152.93,-985.64 1142.43,-984.21 1149.75,-991.87 1152.93,-985.64"/>
</g>
<!-- jonlineio_dns&#45;&gt;jbl -->
<g id="edge6" class="edge">
<title>jonlineio_dns&#45;&gt;jbl</title>
<path fill="none" stroke="black" stroke-dasharray="1,5" d="M1188.99,-951.39C1183.45,-927.65 1173.06,-883.1 1163.55,-842.35"/>
<polygon fill="black" stroke="black" points="1166.99,-841.68 1161.31,-832.73 1160.17,-843.27 1166.99,-841.68"/>
</g>
<!-- oakcitysocial_dns&#45;&gt;jbl -->
<g id="edge7" class="edge">
<title>oakcitysocial_dns&#45;&gt;jbl</title>
<path fill="none" stroke="black" stroke-dasharray="1,5" d="M1278.22,-951.39C1261.56,-927.11 1229.97,-881.07 1201.52,-839.58"/>
<polygon fill="black" stroke="black" points="1204.52,-837.78 1195.98,-831.51 1198.75,-841.74 1204.52,-837.78"/>
</g>
<!-- bullcitysocial_dns&#45;&gt;jbl -->
<g id="edge8" class="edge">
<title>bullcitysocial_dns&#45;&gt;jbl</title>
<path fill="none" stroke="black" stroke-dasharray="1,5" d="M1098.85,-951.39C1104.17,-927.65 1114.14,-883.1 1123.27,-842.35"/>
<polygon fill="black" stroke="black" points="1126.66,-843.26 1125.43,-832.74 1119.82,-841.73 1126.66,-843.26"/>
</g>
<!-- configuration -->
<g id="node7" class="node">
<title>configuration</title>
<polygon fill="#c1b2ff" stroke="#c1b2ff" points="1522,-638.5 1278,-638.5 1278,-528.5 1522,-528.5 1522,-638.5"/>
<polygon fill="none" stroke="#c1b2ff" points="1289,-609 1289,-631.5 1511,-631.5 1511,-609 1289,-609"/>
<text text-anchor="start" x="1345.25" y="-616.2" font-family="Times,serif" font-weight="bold" font-size="14.00">JBL Configuration</text>
<polygon fill="none" stroke="#c1b2ff" points="1289,-584.5 1289,-607 1511,-607 1511,-584.5 1289,-584.5"/>
<text text-anchor="start" x="1351.25" y="-590.7" font-family="Times,serif" font-size="14.00">(K8s ConfigMap)</text>
<polygon fill="none" stroke="#c1b2ff" points="1289,-560 1289,-582.5 1511,-582.5 1511,-560 1289,-560"/>
<text text-anchor="start" x="1292.38" y="-566.2" font-family="Times,serif" font-size="14.00">Maps domain name &#45;&gt; K8s namespace</text>
<polygon fill="none" stroke="#c1b2ff" points="1289,-535.5 1289,-558 1511,-558 1511,-535.5 1289,-535.5"/>
<text text-anchor="start" x="1292" y="-541.7" font-family="Times,serif" font-size="14.00">Configurable with deploys/jbl/Makefile</text>
<polygon fill="none" stroke="#c1b2ff" points="1286,-532.5 1286,-634.5 1514,-634.5 1514,-532.5 1286,-532.5"/>
</g>
<!-- resolve_namespace -->
<g id="node8" class="node">
<title>resolve_namespace</title>
<polygon fill="white" stroke="white" points="1528.96,-491.5 914.98,-491.5 757.04,-455.5 1371.02,-455.5 1528.96,-491.5"/>
<text text-anchor="middle" x="1143" y="-468.45" font-family="Times,serif" font-size="14.00">Resolve Namespace from Host Header based on JBL Configuration</text>
</g>
<!-- configuration&#45;&gt;resolve_namespace -->
<g id="edge9" class="edge">
<title>configuration&#45;&gt;resolve_namespace</title>
<path fill="none" stroke="black" stroke-width="2" d="M1277.52,-531.03C1248.48,-518.83 1219.04,-506.45 1195.13,-496.4"/>
<polygon fill="black" stroke="black" stroke-width="2" points="1197.92,-493.78 1187.34,-493.13 1195.2,-500.23 1197.92,-493.78"/>
</g>
<!-- jonlineio -->
<g id="node10" class="node">
<title>jonlineio</title>
<polygon fill="white" stroke="white" points="945.88,-371.25 884.12,-371.25 884.12,-335.25 951.88,-335.25 951.88,-365.25 945.88,-371.25"/>
<polyline fill="none" stroke="white" points="945.88,-371.25 945.88,-365.25"/>
<polyline fill="none" stroke="white" points="951.88,-365.25 945.88,-365.25"/>
<text text-anchor="middle" x="918" y="-348.2" font-family="Times,serif" font-size="14.00">jonline.io</text>
</g>
<!-- resolve_namespace&#45;&gt;jonlineio -->
<g id="edge12" class="edge">
<title>resolve_namespace&#45;&gt;jonlineio</title>
<path fill="none" stroke="black" stroke-dasharray="1,5" d="M1073.84,-455.11C1052.37,-448.32 1029.08,-439.49 1009,-428.5 984.56,-415.12 960.28,-394.87 942.96,-378.9"/>
<polygon fill="black" stroke="black" points="945.83,-376.79 936.15,-372.48 941.03,-381.89 945.83,-376.79"/>
</g>
<!-- oakcitysocial -->
<g id="node11" class="node">
<title>oakcitysocial</title>
<polygon fill="white" stroke="white" points="1328.12,-371.25 1243.88,-371.25 1243.88,-335.25 1334.12,-335.25 1334.12,-365.25 1328.12,-371.25"/>
<polyline fill="none" stroke="white" points="1328.12,-371.25 1328.12,-365.25"/>
<polyline fill="none" stroke="white" points="1334.12,-365.25 1328.12,-365.25"/>
<text text-anchor="middle" x="1289" y="-348.2" font-family="Times,serif" font-size="14.00">oakcity.social</text>
</g>
<!-- resolve_namespace&#45;&gt;oakcitysocial -->
<g id="edge13" class="edge">
<title>resolve_namespace&#45;&gt;oakcitysocial</title>
<path fill="none" stroke="black" stroke-dasharray="1,5" d="M1164.54,-455.05C1189.59,-434.76 1231.09,-401.15 1259.22,-378.37"/>
<polygon fill="black" stroke="black" points="1261.1,-381.35 1266.67,-372.34 1256.69,-375.91 1261.1,-381.35"/>
</g>
<!-- bullcitysocial -->
<g id="node12" class="node">
<title>bullcitysocial</title>
<polygon fill="white" stroke="white" points="1103.88,-371.25 1018.12,-371.25 1018.12,-335.25 1109.88,-335.25 1109.88,-365.25 1103.88,-371.25"/>
<polyline fill="none" stroke="white" points="1103.88,-371.25 1103.88,-365.25"/>
<polyline fill="none" stroke="white" points="1109.88,-365.25 1103.88,-365.25"/>
<text text-anchor="middle" x="1064" y="-348.2" font-family="Times,serif" font-size="14.00">bullcity.social</text>
</g>
<!-- resolve_namespace&#45;&gt;bullcitysocial -->
<g id="edge14" class="edge">
<title>resolve_namespace&#45;&gt;bullcitysocial</title>
<path fill="none" stroke="black" stroke-dasharray="1,5" d="M1131.34,-455.05C1118.26,-435.46 1096.88,-403.46 1081.72,-380.77"/>
<polygon fill="black" stroke="black" points="1084.75,-379.01 1076.29,-372.64 1078.93,-382.9 1084.75,-379.01"/>
</g>
<!-- parse_host&#45;&gt;resolve_namespace -->
<g id="edge11" class="edge">
<title>parse_host&#45;&gt;resolve_namespace</title>
<path fill="none" stroke="black" d="M1143,-565.15C1143,-548.46 1143,-522.92 1143,-503.2"/>
<polygon fill="black" stroke="black" points="1146.5,-503.32 1143,-493.32 1139.5,-503.32 1146.5,-503.32"/>
</g>
<!-- certs -->
<g id="node13" class="node">
<title>certs</title>
<polygon fill="#c1b2ff" stroke="#c1b2ff" points="733,-396 489,-396 489,-310.5 733,-310.5 733,-396"/>
<polygon fill="none" stroke="#c1b2ff" points="500,-366.5 500,-389 722,-389 722,-366.5 500,-366.5"/>
<text text-anchor="start" x="529.25" y="-373.7" font-family="Times,serif" font-weight="bold" font-size="14.00">TLS/SSL Cert Management</text>
<polygon fill="none" stroke="#c1b2ff" points="500,-342 500,-364.5 722,-364.5 722,-342 500,-342"/>
<text text-anchor="start" x="510.88" y="-348.2" font-family="Times,serif" font-size="14.00">(K8s ClusterRoles and RoleBinding)</text>
<polygon fill="none" stroke="#c1b2ff" points="500,-317.5 500,-340 722,-340 722,-317.5 500,-317.5"/>
<text text-anchor="start" x="503" y="-323.7" font-family="Times,serif" font-size="14.00">Configurable with deploys/jbl/Makefile</text>
<polygon fill="none" stroke="#c1b2ff" points="497,-314.5 497,-392 725,-392 725,-314.5 497,-314.5"/>
</g>
<!-- parse_host&#45;&gt;certs -->
<g id="edge18" class="edge">
<title>parse_host&#45;&gt;certs</title>
<path fill="none" stroke="black" d="M1036.65,-574.14C953.69,-563.92 837.85,-541.33 748,-491.5 709.28,-470.02 674.18,-434.39 649.21,-404.81"/>
<polygon fill="black" stroke="black" points="652.16,-402.88 643.08,-397.42 646.77,-407.35 652.16,-402.88"/>
</g>
<!-- jonline0 -->
<g id="node14" class="node">
<title>jonline0</title>
<ellipse fill="white" stroke="white" cx="429" cy="-159.5" rx="80.26" ry="43.13"/>
<polygon fill="none" stroke="white" points="383.25,-160.5 383.25,-183 474.75,-183 474.75,-160.5 383.25,-160.5"/>
<text text-anchor="start" x="409.12" y="-167.7" font-family="Times,serif" font-weight="bold" font-size="14.00">jonline</text>
<polygon fill="none" stroke="white" points="383.25,-136 383.25,-158.5 474.75,-158.5 474.75,-136 383.25,-136"/>
<text text-anchor="start" x="386.25" y="-142.2" font-family="Times,serif" font-size="14.00">(K8s ClusterIP)</text>
<polygon fill="none" stroke="white" points="380.25,-133 380.25,-186 477.75,-186 477.75,-133 380.25,-133"/>
</g>
<!-- jonlineio&#45;&gt;jonline0 -->
<g id="edge17" class="edge">
<title>jonlineio&#45;&gt;jonline0</title>
<path fill="none" stroke="black" d="M883.68,-340.22C849.11,-328.63 794.02,-311.54 745,-302.5 695.87,-293.44 564.68,-307.74 521,-283.5 491.85,-267.32 469.23,-237.61 453.71,-211.44"/>
<polygon fill="black" stroke="black" points="456.85,-209.89 448.86,-202.93 450.77,-213.35 456.85,-209.89"/>
</g>
<!-- jonline1 -->
<g id="node18" class="node">
<title>jonline1</title>
<ellipse fill="white" stroke="white" cx="1463" cy="-159.5" rx="80.26" ry="43.13"/>
<polygon fill="none" stroke="white" points="1417.25,-160.5 1417.25,-183 1508.75,-183 1508.75,-160.5 1417.25,-160.5"/>
<text text-anchor="start" x="1443.12" y="-167.7" font-family="Times,serif" font-weight="bold" font-size="14.00">jonline</text>
<polygon fill="none" stroke="white" points="1417.25,-136 1417.25,-158.5 1508.75,-158.5 1508.75,-136 1417.25,-136"/>
<text text-anchor="start" x="1420.25" y="-142.2" font-family="Times,serif" font-size="14.00">(K8s ClusterIP)</text>
<polygon fill="none" stroke="white" points="1414.25,-133 1414.25,-186 1511.75,-186 1511.75,-133 1414.25,-133"/>
</g>
<!-- oakcitysocial&#45;&gt;jonline1 -->
<g id="edge21" class="edge">
<title>oakcitysocial&#45;&gt;jonline1</title>
<path fill="none" stroke="black" d="M1313.56,-334.77C1331.1,-321.69 1354.73,-302.79 1373,-283.5 1394.27,-261.04 1414.88,-233.45 1431,-210.09"/>
<polygon fill="black" stroke="black" points="1433.81,-212.19 1436.54,-201.95 1428.02,-208.25 1433.81,-212.19"/>
</g>
<!-- jonline2 -->
<g id="node22" class="node">
<title>jonline2</title>
<ellipse fill="white" stroke="white" cx="946" cy="-159.5" rx="80.26" ry="43.13"/>
<polygon fill="none" stroke="white" points="900.25,-160.5 900.25,-183 991.75,-183 991.75,-160.5 900.25,-160.5"/>
<text text-anchor="start" x="926.12" y="-167.7" font-family="Times,serif" font-weight="bold" font-size="14.00">jonline</text>
<polygon fill="none" stroke="white" points="900.25,-136 900.25,-158.5 991.75,-158.5 991.75,-136 900.25,-136"/>
<text text-anchor="start" x="903.25" y="-142.2" font-family="Times,serif" font-size="14.00">(K8s ClusterIP)</text>
<polygon fill="none" stroke="white" points="897.25,-133 897.25,-186 994.75,-186 994.75,-133 897.25,-133"/>
</g>
<!-- bullcitysocial&#45;&gt;jonline2 -->
<g id="edge24" class="edge">
<title>bullcitysocial&#45;&gt;jonline2</title>
<path fill="none" stroke="black" d="M1053.32,-334.9C1036.2,-307.07 1001.97,-251.45 976.75,-210.48"/>
<polygon fill="black" stroke="black" points="979.89,-208.9 971.67,-202.21 973.93,-212.57 979.89,-208.9"/>
</g>
<!-- tls0 -->
<g id="node17" class="node">
<title>tls0</title>
<polygon fill="#c1b2ff" stroke="#c1b2ff" points="330.25,-214.5 15.75,-214.5 15.75,-104.5 330.25,-104.5 330.25,-214.5"/>
<polygon fill="none" stroke="#c1b2ff" points="26.75,-185 26.75,-207.5 319.25,-207.5 319.25,-185 26.75,-185"/>
<text text-anchor="start" x="145.62" y="-191.2" font-family="Times,serif" font-size="14.00">jonline&#45;tls</text>
<polygon fill="none" stroke="#c1b2ff" points="26.75,-160.5 26.75,-183 319.25,-183 319.25,-160.5 26.75,-160.5"/>
<text text-anchor="start" x="138.88" y="-166.7" font-family="Times,serif" font-size="14.00">(K8s Secret)</text>
<polygon fill="none" stroke="#c1b2ff" points="26.75,-136 26.75,-158.5 319.25,-158.5 319.25,-136 26.75,-136"/>
<text text-anchor="start" x="29.75" y="-142.2" font-family="Times,serif" font-size="14.00">Configurable with deploys/generated_certs/Makefile</text>
<polygon fill="none" stroke="#c1b2ff" points="26.75,-111.5 26.75,-134 319.25,-134 319.25,-111.5 26.75,-111.5"/>
<text text-anchor="start" x="53.75" y="-118.7" font-family="Times,serif" font-size="14.00">Lightweight integration with </text>
<text text-anchor="start" x="213.5" y="-118.7" font-family="Times,serif" font-style="italic" font-size="14.00">Cert&#45;Manager</text>
<polygon fill="none" stroke="#c1b2ff" points="23.75,-108.5 23.75,-210.5 322.25,-210.5 322.25,-108.5 23.75,-108.5"/>
</g>
<!-- certs&#45;&gt;tls0 -->
<g id="edge25" class="edge">
<title>certs&#45;&gt;tls0</title>
<path fill="none" stroke="black" d="M488.82,-331.75C440.97,-321.06 386.51,-305.49 340,-283.5 306.07,-267.46 272.09,-244.09 243.72,-222.03"/>
<polygon fill="black" stroke="black" points="245.92,-219.3 235.9,-215.85 241.59,-224.8 245.92,-219.3"/>
</g>
<!-- tls1 -->
<g id="node21" class="node">
<title>tls1</title>
<polygon fill="#c1b2ff" stroke="#c1b2ff" points="1364.25,-214.5 1049.75,-214.5 1049.75,-104.5 1364.25,-104.5 1364.25,-214.5"/>
<polygon fill="none" stroke="#c1b2ff" points="1060.75,-185 1060.75,-207.5 1353.25,-207.5 1353.25,-185 1060.75,-185"/>
<text text-anchor="start" x="1179.62" y="-191.2" font-family="Times,serif" font-size="14.00">jonline&#45;tls</text>
<polygon fill="none" stroke="#c1b2ff" points="1060.75,-160.5 1060.75,-183 1353.25,-183 1353.25,-160.5 1060.75,-160.5"/>
<text text-anchor="start" x="1172.88" y="-166.7" font-family="Times,serif" font-size="14.00">(K8s Secret)</text>
<polygon fill="none" stroke="#c1b2ff" points="1060.75,-136 1060.75,-158.5 1353.25,-158.5 1353.25,-136 1060.75,-136"/>
<text text-anchor="start" x="1063.75" y="-142.2" font-family="Times,serif" font-size="14.00">Configurable with deploys/generated_certs/Makefile</text>
<polygon fill="none" stroke="#c1b2ff" points="1060.75,-111.5 1060.75,-134 1353.25,-134 1353.25,-111.5 1060.75,-111.5"/>
<text text-anchor="start" x="1087.75" y="-118.7" font-family="Times,serif" font-size="14.00">Lightweight integration with </text>
<text text-anchor="start" x="1247.5" y="-118.7" font-family="Times,serif" font-style="italic" font-size="14.00">Cert&#45;Manager</text>
<polygon fill="none" stroke="#c1b2ff" points="1057.75,-108.5 1057.75,-210.5 1356.25,-210.5 1356.25,-108.5 1057.75,-108.5"/>
</g>
<!-- certs&#45;&gt;tls1 -->
<g id="edge26" class="edge">
<title>certs&#45;&gt;tls1</title>
<path fill="none" stroke="black" d="M715.84,-310.07C725.6,-307.14 735.41,-304.54 745,-302.5 872.63,-275.28 915.28,-327.87 1038,-283.5 1075.27,-270.03 1111.49,-245.66 1140.78,-222.16"/>
<polygon fill="black" stroke="black" points="1142.95,-224.9 1148.47,-215.86 1138.52,-219.49 1142.95,-224.9"/>
</g>
<!-- tls2 -->
<g id="node25" class="node">
<title>tls2</title>
<polygon fill="#c1b2ff" stroke="#c1b2ff" points="847.25,-214.5 532.75,-214.5 532.75,-104.5 847.25,-104.5 847.25,-214.5"/>
<polygon fill="none" stroke="#c1b2ff" points="543.75,-185 543.75,-207.5 836.25,-207.5 836.25,-185 543.75,-185"/>
<text text-anchor="start" x="662.62" y="-191.2" font-family="Times,serif" font-size="14.00">jonline&#45;tls</text>
<polygon fill="none" stroke="#c1b2ff" points="543.75,-160.5 543.75,-183 836.25,-183 836.25,-160.5 543.75,-160.5"/>
<text text-anchor="start" x="655.88" y="-166.7" font-family="Times,serif" font-size="14.00">(K8s Secret)</text>
<polygon fill="none" stroke="#c1b2ff" points="543.75,-136 543.75,-158.5 836.25,-158.5 836.25,-136 543.75,-136"/>
<text text-anchor="start" x="546.75" y="-142.2" font-family="Times,serif" font-size="14.00">Configurable with deploys/generated_certs/Makefile</text>
<polygon fill="none" stroke="#c1b2ff" points="543.75,-111.5 543.75,-134 836.25,-134 836.25,-111.5 543.75,-111.5"/>
<text text-anchor="start" x="570.75" y="-118.7" font-family="Times,serif" font-size="14.00">Lightweight integration with </text>
<text text-anchor="start" x="730.5" y="-118.7" font-family="Times,serif" font-style="italic" font-size="14.00">Cert&#45;Manager</text>
<polygon fill="none" stroke="#c1b2ff" points="540.75,-108.5 540.75,-210.5 839.25,-210.5 839.25,-108.5 540.75,-108.5"/>
</g>
<!-- certs&#45;&gt;tls2 -->
<g id="edge27" class="edge">
<title>certs&#45;&gt;tls2</title>
<path fill="none" stroke="black" d="M628.34,-310.17C638.57,-285.34 651.73,-253.39 663.26,-225.39"/>
<polygon fill="black" stroke="black" points="666.45,-226.86 667.02,-216.28 659.97,-224.19 666.45,-226.86"/>
</g>
<!-- minio0 -->
<g id="node15" class="node">
<title>minio0</title>
<path fill="white" stroke="white" d="M335,-48.73C335,-50.53 322.9,-52 308,-52 293.1,-52 281,-50.53 281,-48.73 281,-48.73 281,-19.27 281,-19.27 281,-17.47 293.1,-16 308,-16 322.9,-16 335,-17.47 335,-19.27 335,-19.27 335,-48.73 335,-48.73"/>
<path fill="none" stroke="white" d="M335,-48.73C335,-46.92 322.9,-45.45 308,-45.45 293.1,-45.45 281,-46.92 281,-48.73"/>
<text text-anchor="middle" x="308" y="-28.95" font-family="Times,serif" font-size="14.00">Minio</text>
</g>
<!-- jonline0&#45;&gt;minio0 -->
<g id="edge15" class="edge">
<title>jonline0&#45;&gt;minio0</title>
<path fill="none" stroke="black" d="M375.29,-126.98C359.37,-115.72 342.89,-101.95 330.5,-86.5 324.96,-79.59 320.52,-71.11 317.1,-63.04"/>
<polygon fill="black" stroke="black" points="320.44,-61.97 313.59,-53.88 313.9,-64.47 320.44,-61.97"/>
<text text-anchor="start" x="331" y="-74.2" font-family="Times,serif" font-size="14.00">5GB @ </text>
<text text-anchor="start" x="376.75" y="-74.2" font-family="Times,serif" font-weight="bold" font-size="14.00">50¢/mo</text>
</g>
<!-- postgres0 -->
<g id="node16" class="node">
<title>postgres0</title>
<path fill="white" stroke="white" d="M450.88,-48.73C450.88,-50.53 437.04,-52 420,-52 402.96,-52 389.12,-50.53 389.12,-48.73 389.12,-48.73 389.12,-19.27 389.12,-19.27 389.12,-17.47 402.96,-16 420,-16 437.04,-16 450.88,-17.47 450.88,-19.27 450.88,-19.27 450.88,-48.73 450.88,-48.73"/>
<path fill="none" stroke="white" d="M450.88,-48.73C450.88,-46.92 437.04,-45.45 420,-45.45 402.96,-45.45 389.12,-46.92 389.12,-48.73"/>
<text text-anchor="middle" x="420" y="-28.95" font-family="Times,serif" font-size="14.00">Postgres</text>
</g>
<!-- jonline0&#45;&gt;postgres0 -->
<g id="edge16" class="edge">
<title>jonline0&#45;&gt;postgres0</title>
<path fill="none" stroke="black" d="M425.9,-116C424.65,-98.82 423.24,-79.44 422.11,-63.94"/>
<polygon fill="black" stroke="black" points="425.6,-63.69 421.38,-53.97 418.62,-64.19 425.6,-63.69"/>
<text text-anchor="start" x="424" y="-74.2" font-family="Times,serif" font-size="14.00">1GB @ </text>
<text text-anchor="start" x="469.75" y="-74.2" font-family="Times,serif" font-weight="bold" font-size="14.00">10¢/mo</text>
</g>
<!-- minio1 -->
<g id="node19" class="node">
<title>minio1</title>
<path fill="white" stroke="white" d="M1369,-48.73C1369,-50.53 1356.9,-52 1342,-52 1327.1,-52 1315,-50.53 1315,-48.73 1315,-48.73 1315,-19.27 1315,-19.27 1315,-17.47 1327.1,-16 1342,-16 1356.9,-16 1369,-17.47 1369,-19.27 1369,-19.27 1369,-48.73 1369,-48.73"/>
<path fill="none" stroke="white" d="M1369,-48.73C1369,-46.92 1356.9,-45.45 1342,-45.45 1327.1,-45.45 1315,-46.92 1315,-48.73"/>
<text text-anchor="middle" x="1342" y="-28.95" font-family="Times,serif" font-size="14.00">Minio</text>
</g>
<!-- jonline1&#45;&gt;minio1 -->
<g id="edge19" class="edge">
<title>jonline1&#45;&gt;minio1</title>
<path fill="none" stroke="black" d="M1408.85,-127.37C1392.67,-116.09 1375.95,-102.21 1363.5,-86.5 1358.04,-79.61 1353.75,-71.13 1350.49,-63.06"/>
<polygon fill="black" stroke="black" points="1353.87,-62.12 1347.17,-53.91 1347.29,-64.5 1353.87,-62.12"/>
<text text-anchor="start" x="1363" y="-74.2" font-family="Times,serif" font-size="14.00">5GB @ </text>
<text text-anchor="start" x="1408.75" y="-74.2" font-family="Times,serif" font-weight="bold" font-size="14.00">50¢/mo</text>
</g>
<!-- postgres1 -->
<g id="node20" class="node">
<title>postgres1</title>
<path fill="white" stroke="white" d="M1484.88,-48.73C1484.88,-50.53 1471.04,-52 1454,-52 1436.96,-52 1423.12,-50.53 1423.12,-48.73 1423.12,-48.73 1423.12,-19.27 1423.12,-19.27 1423.12,-17.47 1436.96,-16 1454,-16 1471.04,-16 1484.88,-17.47 1484.88,-19.27 1484.88,-19.27 1484.88,-48.73 1484.88,-48.73"/>
<path fill="none" stroke="white" d="M1484.88,-48.73C1484.88,-46.92 1471.04,-45.45 1454,-45.45 1436.96,-45.45 1423.12,-46.92 1423.12,-48.73"/>
<text text-anchor="middle" x="1454" y="-28.95" font-family="Times,serif" font-size="14.00">Postgres</text>
</g>
<!-- jonline1&#45;&gt;postgres1 -->
<g id="edge20" class="edge">
<title>jonline1&#45;&gt;postgres1</title>
<path fill="none" stroke="black" d="M1459.9,-116C1458.65,-98.82 1457.24,-79.44 1456.11,-63.94"/>
<polygon fill="black" stroke="black" points="1459.6,-63.69 1455.38,-53.97 1452.62,-64.19 1459.6,-63.69"/>
<text text-anchor="start" x="1457" y="-74.2" font-family="Times,serif" font-size="14.00">1GB @ </text>
<text text-anchor="start" x="1502.75" y="-74.2" font-family="Times,serif" font-weight="bold" font-size="14.00">10¢/mo</text>
</g>
<!-- minio2 -->
<g id="node23" class="node">
<title>minio2</title>
<path fill="white" stroke="white" d="M852,-48.73C852,-50.53 839.9,-52 825,-52 810.1,-52 798,-50.53 798,-48.73 798,-48.73 798,-19.27 798,-19.27 798,-17.47 810.1,-16 825,-16 839.9,-16 852,-17.47 852,-19.27 852,-19.27 852,-48.73 852,-48.73"/>
<path fill="none" stroke="white" d="M852,-48.73C852,-46.92 839.9,-45.45 825,-45.45 810.1,-45.45 798,-46.92 798,-48.73"/>
<text text-anchor="middle" x="825" y="-28.95" font-family="Times,serif" font-size="14.00">Minio</text>
</g>
<!-- jonline2&#45;&gt;minio2 -->
<g id="edge22" class="edge">
<title>jonline2&#45;&gt;minio2</title>
<path fill="none" stroke="black" d="M891.85,-127.37C875.67,-116.09 858.95,-102.21 846.5,-86.5 841.04,-79.61 836.75,-71.13 833.49,-63.06"/>
<polygon fill="black" stroke="black" points="836.87,-62.12 830.17,-53.91 830.29,-64.5 836.87,-62.12"/>
<text text-anchor="start" x="846" y="-74.2" font-family="Times,serif" font-size="14.00">5GB @ </text>
<text text-anchor="start" x="891.75" y="-74.2" font-family="Times,serif" font-weight="bold" font-size="14.00">50¢/mo</text>
</g>
<!-- postgres2 -->
<g id="node24" class="node">
<title>postgres2</title>
<path fill="white" stroke="white" d="M967.88,-48.73C967.88,-50.53 954.04,-52 937,-52 919.96,-52 906.12,-50.53 906.12,-48.73 906.12,-48.73 906.12,-19.27 906.12,-19.27 906.12,-17.47 919.96,-16 937,-16 954.04,-16 967.88,-17.47 967.88,-19.27 967.88,-19.27 967.88,-48.73 967.88,-48.73"/>
<path fill="none" stroke="white" d="M967.88,-48.73C967.88,-46.92 954.04,-45.45 937,-45.45 919.96,-45.45 906.12,-46.92 906.12,-48.73"/>
<text text-anchor="middle" x="937" y="-28.95" font-family="Times,serif" font-size="14.00">Postgres</text>
</g>
<!-- jonline2&#45;&gt;postgres2 -->
<g id="edge23" class="edge">
<title>jonline2&#45;&gt;postgres2</title>
<path fill="none" stroke="black" d="M942.9,-116C941.65,-98.82 940.24,-79.44 939.11,-63.94"/>
<polygon fill="black" stroke="black" points="942.6,-63.69 938.38,-53.97 935.62,-64.19 942.6,-63.69"/>
<text text-anchor="start" x="940" y="-74.2" font-family="Times,serif" font-size="14.00">1GB @ </text>
<text text-anchor="start" x="985.75" y="-74.2" font-family="Times,serif" font-weight="bold" font-size="14.00">10¢/mo</text>
</g>
</g>
</svg>
