<?xml version="1.0" encoding="UTF-8" standalone="no"?>
<!DOCTYPE svg PUBLIC "-//W3C//DTD SVG 1.1//EN"
 "http://www.w3.org/Graphics/SVG/1.1/DTD/svg11.dtd">
<!-- Generated by graphviz version 9.0.0 (20230911.1827)
 -->
<!-- Title: G Pages: 1 -->
<svg width="1051pt" height="804pt"
 viewBox="0.00 0.00 1051.00 803.77" xmlns="http://www.w3.org/2000/svg" xmlns:xlink="http://www.w3.org/1999/xlink">
<g id="graph0" class="graph" transform="scale(1 1) rotate(0) translate(4 799.77)">
<title>G</title>
<polygon fill="white" stroke="none" points="-4,4 -4,-799.77 1047,-799.77 1047,4 -4,4"/>
<g id="clust1" class="cluster">
<title>cluster0</title>
<polygon fill="lightgrey" stroke="lightgrey" points="526,-239.27 526,-680.77 964,-680.77 964,-239.27 526,-239.27"/>
<polygon fill="none" stroke="lightgrey" points="626.5,-651.27 626.5,-673.77 863.5,-673.77 863.5,-651.27 626.5,-651.27"/>
<text text-anchor="start" x="700.75" y="-657.47" font-family="Times,serif" font-size="14.00">JBL Namespace</text>
<polygon fill="none" stroke="lightgrey" points="626.5,-626.77 626.5,-649.27 863.5,-649.27 863.5,-626.77 626.5,-626.77"/>
<text text-anchor="start" x="629.5" y="-632.97" font-family="Times,serif" font-size="14.00">(could be the same as another namespace)</text>
<polygon fill="none" stroke="lightgrey" points="623.5,-623.77 623.5,-676.77 866.5,-676.77 866.5,-623.77 623.5,-623.77"/>
</g>
<g id="clust2" class="cluster">
<title>cluster4</title>
<polygon fill="lightgrey" stroke="lightgrey" points="274,-226.77 274,-328.27 518,-328.27 518,-226.77 274,-226.77"/>
<text text-anchor="middle" x="396" y="-310.97" font-family="Times,serif" font-size="14.00">K8s Control Plane</text>
</g>
<g id="clust3" class="cluster">
<title>cluster1</title>
<polygon fill="lightgrey" stroke="lightgrey" points="8,-8 8,-207.77 345,-207.77 345,-8 8,-8"/>
<text text-anchor="middle" x="176.5" y="-190.47" font-family="Times,serif" font-size="14.00">jonline namespace</text>
</g>
<g id="clust4" class="cluster">
<title>cluster2</title>
<polygon fill="lightgrey" stroke="lightgrey" points="698,-8 698,-207.77 1035,-207.77 1035,-8 698,-8"/>
<text text-anchor="middle" x="866.5" y="-190.47" font-family="Times,serif" font-size="14.00">oakcitysocial namespace</text>
</g>
<g id="clust5" class="cluster">
<title>cluster3</title>
<polygon fill="lightgrey" stroke="lightgrey" points="353,-8 353,-207.77 690,-207.77 690,-8 353,-8"/>
<text text-anchor="middle" x="521.5" y="-190.47" font-family="Times,serif" font-size="14.00">bullcitysocial namespace</text>
</g>
<!-- browser -->
<g id="node1" class="node">
<title>browser</title>
<polygon fill="#c1b2ff" stroke="#c1b2ff" points="669.5,-795.77 584.5,-795.77 584.5,-759.77 675.5,-759.77 675.5,-789.77 669.5,-795.77"/>
<polyline fill="none" stroke="#c1b2ff" points="669.5,-795.77 669.5,-789.77"/>
<polyline fill="none" stroke="#c1b2ff" points="675.5,-789.77 669.5,-789.77"/>
<text text-anchor="middle" x="630" y="-772.72" font-family="Times,serif" font-size="14.00">Web Browser</text>
</g>
<!-- jbl -->
<g id="node2" class="node">
<title>jbl</title>
<polygon fill="none" stroke="black" points="725.75,-611.77 534.25,-611.77 534.25,-550.77 725.75,-550.77 725.75,-611.77"/>
<polygon fill="none" stroke="black" points="545.25,-582.27 545.25,-604.77 714.75,-604.77 714.75,-582.27 545.25,-582.27"/>
<text text-anchor="start" x="577.5" y="-588.47" font-family="Times,serif" font-size="14.00">JBL Load Balancer</text>
<polygon fill="none" stroke="black" points="545.25,-557.77 545.25,-580.27 714.75,-580.27 714.75,-557.77 545.25,-557.77"/>
<text text-anchor="start" x="548.25" y="-563.97" font-family="Times,serif" font-size="14.00">(&quot;Jonline Balancer of Loads&quot;)</text>
<polygon fill="none" stroke="black" points="542.25,-554.77 542.25,-607.77 717.75,-607.77 717.75,-554.77 542.25,-554.77"/>
</g>
<!-- browser&#45;&gt;jbl -->
<g id="edge1" class="edge">
<title>browser&#45;&gt;jbl</title>
<path fill="none" stroke="black" stroke-width="2" d="M630,-759.51C630,-729.17 630,-665.51 630,-623.32"/>
<polygon fill="black" stroke="black" stroke-width="2" points="633.5,-625.06 630,-615.06 626.5,-625.06 633.5,-625.06"/>
<polygon fill="none" stroke="black" points="633,-716.27 633,-738.77 934.5,-738.77 934.5,-716.27 633,-716.27"/>
<text text-anchor="start" x="723" y="-723.47" font-family="Times,serif" font-style="italic" font-size="14.00">Single</text>
<text text-anchor="start" x="756.75" y="-723.47" font-family="Times,serif" font-size="14.00"> $12/mo ingress</text>
<polygon fill="none" stroke="black" points="633,-691.77 633,-714.27 934.5,-714.27 934.5,-691.77 633,-691.77"/>
<text text-anchor="start" x="636" y="-697.97" font-family="Times,serif" font-size="14.00">Host header: jonline.io | oakcity.social | bullcity.social</text>
<polygon fill="none" stroke="black" points="630,-688.77 630,-741.77 937.5,-741.77 937.5,-688.77 630,-688.77"/>
</g>
<!-- parse_host -->
<g id="node5" class="node">
<title>parse_host</title>
<ellipse fill="white" stroke="white" cx="614" cy="-471.02" rx="80.01" ry="18"/>
<text text-anchor="middle" x="614" y="-465.97" font-family="Times,serif" font-size="14.00">Parse Host Header</text>
</g>
<!-- jbl&#45;&gt;parse_host -->
<g id="edge3" class="edge">
<title>jbl&#45;&gt;parse_host</title>
<path fill="none" stroke="black" d="M625.59,-550.4C623.27,-534.74 620.45,-515.67 618.17,-500.26"/>
<polygon fill="black" stroke="black" points="621.7,-500.18 616.78,-490.8 614.78,-501.2 621.7,-500.18"/>
</g>
<!-- configuration -->
<g id="node3" class="node">
<title>configuration</title>
<polygon fill="#c1b2ff" stroke="#c1b2ff" points="955.62,-513.77 712.38,-513.77 712.38,-428.27 955.62,-428.27 955.62,-513.77"/>
<polygon fill="none" stroke="#c1b2ff" points="723.38,-484.27 723.38,-506.77 944.62,-506.77 944.62,-484.27 723.38,-484.27"/>
<text text-anchor="start" x="796.12" y="-490.47" font-family="Times,serif" font-size="14.00">Configuration</text>
<polygon fill="none" stroke="#c1b2ff" points="723.38,-459.77 723.38,-482.27 944.62,-482.27 944.62,-459.77 723.38,-459.77"/>
<text text-anchor="start" x="785.25" y="-465.97" font-family="Times,serif" font-size="14.00">(K8s ConfigMap)</text>
<polygon fill="none" stroke="#c1b2ff" points="723.38,-435.27 723.38,-457.77 944.62,-457.77 944.62,-435.27 723.38,-435.27"/>
<text text-anchor="start" x="726.38" y="-441.47" font-family="Times,serif" font-size="14.00">Maps domain name &#45;&gt; K8s namespace</text>
<polygon fill="none" stroke="#c1b2ff" points="720.38,-432.27 720.38,-509.77 947.62,-509.77 947.62,-432.27 720.38,-432.27"/>
</g>
<!-- resolve_namespace -->
<g id="node4" class="node">
<title>resolve_namespace</title>
<ellipse fill="white" stroke="white" cx="690" cy="-373.27" rx="156.27" ry="18"/>
<text text-anchor="middle" x="690" y="-368.22" font-family="Times,serif" font-size="14.00">Resolve Namespace from Host Header</text>
</g>
<!-- configuration&#45;&gt;resolve_namespace -->
<g id="edge2" class="edge">
<title>configuration&#45;&gt;resolve_namespace</title>
<path fill="none" stroke="black" stroke-width="2" d="M770.84,-428.02C755.27,-417.67 739.15,-406.95 725.43,-397.83"/>
<polygon fill="black" stroke="black" stroke-width="2" points="728.7,-395.79 718.43,-393.17 724.82,-401.62 728.7,-395.79"/>
</g>
<!-- jonlineio -->
<g id="node6" class="node">
<title>jonlineio</title>
<ellipse fill="white" stroke="white" cx="580" cy="-265.27" rx="46.23" ry="18"/>
<text text-anchor="middle" x="580" y="-260.22" font-family="Times,serif" font-size="14.00">jonline.io</text>
</g>
<!-- resolve_namespace&#45;&gt;jonlineio -->
<g id="edge5" class="edge">
<title>resolve_namespace&#45;&gt;jonlineio</title>
<path fill="none" stroke="black" stroke-dasharray="1,5" d="M666.79,-355.12C656.7,-347.3 644.93,-337.7 635,-328.27 622.98,-316.85 610.64,-303.15 600.71,-291.54"/>
<polygon fill="black" stroke="black" points="603.4,-289.3 594.28,-283.91 598.05,-293.81 603.4,-289.3"/>
</g>
<!-- oakcitysocial -->
<g id="node7" class="node">
<title>oakcitysocial</title>
<ellipse fill="white" stroke="white" cx="871" cy="-265.27" rx="61.59" ry="18"/>
<text text-anchor="middle" x="871" y="-260.22" font-family="Times,serif" font-size="14.00">oakcity.social</text>
</g>
<!-- resolve_namespace&#45;&gt;oakcitysocial -->
<g id="edge6" class="edge">
<title>resolve_namespace&#45;&gt;oakcitysocial</title>
<path fill="none" stroke="black" stroke-dasharray="1,5" d="M726.95,-355.37C743.18,-347.59 762.31,-337.96 779,-328.27 799.8,-316.19 822.2,-301.14 839.69,-288.9"/>
<polygon fill="black" stroke="black" points="841.47,-291.92 847.62,-283.29 837.43,-286.2 841.47,-291.92"/>
</g>
<!-- bullcitysocial -->
<g id="node8" class="node">
<title>bullcitysocial</title>
<ellipse fill="white" stroke="white" cx="707" cy="-265.27" rx="62.61" ry="18"/>
<text text-anchor="middle" x="707" y="-260.22" font-family="Times,serif" font-size="14.00">bullcity.social</text>
</g>
<!-- resolve_namespace&#45;&gt;bullcitysocial -->
<g id="edge7" class="edge">
<title>resolve_namespace&#45;&gt;bullcitysocial</title>
<path fill="none" stroke="black" stroke-dasharray="1,5" d="M692.73,-355.24C695.34,-338.95 699.33,-314.09 702.43,-294.78"/>
<polygon fill="black" stroke="black" points="705.85,-295.53 703.98,-285.1 698.94,-294.42 705.85,-295.53"/>
</g>
<!-- parse_host&#45;&gt;resolve_namespace -->
<g id="edge4" class="edge">
<title>parse_host&#45;&gt;resolve_namespace</title>
<path fill="none" stroke="black" d="M627.59,-452.9C639.19,-438.28 656.05,-417.04 669.32,-400.31"/>
<polygon fill="black" stroke="black" points="671.86,-402.75 675.33,-392.75 666.37,-398.4 671.86,-402.75"/>
</g>
<!-- certs -->
<g id="node9" class="node">
<title>certs</title>
<polygon fill="#c1b2ff" stroke="#c1b2ff" points="510.12,-295.77 281.88,-295.77 281.88,-234.77 510.12,-234.77 510.12,-295.77"/>
<polygon fill="none" stroke="#c1b2ff" points="292.88,-266.27 292.88,-288.77 499.12,-288.77 499.12,-266.27 292.88,-266.27"/>
<text text-anchor="start" x="319.5" y="-272.47" font-family="Times,serif" font-size="14.00">TLS/SSL Cert Management</text>
<polygon fill="none" stroke="#c1b2ff" points="292.88,-241.77 292.88,-264.27 499.12,-264.27 499.12,-241.77 292.88,-241.77"/>
<text text-anchor="start" x="295.88" y="-247.97" font-family="Times,serif" font-size="14.00">(K8s ClusterRoles and RoleBinding)</text>
<polygon fill="none" stroke="#c1b2ff" points="289.88,-238.77 289.88,-291.77 502.12,-291.77 502.12,-238.77 289.88,-238.77"/>
</g>
<!-- parse_host&#45;&gt;certs -->
<g id="edge11" class="edge">
<title>parse_host&#45;&gt;certs</title>
<path fill="none" stroke="black" d="M594.68,-453.37C576.5,-437.59 548.62,-413.14 525,-391.27 493.93,-362.49 459.52,-329.07 434.06,-304.03"/>
<polygon fill="black" stroke="black" points="436.78,-301.8 427.2,-297.27 431.87,-306.78 436.78,-301.8"/>
</g>
<!-- jonline0 -->
<g id="node10" class="node">
<title>jonline0</title>
<ellipse fill="white" stroke="white" cx="257" cy="-132.13" rx="80.26" ry="43.13"/>
<polygon fill="none" stroke="white" points="211.25,-133.13 211.25,-155.63 302.75,-155.63 302.75,-133.13 211.25,-133.13"/>
<text text-anchor="start" x="238.25" y="-139.33" font-family="Times,serif" font-size="14.00">jonline</text>
<polygon fill="none" stroke="white" points="211.25,-108.63 211.25,-131.13 302.75,-131.13 302.75,-108.63 211.25,-108.63"/>
<text text-anchor="start" x="214.25" y="-114.83" font-family="Times,serif" font-size="14.00">(K8s ClusterIP)</text>
<polygon fill="none" stroke="white" points="208.25,-105.63 208.25,-158.63 305.75,-158.63 305.75,-105.63 208.25,-105.63"/>
</g>
<!-- jonlineio&#45;&gt;jonline0 -->
<g id="edge10" class="edge">
<title>jonlineio&#45;&gt;jonline0</title>
<path fill="none" stroke="black" d="M560.81,-248.61C550.05,-240.7 536.01,-231.75 522,-226.77 449.12,-200.85 420.38,-237.57 349,-207.77 332.18,-200.75 315.98,-189.64 301.99,-178.13"/>
<polygon fill="black" stroke="black" points="304.61,-175.76 294.73,-171.92 300.06,-181.08 304.61,-175.76"/>
</g>
<!-- jonline1 -->
<g id="node14" class="node">
<title>jonline1</title>
<ellipse fill="white" stroke="white" cx="947" cy="-132.13" rx="80.26" ry="43.13"/>
<polygon fill="none" stroke="white" points="901.25,-133.13 901.25,-155.63 992.75,-155.63 992.75,-133.13 901.25,-133.13"/>
<text text-anchor="start" x="928.25" y="-139.33" font-family="Times,serif" font-size="14.00">jonline</text>
<polygon fill="none" stroke="white" points="901.25,-108.63 901.25,-131.13 992.75,-131.13 992.75,-108.63 901.25,-108.63"/>
<text text-anchor="start" x="904.25" y="-114.83" font-family="Times,serif" font-size="14.00">(K8s ClusterIP)</text>
<polygon fill="none" stroke="white" points="898.25,-105.63 898.25,-158.63 995.75,-158.63 995.75,-105.63 898.25,-105.63"/>
</g>
<!-- oakcitysocial&#45;&gt;jonline1 -->
<g id="edge14" class="edge">
<title>oakcitysocial&#45;&gt;jonline1</title>
<path fill="none" stroke="black" d="M880.94,-247.12C890.29,-230.98 904.78,-205.98 917.81,-183.5"/>
<polygon fill="black" stroke="black" points="920.73,-185.44 922.72,-175.03 914.67,-181.93 920.73,-185.44"/>
</g>
<!-- jonline2 -->
<g id="node18" class="node">
<title>jonline2</title>
<ellipse fill="white" stroke="white" cx="602" cy="-132.13" rx="80.26" ry="43.13"/>
<polygon fill="none" stroke="white" points="556.25,-133.13 556.25,-155.63 647.75,-155.63 647.75,-133.13 556.25,-133.13"/>
<text text-anchor="start" x="583.25" y="-139.33" font-family="Times,serif" font-size="14.00">jonline</text>
<polygon fill="none" stroke="white" points="556.25,-108.63 556.25,-131.13 647.75,-131.13 647.75,-108.63 556.25,-108.63"/>
<text text-anchor="start" x="559.25" y="-114.83" font-family="Times,serif" font-size="14.00">(K8s ClusterIP)</text>
<polygon fill="none" stroke="white" points="553.25,-105.63 553.25,-158.63 650.75,-158.63 650.75,-105.63 553.25,-105.63"/>
</g>
<!-- bullcitysocial&#45;&gt;jonline2 -->
<g id="edge17" class="edge">
<title>bullcitysocial&#45;&gt;jonline2</title>
<path fill="none" stroke="black" d="M693.49,-247.39C680.08,-230.65 658.9,-204.19 640.29,-180.96"/>
<polygon fill="black" stroke="black" points="643.24,-179.04 634.26,-173.42 637.77,-183.41 643.24,-179.04"/>
</g>
<!-- tls0 -->
<g id="node13" class="node">
<title>tls0</title>
<polygon fill="white" stroke="white" points="158.38,-150.13 15.62,-150.13 15.62,-114.13 158.38,-114.13 158.38,-150.13"/>
<text text-anchor="middle" x="87" y="-127.08" font-family="Times,serif" font-size="14.00">jonline&#45;tls (TLS secret)</text>
</g>
<!-- certs&#45;&gt;tls0 -->
<g id="edge18" class="edge">
<title>certs&#45;&gt;tls0</title>
<path fill="none" stroke="black" d="M281.42,-247.58C243.79,-239.1 202.74,-226.46 168,-207.77 145.27,-195.53 123.99,-175.45 108.95,-159.19"/>
<polygon fill="black" stroke="black" points="111.56,-156.86 102.27,-151.76 106.35,-161.54 111.56,-156.86"/>
</g>
<!-- tls1 -->
<g id="node17" class="node">
<title>tls1</title>
<polygon fill="white" stroke="white" points="848.38,-150.13 705.62,-150.13 705.62,-114.13 848.38,-114.13 848.38,-150.13"/>
<text text-anchor="middle" x="777" y="-127.08" font-family="Times,serif" font-size="14.00">jonline&#45;tls (TLS secret)</text>
</g>
<!-- certs&#45;&gt;tls1 -->
<g id="edge19" class="edge">
<title>certs&#45;&gt;tls1</title>
<path fill="none" stroke="black" d="M489.8,-234.35C500.59,-231.5 511.49,-228.89 522,-226.77 597.38,-211.51 623.81,-239.21 694,-207.77 718.55,-196.77 740.88,-175.76 756.18,-158.82"/>
<polygon fill="black" stroke="black" points="758.58,-161.39 762.52,-151.55 753.3,-156.79 758.58,-161.39"/>
</g>
<!-- tls2 -->
<g id="node21" class="node">
<title>tls2</title>
<polygon fill="white" stroke="white" points="503.38,-150.13 360.62,-150.13 360.62,-114.13 503.38,-114.13 503.38,-150.13"/>
<text text-anchor="middle" x="432" y="-127.08" font-family="Times,serif" font-size="14.00">jonline&#45;tls (TLS secret)</text>
</g>
<!-- certs&#45;&gt;tls2 -->
<g id="edge20" class="edge">
<title>certs&#45;&gt;tls2</title>
<path fill="none" stroke="black" d="M404.17,-234.51C410.19,-212.58 418.33,-182.93 424.25,-161.37"/>
<polygon fill="black" stroke="black" points="427.61,-162.35 426.88,-151.78 420.86,-160.5 427.61,-162.35"/>
</g>
<!-- minio0 -->
<g id="node11" class="node">
<title>minio0</title>
<ellipse fill="white" stroke="white" cx="191" cy="-34" rx="33.95" ry="18"/>
<text text-anchor="middle" x="191" y="-28.95" font-family="Times,serif" font-size="14.00">Minio</text>
</g>
<!-- jonline0&#45;&gt;minio0 -->
<g id="edge8" class="edge">
<title>jonline0&#45;&gt;minio0</title>
<path fill="none" stroke="black" d="M229.58,-91.2C222.43,-80.79 214.92,-69.85 208.45,-60.42"/>
<polygon fill="black" stroke="black" points="211.54,-58.73 202.99,-52.47 205.77,-62.69 211.54,-58.73"/>
</g>
<!-- postgres0 -->
<g id="node12" class="node">
<title>postgres0</title>
<ellipse fill="white" stroke="white" cx="285" cy="-34" rx="42.14" ry="18"/>
<text text-anchor="middle" x="285" y="-28.95" font-family="Times,serif" font-size="14.00">Postgres</text>
</g>
<!-- jonline0&#45;&gt;postgres0 -->
<g id="edge9" class="edge">
<title>jonline0&#45;&gt;postgres0</title>
<path fill="none" stroke="black" d="M269.2,-89.25C271.8,-80.31 274.49,-71.07 276.9,-62.82"/>
<polygon fill="black" stroke="black" points="280.21,-63.96 279.65,-53.38 273.49,-62 280.21,-63.96"/>
</g>
<!-- minio1 -->
<g id="node15" class="node">
<title>minio1</title>
<ellipse fill="white" stroke="white" cx="881" cy="-34" rx="33.95" ry="18"/>
<text text-anchor="middle" x="881" y="-28.95" font-family="Times,serif" font-size="14.00">Minio</text>
</g>
<!-- jonline1&#45;&gt;minio1 -->
<g id="edge12" class="edge">
<title>jonline1&#45;&gt;minio1</title>
<path fill="none" stroke="black" d="M919.58,-91.2C912.43,-80.79 904.92,-69.85 898.45,-60.42"/>
<polygon fill="black" stroke="black" points="901.54,-58.73 892.99,-52.47 895.77,-62.69 901.54,-58.73"/>
</g>
<!-- postgres1 -->
<g id="node16" class="node">
<title>postgres1</title>
<ellipse fill="white" stroke="white" cx="975" cy="-34" rx="42.14" ry="18"/>
<text text-anchor="middle" x="975" y="-28.95" font-family="Times,serif" font-size="14.00">Postgres</text>
</g>
<!-- jonline1&#45;&gt;postgres1 -->
<g id="edge13" class="edge">
<title>jonline1&#45;&gt;postgres1</title>
<path fill="none" stroke="black" d="M959.2,-89.25C961.8,-80.31 964.49,-71.07 966.9,-62.82"/>
<polygon fill="black" stroke="black" points="970.21,-63.96 969.65,-53.38 963.49,-62 970.21,-63.96"/>
</g>
<!-- minio2 -->
<g id="node19" class="node">
<title>minio2</title>
<ellipse fill="white" stroke="white" cx="536" cy="-34" rx="33.95" ry="18"/>
<text text-anchor="middle" x="536" y="-28.95" font-family="Times,serif" font-size="14.00">Minio</text>
</g>
<!-- jonline2&#45;&gt;minio2 -->
<g id="edge15" class="edge">
<title>jonline2&#45;&gt;minio2</title>
<path fill="none" stroke="black" d="M574.58,-91.2C567.43,-80.79 559.92,-69.85 553.45,-60.42"/>
<polygon fill="black" stroke="black" points="556.54,-58.73 547.99,-52.47 550.77,-62.69 556.54,-58.73"/>
</g>
<!-- postgres2 -->
<g id="node20" class="node">
<title>postgres2</title>
<ellipse fill="white" stroke="white" cx="630" cy="-34" rx="42.14" ry="18"/>
<text text-anchor="middle" x="630" y="-28.95" font-family="Times,serif" font-size="14.00">Postgres</text>
</g>
<!-- jonline2&#45;&gt;postgres2 -->
<g id="edge16" class="edge">
<title>jonline2&#45;&gt;postgres2</title>
<path fill="none" stroke="black" d="M614.2,-89.25C616.8,-80.31 619.49,-71.07 621.9,-62.82"/>
<polygon fill="black" stroke="black" points="625.21,-63.96 624.65,-53.38 618.49,-62 625.21,-63.96"/>
</g>
</g>
</svg>
