<?xml version="1.0" encoding="UTF-8" standalone="no"?>
<!DOCTYPE svg PUBLIC "-//W3C//DTD SVG 1.1//EN"
 "http://www.w3.org/Graphics/SVG/1.1/DTD/svg11.dtd">
<!-- Generated by graphviz version 12.1.2 (20240928.0832)
 -->
<!-- Title: G Pages: 1 -->
<svg width="1567pt" height="1312pt"
 viewBox="0.00 0.00 1567.00 1312.40" xmlns="http://www.w3.org/2000/svg" xmlns:xlink="http://www.w3.org/1999/xlink">
<g id="graph0" class="graph" transform="scale(1 1) rotate(0) translate(4 1308.4)">
<title>G</title>
<polygon fill="white" stroke="none" points="-4,4 -4,-1308.4 1563,-1308.4 1563,4 -4,4"/>
<g id="clust1" class="cluster">
<title>cluster0</title>
<polygon fill="lightgrey" stroke="lightgrey" points="708,-327.25 708,-924.56 1496,-924.56 1496,-327.25 708,-327.25"/>
<polygon fill="none" stroke="lightgrey" points="983.5,-895.06 983.5,-917.56 1220.5,-917.56 1220.5,-895.06 983.5,-895.06"/>
<text text-anchor="start" x="1094.12" y="-902.26" font-family="Times,serif" font-weight="bold" font-size="14.00">jbl</text>
<polygon fill="none" stroke="lightgrey" points="983.5,-870.56 983.5,-893.06 1220.5,-893.06 1220.5,-870.56 983.5,-870.56"/>
<text text-anchor="start" x="1053.25" y="-876.76" font-family="Times,serif" font-size="14.00">(K8s Namespace)</text>
<polygon fill="none" stroke="lightgrey" points="983.5,-846.06 983.5,-868.56 1220.5,-868.56 1220.5,-846.06 983.5,-846.06"/>
<text text-anchor="start" x="986.5" y="-852.26" font-family="Times,serif" font-size="14.00">(could be the same as another namespace)</text>
<polygon fill="none" stroke="lightgrey" points="980.5,-843.06 980.5,-920.56 1223.5,-920.56 1223.5,-843.06 980.5,-843.06"/>
</g>
<g id="clust2" class="cluster">
<title>cluster4</title>
<polygon fill="lightgrey" stroke="lightgrey" points="440,-302.5 440,-428.5 700,-428.5 700,-302.5 440,-302.5"/>
<text text-anchor="start" x="516" y="-412.2" font-family="Times,serif" font-weight="bold" font-size="14.00">K8s Control Plane</text>
</g>
<g id="clust3" class="cluster">
<title>cluster1</title>
<polygon fill="lightgrey" stroke="lightgrey" points="8,-8 8,-283.5 517,-283.5 517,-8 8,-8"/>
<polygon fill="none" stroke="lightgrey" points="210.75,-254 210.75,-276.5 314.25,-276.5 314.25,-254 210.75,-254"/>
<text text-anchor="start" x="242.62" y="-261.2" font-family="Times,serif" font-weight="bold" font-size="14.00">jonline</text>
<polygon fill="none" stroke="lightgrey" points="210.75,-229.5 210.75,-252 314.25,-252 314.25,-229.5 210.75,-229.5"/>
<text text-anchor="start" x="213.75" y="-235.7" font-family="Times,serif" font-size="14.00">(K8s Namespace)</text>
<polygon fill="none" stroke="lightgrey" points="207.75,-226.5 207.75,-279.5 317.25,-279.5 317.25,-226.5 207.75,-226.5"/>
</g>
<g id="clust4" class="cluster">
<title>cluster2</title>
<polygon fill="lightgrey" stroke="lightgrey" points="1042,-8 1042,-283.5 1551,-283.5 1551,-8 1042,-8"/>
<polygon fill="none" stroke="lightgrey" points="1244.75,-254 1244.75,-276.5 1348.25,-276.5 1348.25,-254 1244.75,-254"/>
<text text-anchor="start" x="1259.38" y="-261.2" font-family="Times,serif" font-weight="bold" font-size="14.00">oakcitysocial</text>
<polygon fill="none" stroke="lightgrey" points="1244.75,-229.5 1244.75,-252 1348.25,-252 1348.25,-229.5 1244.75,-229.5"/>
<text text-anchor="start" x="1247.75" y="-235.7" font-family="Times,serif" font-size="14.00">(K8s Namespace)</text>
<polygon fill="none" stroke="lightgrey" points="1241.75,-226.5 1241.75,-279.5 1351.25,-279.5 1351.25,-226.5 1241.75,-226.5"/>
</g>
<g id="clust5" class="cluster">
<title>cluster3</title>
<polygon fill="lightgrey" stroke="lightgrey" points="525,-8 525,-283.5 1034,-283.5 1034,-8 525,-8"/>
<polygon fill="none" stroke="lightgrey" points="727.75,-254 727.75,-276.5 831.25,-276.5 831.25,-254 727.75,-254"/>
<text text-anchor="start" x="741.62" y="-261.2" font-family="Times,serif" font-weight="bold" font-size="14.00">bullcitysocial</text>
<polygon fill="none" stroke="lightgrey" points="727.75,-229.5 727.75,-252 831.25,-252 831.25,-229.5 727.75,-229.5"/>
<text text-anchor="start" x="730.75" y="-235.7" font-family="Times,serif" font-size="14.00">(K8s Namespace)</text>
<polygon fill="none" stroke="lightgrey" points="724.75,-226.5 724.75,-279.5 834.25,-279.5 834.25,-226.5 724.75,-226.5"/>
</g>
<!-- browser -->
<g id="node1" class="node">
<title>browser</title>
<ellipse fill="#c1b2ff" stroke="#c1b2ff" cx="906" cy="-1235.23" rx="65.17" ry="65.17"/>
<ellipse fill="none" stroke="#c1b2ff" cx="906" cy="-1235.23" rx="69.17" ry="69.17"/>
<text text-anchor="start" x="866.25" y="-1231.18" font-family="Times,serif" font-weight="bold" font-size="14.00">Web Browser</text>
</g>
<!-- jbl -->
<g id="node2" class="node">
<title>jbl</title>
<ellipse fill="white" stroke="white" cx="1102" cy="-753.28" rx="295.57" ry="77.78"/>
<polygon fill="none" stroke="white" points="904,-778.78 904,-801.28 1300,-801.28 1300,-778.78 904,-778.78"/>
<text text-anchor="start" x="1094.12" y="-785.98" font-family="Times,serif" font-weight="bold" font-size="14.00">jbl</text>
<polygon fill="none" stroke="white" points="904,-754.28 904,-776.78 1300,-776.78 1300,-754.28 904,-754.28"/>
<text text-anchor="start" x="1046.88" y="-760.48" font-family="Times,serif" font-size="14.00">(K8s LoadBalancer)</text>
<polygon fill="none" stroke="white" points="904,-729.78 904,-752.28 1300,-752.28 1300,-729.78 904,-729.78"/>
<text text-anchor="start" x="1024.75" y="-735.98" font-family="Times,serif" font-size="14.00">&quot;Jonline Balancer of Loads&quot;</text>
<polygon fill="none" stroke="white" points="904,-705.28 904,-727.78 1300,-727.78 1300,-705.28 904,-705.28"/>
<text text-anchor="start" x="907" y="-711.48" font-family="Times,serif" font-size="14.00">Could feasibly just pre&#45;configure and run/fork/await an Nginx instance.</text>
<polygon fill="none" stroke="white" points="901,-702.28 901,-804.28 1303,-804.28 1303,-702.28 901,-702.28"/>
</g>
<!-- browser&#45;&gt;jbl -->
<g id="edge1" class="edge">
<title>browser&#45;&gt;jbl</title>
<path fill="none" stroke="black" stroke-width="2" d="M887.93,-1168.17C878.4,-1121.38 872.21,-1057.9 891.25,-1005.56 914.85,-940.7 963.35,-880.92 1007.89,-835.96"/>
<polygon fill="black" stroke="black" stroke-width="2" points="1009.1,-839.69 1013.71,-830.16 1004.16,-834.73 1009.1,-839.69"/>
<polygon fill="none" stroke="black" points="894.25,-1049.56 894.25,-1072.06 1123,-1072.06 1123,-1049.56 894.25,-1049.56"/>
<text text-anchor="start" x="947.5" y="-1056.76" font-family="Times,serif" font-style="italic" font-size="14.00">Single</text>
<text text-anchor="start" x="981.25" y="-1056.76" font-family="Times,serif" font-size="14.00"> </text>
<text text-anchor="start" x="985" y="-1056.76" font-family="Times,serif" font-weight="bold" font-size="14.00">$12/mo</text>
<text text-anchor="start" x="1027.75" y="-1056.76" font-family="Times,serif" font-size="14.00"> ingress</text>
<polygon fill="none" stroke="black" points="894.25,-1008.56 894.25,-1047.56 1123,-1047.56 1123,-1008.56 894.25,-1008.56"/>
<text text-anchor="start" x="972.62" y="-1031.26" font-family="Times,serif" font-size="14.00">Host Header:</text>
<text text-anchor="start" x="897.25" y="-1014.76" font-family="Times,serif" font-size="14.00">jonline.io | oakcity.social | bullcity.social</text>
<polygon fill="none" stroke="black" points="891.25,-1005.56 891.25,-1075.06 1126,-1075.06 1126,-1005.56 891.25,-1005.56"/>
</g>
<!-- resolve_dns -->
<g id="node3" class="node">
<title>resolve_dns</title>
<polygon fill="none" stroke="black" points="1244.8,-1129.06 1103.54,-1129.06 1067.2,-1093.06 1208.46,-1093.06 1244.8,-1129.06"/>
<text text-anchor="middle" x="1156" y="-1106.01" font-family="Times,serif" font-size="14.00">DNS Lookup</text>
</g>
<!-- browser&#45;&gt;resolve_dns -->
<g id="edge2" class="edge">
<title>browser&#45;&gt;resolve_dns</title>
<path fill="none" stroke="black" stroke-width="2" d="M968.12,-1203.88C1012.19,-1182.34 1070.37,-1153.91 1110.24,-1134.43"/>
<polygon fill="black" stroke="black" stroke-width="2" points="1110.3,-1138.29 1117.75,-1130.76 1107.22,-1132 1110.3,-1138.29"/>
</g>
<!-- parse_host -->
<g id="node9" class="node">
<title>parse_host</title>
<polygon fill="white" stroke="white" points="1219.31,-601.5 1032.69,-601.5 984.69,-565.5 1171.31,-565.5 1219.31,-601.5"/>
<text text-anchor="middle" x="1102" y="-578.45" font-family="Times,serif" font-size="14.00">Parse Host Header</text>
</g>
<!-- jbl&#45;&gt;parse_host -->
<g id="edge10" class="edge">
<title>jbl&#45;&gt;parse_host</title>
<path fill="none" stroke="black" d="M1102,-675.27C1102,-653.22 1102,-630.54 1102,-613.36"/>
<polygon fill="black" stroke="black" points="1105.5,-613.43 1102,-603.43 1098.5,-613.43 1105.5,-613.43"/>
</g>
<!-- jonlineio_dns -->
<g id="node4" class="node">
<title>jonlineio_dns</title>
<polygon fill="none" stroke="black" points="1178.88,-987.56 1117.12,-987.56 1117.12,-951.56 1184.88,-951.56 1184.88,-981.56 1178.88,-987.56"/>
<polyline fill="none" stroke="black" points="1178.88,-987.56 1178.88,-981.56"/>
<polyline fill="none" stroke="black" points="1184.88,-981.56 1178.88,-981.56"/>
<text text-anchor="middle" x="1151" y="-964.51" font-family="Times,serif" font-size="14.00">jonline.io</text>
</g>
<!-- resolve_dns&#45;&gt;jonlineio_dns -->
<g id="edge3" class="edge">
<title>resolve_dns&#45;&gt;jonlineio_dns</title>
<path fill="none" stroke="black" stroke-dasharray="1,5" d="M1156.39,-1092.66C1156.72,-1071.91 1156.89,-1036.17 1155,-1005.56 1154.87,-1003.5 1154.71,-1001.37 1154.52,-999.23"/>
<polygon fill="black" stroke="black" points="1158.02,-999.07 1153.51,-989.48 1151.06,-999.79 1158.02,-999.07"/>
</g>
<!-- oakcitysocial_dns -->
<g id="node5" class="node">
<title>oakcitysocial_dns</title>
<polygon fill="none" stroke="black" points="1287.12,-987.56 1202.88,-987.56 1202.88,-951.56 1293.12,-951.56 1293.12,-981.56 1287.12,-987.56"/>
<polyline fill="none" stroke="black" points="1287.12,-987.56 1287.12,-981.56"/>
<polyline fill="none" stroke="black" points="1293.12,-981.56 1287.12,-981.56"/>
<text text-anchor="middle" x="1248" y="-964.51" font-family="Times,serif" font-size="14.00">oakcity.social</text>
</g>
<!-- resolve_dns&#45;&gt;oakcitysocial_dns -->
<g id="edge4" class="edge">
<title>resolve_dns&#45;&gt;oakcitysocial_dns</title>
<path fill="none" stroke="black" stroke-dasharray="1,5" d="M1167.47,-1092.68C1183.25,-1068.74 1211.83,-1025.41 1230.35,-997.32"/>
<polygon fill="black" stroke="black" points="1233.26,-999.27 1235.85,-988.99 1227.42,-995.41 1233.26,-999.27"/>
</g>
<!-- bullcitysocial_dns -->
<g id="node6" class="node">
<title>bullcitysocial_dns</title>
<polygon fill="none" stroke="black" points="1092.88,-987.56 1007.12,-987.56 1007.12,-951.56 1098.88,-951.56 1098.88,-981.56 1092.88,-987.56"/>
<polyline fill="none" stroke="black" points="1092.88,-987.56 1092.88,-981.56"/>
<polyline fill="none" stroke="black" points="1098.88,-981.56 1092.88,-981.56"/>
<text text-anchor="middle" x="1053" y="-964.51" font-family="Times,serif" font-size="14.00">bullcity.social</text>
</g>
<!-- resolve_dns&#45;&gt;bullcitysocial_dns -->
<g id="edge5" class="edge">
<title>resolve_dns&#45;&gt;bullcitysocial_dns</title>
<path fill="none" stroke="black" stroke-dasharray="1,5" d="M1156.12,-1092.85C1155.39,-1070.31 1150.93,-1030.71 1130,-1005.56 1124.32,-998.74 1117.03,-993.18 1109.2,-988.68"/>
<polygon fill="black" stroke="black" points="1110.93,-985.64 1100.43,-984.21 1107.75,-991.87 1110.93,-985.64"/>
</g>
<!-- jonlineio_dns&#45;&gt;jbl -->
<g id="edge6" class="edge">
<title>jonlineio_dns&#45;&gt;jbl</title>
<path fill="none" stroke="black" stroke-dasharray="1,5" d="M1147.07,-951.39C1141.64,-927.65 1131.46,-883.1 1122.14,-842.35"/>
<polygon fill="black" stroke="black" points="1125.58,-841.7 1119.94,-832.74 1118.76,-843.26 1125.58,-841.7"/>
</g>
<!-- oakcitysocial_dns&#45;&gt;jbl -->
<g id="edge7" class="edge">
<title>oakcitysocial_dns&#45;&gt;jbl</title>
<path fill="none" stroke="black" stroke-dasharray="1,5" d="M1236.3,-951.39C1219.75,-927.11 1188.38,-881.07 1160.12,-839.58"/>
<polygon fill="black" stroke="black" points="1163.14,-837.81 1154.62,-831.51 1157.36,-841.75 1163.14,-837.81"/>
</g>
<!-- bullcitysocial_dns&#45;&gt;jbl -->
<g id="edge8" class="edge">
<title>bullcitysocial_dns&#45;&gt;jbl</title>
<path fill="none" stroke="black" stroke-dasharray="1,5" d="M1056.93,-951.39C1062.36,-927.65 1072.54,-883.1 1081.86,-842.35"/>
<polygon fill="black" stroke="black" points="1085.24,-843.26 1084.06,-832.74 1078.42,-841.7 1085.24,-843.26"/>
</g>
<!-- configuration -->
<g id="node7" class="node">
<title>configuration</title>
<polygon fill="#c1b2ff" stroke="#c1b2ff" points="1481,-638.5 1237,-638.5 1237,-528.5 1481,-528.5 1481,-638.5"/>
<polygon fill="none" stroke="#c1b2ff" points="1248,-609 1248,-631.5 1470,-631.5 1470,-609 1248,-609"/>
<text text-anchor="start" x="1304.25" y="-616.2" font-family="Times,serif" font-weight="bold" font-size="14.00">JBL Configuration</text>
<polygon fill="none" stroke="#c1b2ff" points="1248,-584.5 1248,-607 1470,-607 1470,-584.5 1248,-584.5"/>
<text text-anchor="start" x="1310.25" y="-590.7" font-family="Times,serif" font-size="14.00">(K8s ConfigMap)</text>
<polygon fill="none" stroke="#c1b2ff" points="1248,-560 1248,-582.5 1470,-582.5 1470,-560 1248,-560"/>
<text text-anchor="start" x="1251.38" y="-566.2" font-family="Times,serif" font-size="14.00">Maps domain name &#45;&gt; K8s namespace</text>
<polygon fill="none" stroke="#c1b2ff" points="1248,-535.5 1248,-558 1470,-558 1470,-535.5 1248,-535.5"/>
<text text-anchor="start" x="1251" y="-541.7" font-family="Times,serif" font-size="14.00">Configurable with deploys/jbl/Makefile</text>
<polygon fill="none" stroke="#c1b2ff" points="1245,-532.5 1245,-634.5 1473,-634.5 1473,-532.5 1245,-532.5"/>
</g>
<!-- resolve_namespace -->
<g id="node8" class="node">
<title>resolve_namespace</title>
<polygon fill="white" stroke="white" points="1487.96,-491.5 873.98,-491.5 716.04,-455.5 1330.02,-455.5 1487.96,-491.5"/>
<text text-anchor="middle" x="1102" y="-468.45" font-family="Times,serif" font-size="14.00">Resolve Namespace from Host Header based on JBL Configuration</text>
</g>
<!-- configuration&#45;&gt;resolve_namespace -->
<g id="edge9" class="edge">
<title>configuration&#45;&gt;resolve_namespace</title>
<path fill="none" stroke="black" stroke-width="2" d="M1236.52,-531.03C1207.48,-518.83 1178.04,-506.45 1154.13,-496.4"/>
<polygon fill="black" stroke="black" stroke-width="2" points="1156.92,-493.78 1146.34,-493.13 1154.2,-500.23 1156.92,-493.78"/>
</g>
<!-- jonlineio -->
<g id="node10" class="node">
<title>jonlineio</title>
<polygon fill="white" stroke="white" points="875.88,-371.25 814.12,-371.25 814.12,-335.25 881.88,-335.25 881.88,-365.25 875.88,-371.25"/>
<polyline fill="none" stroke="white" points="875.88,-371.25 875.88,-365.25"/>
<polyline fill="none" stroke="white" points="881.88,-365.25 875.88,-365.25"/>
<text text-anchor="middle" x="848" y="-348.2" font-family="Times,serif" font-size="14.00">jonline.io</text>
</g>
<!-- resolve_namespace&#45;&gt;jonlineio -->
<g id="edge12" class="edge">
<title>resolve_namespace&#45;&gt;jonlineio</title>
<path fill="none" stroke="black" stroke-dasharray="1,5" d="M1056.27,-455.1C1036.62,-447.35 1013.51,-437.87 993,-428.5 957.72,-412.38 918.62,-392.22 889.92,-376.98"/>
<polygon fill="black" stroke="black" points="891.65,-373.93 881.18,-372.31 888.36,-380.11 891.65,-373.93"/>
</g>
<!-- oakcitysocial -->
<g id="node11" class="node">
<title>oakcitysocial</title>
<polygon fill="white" stroke="white" points="1341.12,-371.25 1256.88,-371.25 1256.88,-335.25 1347.12,-335.25 1347.12,-365.25 1341.12,-371.25"/>
<polyline fill="none" stroke="white" points="1341.12,-371.25 1341.12,-365.25"/>
<polyline fill="none" stroke="white" points="1347.12,-365.25 1341.12,-365.25"/>
<text text-anchor="middle" x="1302" y="-348.2" font-family="Times,serif" font-size="14.00">oakcity.social</text>
</g>
<!-- resolve_namespace&#45;&gt;oakcitysocial -->
<g id="edge13" class="edge">
<title>resolve_namespace&#45;&gt;oakcitysocial</title>
<path fill="none" stroke="black" stroke-dasharray="1,5" d="M1131.51,-455.05C1166.32,-434.47 1224.32,-400.18 1262.86,-377.39"/>
<polygon fill="black" stroke="black" points="1264.56,-380.45 1271.39,-372.35 1261,-374.42 1264.56,-380.45"/>
</g>
<!-- bullcitysocial -->
<g id="node12" class="node">
<title>bullcitysocial</title>
<polygon fill="white" stroke="white" points="1087.88,-371.25 1002.12,-371.25 1002.12,-335.25 1093.88,-335.25 1093.88,-365.25 1087.88,-371.25"/>
<polyline fill="none" stroke="white" points="1087.88,-371.25 1087.88,-365.25"/>
<polyline fill="none" stroke="white" points="1093.88,-365.25 1087.88,-365.25"/>
<text text-anchor="middle" x="1048" y="-348.2" font-family="Times,serif" font-size="14.00">bullcity.social</text>
</g>
<!-- resolve_namespace&#45;&gt;bullcitysocial -->
<g id="edge14" class="edge">
<title>resolve_namespace&#45;&gt;bullcitysocial</title>
<path fill="none" stroke="black" stroke-dasharray="1,5" d="M1094.03,-455.05C1085.21,-435.73 1070.87,-404.32 1060.53,-381.7"/>
<polygon fill="black" stroke="black" points="1063.79,-380.4 1056.45,-372.76 1057.42,-383.31 1063.79,-380.4"/>
</g>
<!-- parse_host&#45;&gt;resolve_namespace -->
<g id="edge11" class="edge">
<title>parse_host&#45;&gt;resolve_namespace</title>
<path fill="none" stroke="black" d="M1102,-565.15C1102,-548.46 1102,-522.92 1102,-503.2"/>
<polygon fill="black" stroke="black" points="1105.5,-503.32 1102,-493.32 1098.5,-503.32 1105.5,-503.32"/>
</g>
<!-- certs -->
<g id="node13" class="node">
<title>certs</title>
<polygon fill="#c1b2ff" stroke="#c1b2ff" points="692,-396 448,-396 448,-310.5 692,-310.5 692,-396"/>
<polygon fill="none" stroke="#c1b2ff" points="459,-366.5 459,-389 681,-389 681,-366.5 459,-366.5"/>
<text text-anchor="start" x="488.25" y="-373.7" font-family="Times,serif" font-weight="bold" font-size="14.00">TLS/SSL Cert Management</text>
<polygon fill="none" stroke="#c1b2ff" points="459,-342 459,-364.5 681,-364.5 681,-342 459,-342"/>
<text text-anchor="start" x="469.88" y="-348.2" font-family="Times,serif" font-size="14.00">(K8s ClusterRoles and RoleBinding)</text>
<polygon fill="none" stroke="#c1b2ff" points="459,-317.5 459,-340 681,-340 681,-317.5 459,-317.5"/>
<text text-anchor="start" x="462" y="-323.7" font-family="Times,serif" font-size="14.00">Configurable with deploys/jbl/Makefile</text>
<polygon fill="none" stroke="#c1b2ff" points="456,-314.5 456,-392 684,-392 684,-314.5 456,-314.5"/>
</g>
<!-- parse_host&#45;&gt;certs -->
<g id="edge18" class="edge">
<title>parse_host&#45;&gt;certs</title>
<path fill="none" stroke="black" d="M995.65,-574.14C912.69,-563.92 796.85,-541.33 707,-491.5 668.28,-470.02 633.18,-434.39 608.21,-404.81"/>
<polygon fill="black" stroke="black" points="611.16,-402.88 602.08,-397.42 605.77,-407.35 611.16,-402.88"/>
</g>
<!-- jonline0 -->
<g id="node14" class="node">
<title>jonline0</title>
<ellipse fill="white" stroke="white" cx="429" cy="-159.5" rx="80.26" ry="43.13"/>
<polygon fill="none" stroke="white" points="383.25,-160.5 383.25,-183 474.75,-183 474.75,-160.5 383.25,-160.5"/>
<text text-anchor="start" x="409.12" y="-167.7" font-family="Times,serif" font-weight="bold" font-size="14.00">jonline</text>
<polygon fill="none" stroke="white" points="383.25,-136 383.25,-158.5 474.75,-158.5 474.75,-136 383.25,-136"/>
<text text-anchor="start" x="386.25" y="-142.2" font-family="Times,serif" font-size="14.00">(K8s ClusterIP)</text>
<polygon fill="none" stroke="white" points="380.25,-133 380.25,-186 477.75,-186 477.75,-133 380.25,-133"/>
</g>
<!-- jonlineio&#45;&gt;jonline0 -->
<g id="edge17" class="edge">
<title>jonlineio&#45;&gt;jonline0</title>
<path fill="none" stroke="black" d="M813.73,-337.91C784.95,-326.48 742.48,-311.03 704,-302.5 664.08,-293.66 556.56,-303.67 521,-283.5 492.1,-267.11 469.54,-237.54 454,-211.5"/>
<polygon fill="black" stroke="black" points="457.15,-209.97 449.14,-203.04 451.08,-213.46 457.15,-209.97"/>
</g>
<!-- jonline1 -->
<g id="node18" class="node">
<title>jonline1</title>
<ellipse fill="white" stroke="white" cx="1463" cy="-159.5" rx="80.26" ry="43.13"/>
<polygon fill="none" stroke="white" points="1417.25,-160.5 1417.25,-183 1508.75,-183 1508.75,-160.5 1417.25,-160.5"/>
<text text-anchor="start" x="1443.12" y="-167.7" font-family="Times,serif" font-weight="bold" font-size="14.00">jonline</text>
<polygon fill="none" stroke="white" points="1417.25,-136 1417.25,-158.5 1508.75,-158.5 1508.75,-136 1417.25,-136"/>
<text text-anchor="start" x="1420.25" y="-142.2" font-family="Times,serif" font-size="14.00">(K8s ClusterIP)</text>
<polygon fill="none" stroke="white" points="1414.25,-133 1414.25,-186 1511.75,-186 1511.75,-133 1414.25,-133"/>
</g>
<!-- oakcitysocial&#45;&gt;jonline1 -->
<g id="edge21" class="edge">
<title>oakcitysocial&#45;&gt;jonline1</title>
<path fill="none" stroke="black" d="M1321.56,-334.98C1336.34,-321.55 1356.77,-302.13 1373,-283.5 1393.16,-260.35 1413.53,-232.92 1429.79,-209.85"/>
<polygon fill="black" stroke="black" points="1432.53,-212.02 1435.39,-201.82 1426.79,-208.02 1432.53,-212.02"/>
</g>
<!-- jonline2 -->
<g id="node22" class="node">
<title>jonline2</title>
<ellipse fill="white" stroke="white" cx="946" cy="-159.5" rx="80.26" ry="43.13"/>
<polygon fill="none" stroke="white" points="900.25,-160.5 900.25,-183 991.75,-183 991.75,-160.5 900.25,-160.5"/>
<text text-anchor="start" x="926.12" y="-167.7" font-family="Times,serif" font-weight="bold" font-size="14.00">jonline</text>
<polygon fill="none" stroke="white" points="900.25,-136 900.25,-158.5 991.75,-158.5 991.75,-136 900.25,-136"/>
<text text-anchor="start" x="903.25" y="-142.2" font-family="Times,serif" font-size="14.00">(K8s ClusterIP)</text>
<polygon fill="none" stroke="white" points="897.25,-133 897.25,-186 994.75,-186 994.75,-133 897.25,-133"/>
</g>
<!-- bullcitysocial&#45;&gt;jonline2 -->
<g id="edge24" class="edge">
<title>bullcitysocial&#45;&gt;jonline2</title>
<path fill="none" stroke="black" d="M1038.77,-334.9C1024.08,-307.27 994.81,-252.26 973.06,-211.37"/>
<polygon fill="black" stroke="black" points="976.2,-209.83 968.42,-202.64 970.02,-213.12 976.2,-209.83"/>
</g>
<!-- tls0 -->
<g id="node17" class="node">
<title>tls0</title>
<polygon fill="#c1b2ff" stroke="#c1b2ff" points="330.25,-214.5 15.75,-214.5 15.75,-104.5 330.25,-104.5 330.25,-214.5"/>
<polygon fill="none" stroke="#c1b2ff" points="26.75,-185 26.75,-207.5 319.25,-207.5 319.25,-185 26.75,-185"/>
<text text-anchor="start" x="145.62" y="-191.2" font-family="Times,serif" font-size="14.00">jonline&#45;tls</text>
<polygon fill="none" stroke="#c1b2ff" points="26.75,-160.5 26.75,-183 319.25,-183 319.25,-160.5 26.75,-160.5"/>
<text text-anchor="start" x="138.88" y="-166.7" font-family="Times,serif" font-size="14.00">(K8s Secret)</text>
<polygon fill="none" stroke="#c1b2ff" points="26.75,-136 26.75,-158.5 319.25,-158.5 319.25,-136 26.75,-136"/>
<text text-anchor="start" x="29.75" y="-142.2" font-family="Times,serif" font-size="14.00">Configurable with deploys/generated_certs/Makefile</text>
<polygon fill="none" stroke="#c1b2ff" points="26.75,-111.5 26.75,-134 319.25,-134 319.25,-111.5 26.75,-111.5"/>
<text text-anchor="start" x="53.75" y="-118.7" font-family="Times,serif" font-size="14.00">Lightweight integration with </text>
<text text-anchor="start" x="213.5" y="-118.7" font-family="Times,serif" font-style="italic" font-size="14.00">Cert&#45;Manager</text>
<polygon fill="none" stroke="#c1b2ff" points="23.75,-108.5 23.75,-210.5 322.25,-210.5 322.25,-108.5 23.75,-108.5"/>
</g>
<!-- certs&#45;&gt;tls0 -->
<g id="edge25" class="edge">
<title>certs&#45;&gt;tls0</title>
<path fill="none" stroke="black" d="M447.63,-324.13C411.96,-313.71 373.57,-300.24 340,-283.5 306.71,-266.9 273.09,-243.66 244.83,-221.85"/>
<polygon fill="black" stroke="black" points="247.07,-219.16 237.04,-215.76 242.76,-224.68 247.07,-219.16"/>
</g>
<!-- tls1 -->
<g id="node21" class="node">
<title>tls1</title>
<polygon fill="#c1b2ff" stroke="#c1b2ff" points="1364.25,-214.5 1049.75,-214.5 1049.75,-104.5 1364.25,-104.5 1364.25,-214.5"/>
<polygon fill="none" stroke="#c1b2ff" points="1060.75,-185 1060.75,-207.5 1353.25,-207.5 1353.25,-185 1060.75,-185"/>
<text text-anchor="start" x="1179.62" y="-191.2" font-family="Times,serif" font-size="14.00">jonline&#45;tls</text>
<polygon fill="none" stroke="#c1b2ff" points="1060.75,-160.5 1060.75,-183 1353.25,-183 1353.25,-160.5 1060.75,-160.5"/>
<text text-anchor="start" x="1172.88" y="-166.7" font-family="Times,serif" font-size="14.00">(K8s Secret)</text>
<polygon fill="none" stroke="#c1b2ff" points="1060.75,-136 1060.75,-158.5 1353.25,-158.5 1353.25,-136 1060.75,-136"/>
<text text-anchor="start" x="1063.75" y="-142.2" font-family="Times,serif" font-size="14.00">Configurable with deploys/generated_certs/Makefile</text>
<polygon fill="none" stroke="#c1b2ff" points="1060.75,-111.5 1060.75,-134 1353.25,-134 1353.25,-111.5 1060.75,-111.5"/>
<text text-anchor="start" x="1087.75" y="-118.7" font-family="Times,serif" font-size="14.00">Lightweight integration with </text>
<text text-anchor="start" x="1247.5" y="-118.7" font-family="Times,serif" font-style="italic" font-size="14.00">Cert&#45;Manager</text>
<polygon fill="none" stroke="#c1b2ff" points="1057.75,-108.5 1057.75,-210.5 1356.25,-210.5 1356.25,-108.5 1057.75,-108.5"/>
</g>
<!-- certs&#45;&gt;tls1 -->
<g id="edge26" class="edge">
<title>certs&#45;&gt;tls1</title>
<path fill="none" stroke="black" d="M674.46,-310.1C684.33,-307.14 694.28,-304.53 704,-302.5 776.77,-287.28 967.99,-308.5 1038,-283.5 1075.47,-270.12 1111.85,-245.63 1141.2,-222.01"/>
<polygon fill="black" stroke="black" points="1143.4,-224.73 1148.9,-215.68 1138.96,-219.32 1143.4,-224.73"/>
</g>
<!-- tls2 -->
<g id="node25" class="node">
<title>tls2</title>
<polygon fill="#c1b2ff" stroke="#c1b2ff" points="847.25,-214.5 532.75,-214.5 532.75,-104.5 847.25,-104.5 847.25,-214.5"/>
<polygon fill="none" stroke="#c1b2ff" points="543.75,-185 543.75,-207.5 836.25,-207.5 836.25,-185 543.75,-185"/>
<text text-anchor="start" x="662.62" y="-191.2" font-family="Times,serif" font-size="14.00">jonline&#45;tls</text>
<polygon fill="none" stroke="#c1b2ff" points="543.75,-160.5 543.75,-183 836.25,-183 836.25,-160.5 543.75,-160.5"/>
<text text-anchor="start" x="655.88" y="-166.7" font-family="Times,serif" font-size="14.00">(K8s Secret)</text>
<polygon fill="none" stroke="#c1b2ff" points="543.75,-136 543.75,-158.5 836.25,-158.5 836.25,-136 543.75,-136"/>
<text text-anchor="start" x="546.75" y="-142.2" font-family="Times,serif" font-size="14.00">Configurable with deploys/generated_certs/Makefile</text>
<polygon fill="none" stroke="#c1b2ff" points="543.75,-111.5 543.75,-134 836.25,-134 836.25,-111.5 543.75,-111.5"/>
<text text-anchor="start" x="570.75" y="-118.7" font-family="Times,serif" font-size="14.00">Lightweight integration with </text>
<text text-anchor="start" x="730.5" y="-118.7" font-family="Times,serif" font-style="italic" font-size="14.00">Cert&#45;Manager</text>
<polygon fill="none" stroke="#c1b2ff" points="540.75,-108.5 540.75,-210.5 839.25,-210.5 839.25,-108.5 540.75,-108.5"/>
</g>
<!-- certs&#45;&gt;tls2 -->
<g id="edge27" class="edge">
<title>certs&#45;&gt;tls2</title>
<path fill="none" stroke="black" d="M596.33,-310.17C612.08,-285.01 632.4,-252.55 650.08,-224.29"/>
<polygon fill="black" stroke="black" points="652.83,-226.5 655.16,-216.16 646.89,-222.78 652.83,-226.5"/>
</g>
<!-- minio0 -->
<g id="node15" class="node">
<title>minio0</title>
<path fill="white" stroke="white" d="M335,-48.73C335,-50.53 322.9,-52 308,-52 293.1,-52 281,-50.53 281,-48.73 281,-48.73 281,-19.27 281,-19.27 281,-17.47 293.1,-16 308,-16 322.9,-16 335,-17.47 335,-19.27 335,-19.27 335,-48.73 335,-48.73"/>
<path fill="none" stroke="white" d="M335,-48.73C335,-46.92 322.9,-45.45 308,-45.45 293.1,-45.45 281,-46.92 281,-48.73"/>
<text text-anchor="middle" x="308" y="-28.95" font-family="Times,serif" font-size="14.00">Minio</text>
</g>
<!-- jonline0&#45;&gt;minio0 -->
<g id="edge15" class="edge">
<title>jonline0&#45;&gt;minio0</title>
<path fill="none" stroke="black" d="M375.29,-126.98C359.37,-115.72 342.89,-101.95 330.5,-86.5 324.96,-79.59 320.52,-71.11 317.1,-63.04"/>
<polygon fill="black" stroke="black" points="320.44,-61.97 313.59,-53.88 313.9,-64.47 320.44,-61.97"/>
<text text-anchor="start" x="330.5" y="-74.2" font-family="Times,serif" font-size="14.00">5GB @ </text>
<text text-anchor="start" x="376.25" y="-74.2" font-family="Times,serif" font-weight="bold" font-size="14.00">50¢/mo</text>
</g>
<!-- postgres0 -->
<g id="node16" class="node">
<title>postgres0</title>
<path fill="white" stroke="white" d="M450.88,-48.73C450.88,-50.53 437.04,-52 420,-52 402.96,-52 389.12,-50.53 389.12,-48.73 389.12,-48.73 389.12,-19.27 389.12,-19.27 389.12,-17.47 402.96,-16 420,-16 437.04,-16 450.88,-17.47 450.88,-19.27 450.88,-19.27 450.88,-48.73 450.88,-48.73"/>
<path fill="none" stroke="white" d="M450.88,-48.73C450.88,-46.92 437.04,-45.45 420,-45.45 402.96,-45.45 389.12,-46.92 389.12,-48.73"/>
<text text-anchor="middle" x="420" y="-28.95" font-family="Times,serif" font-size="14.00">Postgres</text>
</g>
<!-- jonline0&#45;&gt;postgres0 -->
<g id="edge16" class="edge">
<title>jonline0&#45;&gt;postgres0</title>
<path fill="none" stroke="black" d="M425.9,-116C424.65,-98.82 423.24,-79.44 422.11,-63.94"/>
<polygon fill="black" stroke="black" points="425.6,-63.69 421.38,-53.97 418.62,-64.19 425.6,-63.69"/>
<text text-anchor="start" x="423.69" y="-74.2" font-family="Times,serif" font-size="14.00">1GB @ </text>
<text text-anchor="start" x="469.44" y="-74.2" font-family="Times,serif" font-weight="bold" font-size="14.00">10¢/mo</text>
</g>
<!-- minio1 -->
<g id="node19" class="node">
<title>minio1</title>
<path fill="white" stroke="white" d="M1369,-48.73C1369,-50.53 1356.9,-52 1342,-52 1327.1,-52 1315,-50.53 1315,-48.73 1315,-48.73 1315,-19.27 1315,-19.27 1315,-17.47 1327.1,-16 1342,-16 1356.9,-16 1369,-17.47 1369,-19.27 1369,-19.27 1369,-48.73 1369,-48.73"/>
<path fill="none" stroke="white" d="M1369,-48.73C1369,-46.92 1356.9,-45.45 1342,-45.45 1327.1,-45.45 1315,-46.92 1315,-48.73"/>
<text text-anchor="middle" x="1342" y="-28.95" font-family="Times,serif" font-size="14.00">Minio</text>
</g>
<!-- jonline1&#45;&gt;minio1 -->
<g id="edge19" class="edge">
<title>jonline1&#45;&gt;minio1</title>
<path fill="none" stroke="black" d="M1409.29,-126.98C1393.37,-115.72 1376.89,-101.95 1364.5,-86.5 1358.96,-79.59 1354.52,-71.11 1351.1,-63.04"/>
<polygon fill="black" stroke="black" points="1354.44,-61.97 1347.59,-53.88 1347.9,-64.47 1354.44,-61.97"/>
<text text-anchor="start" x="1364.5" y="-74.2" font-family="Times,serif" font-size="14.00">5GB @ </text>
<text text-anchor="start" x="1410.25" y="-74.2" font-family="Times,serif" font-weight="bold" font-size="14.00">50¢/mo</text>
</g>
<!-- postgres1 -->
<g id="node20" class="node">
<title>postgres1</title>
<path fill="white" stroke="white" d="M1484.88,-48.73C1484.88,-50.53 1471.04,-52 1454,-52 1436.96,-52 1423.12,-50.53 1423.12,-48.73 1423.12,-48.73 1423.12,-19.27 1423.12,-19.27 1423.12,-17.47 1436.96,-16 1454,-16 1471.04,-16 1484.88,-17.47 1484.88,-19.27 1484.88,-19.27 1484.88,-48.73 1484.88,-48.73"/>
<path fill="none" stroke="white" d="M1484.88,-48.73C1484.88,-46.92 1471.04,-45.45 1454,-45.45 1436.96,-45.45 1423.12,-46.92 1423.12,-48.73"/>
<text text-anchor="middle" x="1454" y="-28.95" font-family="Times,serif" font-size="14.00">Postgres</text>
</g>
<!-- jonline1&#45;&gt;postgres1 -->
<g id="edge20" class="edge">
<title>jonline1&#45;&gt;postgres1</title>
<path fill="none" stroke="black" d="M1459.9,-116C1458.65,-98.82 1457.24,-79.44 1456.11,-63.94"/>
<polygon fill="black" stroke="black" points="1459.6,-63.69 1455.38,-53.97 1452.62,-64.19 1459.6,-63.69"/>
<text text-anchor="start" x="1457.69" y="-74.2" font-family="Times,serif" font-size="14.00">1GB @ </text>
<text text-anchor="start" x="1503.44" y="-74.2" font-family="Times,serif" font-weight="bold" font-size="14.00">10¢/mo</text>
</g>
<!-- minio2 -->
<g id="node23" class="node">
<title>minio2</title>
<path fill="white" stroke="white" d="M852,-48.73C852,-50.53 839.9,-52 825,-52 810.1,-52 798,-50.53 798,-48.73 798,-48.73 798,-19.27 798,-19.27 798,-17.47 810.1,-16 825,-16 839.9,-16 852,-17.47 852,-19.27 852,-19.27 852,-48.73 852,-48.73"/>
<path fill="none" stroke="white" d="M852,-48.73C852,-46.92 839.9,-45.45 825,-45.45 810.1,-45.45 798,-46.92 798,-48.73"/>
<text text-anchor="middle" x="825" y="-28.95" font-family="Times,serif" font-size="14.00">Minio</text>
</g>
<!-- jonline2&#45;&gt;minio2 -->
<g id="edge22" class="edge">
<title>jonline2&#45;&gt;minio2</title>
<path fill="none" stroke="black" d="M892.29,-126.98C876.37,-115.72 859.89,-101.95 847.5,-86.5 841.96,-79.59 837.52,-71.11 834.1,-63.04"/>
<polygon fill="black" stroke="black" points="837.44,-61.97 830.59,-53.88 830.9,-64.47 837.44,-61.97"/>
<text text-anchor="start" x="847.5" y="-74.2" font-family="Times,serif" font-size="14.00">5GB @ </text>
<text text-anchor="start" x="893.25" y="-74.2" font-family="Times,serif" font-weight="bold" font-size="14.00">50¢/mo</text>
</g>
<!-- postgres2 -->
<g id="node24" class="node">
<title>postgres2</title>
<path fill="white" stroke="white" d="M967.88,-48.73C967.88,-50.53 954.04,-52 937,-52 919.96,-52 906.12,-50.53 906.12,-48.73 906.12,-48.73 906.12,-19.27 906.12,-19.27 906.12,-17.47 919.96,-16 937,-16 954.04,-16 967.88,-17.47 967.88,-19.27 967.88,-19.27 967.88,-48.73 967.88,-48.73"/>
<path fill="none" stroke="white" d="M967.88,-48.73C967.88,-46.92 954.04,-45.45 937,-45.45 919.96,-45.45 906.12,-46.92 906.12,-48.73"/>
<text text-anchor="middle" x="937" y="-28.95" font-family="Times,serif" font-size="14.00">Postgres</text>
</g>
<!-- jonline2&#45;&gt;postgres2 -->
<g id="edge23" class="edge">
<title>jonline2&#45;&gt;postgres2</title>
<path fill="none" stroke="black" d="M942.9,-116C941.65,-98.82 940.24,-79.44 939.11,-63.94"/>
<polygon fill="black" stroke="black" points="942.6,-63.69 938.38,-53.97 935.62,-64.19 942.6,-63.69"/>
<text text-anchor="start" x="940.69" y="-74.2" font-family="Times,serif" font-size="14.00">1GB @ </text>
<text text-anchor="start" x="986.44" y="-74.2" font-family="Times,serif" font-weight="bold" font-size="14.00">10¢/mo</text>
</g>
</g>
</svg>
