<?xml version="1.0" encoding="UTF-8" standalone="no"?>
<!DOCTYPE svg PUBLIC "-//W3C//DTD SVG 1.1//EN"
 "http://www.w3.org/Graphics/SVG/1.1/DTD/svg11.dtd">
<!-- Generated by graphviz version 9.0.0 (20230911.1827)
 -->
<!-- Title: G Pages: 1 -->
<svg width="940pt" height="529pt"
 viewBox="0.00 0.00 940.00 528.50" xmlns="http://www.w3.org/2000/svg" xmlns:xlink="http://www.w3.org/1999/xlink">
<g id="graph0" class="graph" transform="scale(1 1) rotate(0) translate(4 524.5)">
<title>G</title>
<polygon fill="white" stroke="none" points="-4,4 -4,-524.5 936,-524.5 936,4 -4,4"/>
<g id="clust1" class="cluster">
<title>cluster0</title>
<polygon fill="lightgrey" stroke="lightgrey" points="266,-8 266,-512.5 666,-512.5 666,-8 266,-8"/>
<text text-anchor="middle" x="466" y="-495.2" font-family="Times,serif" font-size="14.00">jonline namespace</text>
</g>
<g id="clust2" class="cluster">
<title>cluster1</title>
<polygon fill="lightgrey" stroke="lightgrey" points="674,-8 674,-157.5 924,-157.5 924,-8 674,-8"/>
<text text-anchor="middle" x="799" y="-140.2" font-family="Times,serif" font-size="14.00">oakcitysocial namespace</text>
</g>
<g id="clust3" class="cluster">
<title>cluster2</title>
<polygon fill="lightgrey" stroke="lightgrey" points="8,-8 8,-157.5 258,-157.5 258,-8 8,-8"/>
<text text-anchor="middle" x="133" y="-140.2" font-family="Times,serif" font-size="14.00">bullcitysocial namespace</text>
</g>
<!-- browser -->
<g id="node1" class="node">
<title>browser</title>
<polygon fill="#c1b2ff" stroke="#c1b2ff" points="141.5,-467.5 56.5,-467.5 56.5,-431.5 147.5,-431.5 147.5,-461.5 141.5,-467.5"/>
<polyline fill="none" stroke="#c1b2ff" points="141.5,-467.5 141.5,-461.5"/>
<polyline fill="none" stroke="#c1b2ff" points="147.5,-461.5 141.5,-461.5"/>
<text text-anchor="middle" x="102" y="-444.45" font-family="Times,serif" font-size="14.00">Web Browser</text>
</g>
<!-- jbl -->
<g id="node2" class="node">
<title>jbl</title>
<polygon fill="none" stroke="black" points="490.5,-366.5 369.5,-366.5 369.5,-330.5 490.5,-330.5 490.5,-366.5"/>
<text text-anchor="middle" x="430" y="-343.45" font-family="Times,serif" font-size="14.00">JBL Load Balancer</text>
</g>
<!-- browser&#45;&gt;jbl -->
<g id="edge1" class="edge">
<title>browser&#45;&gt;jbl</title>
<path fill="none" stroke="black" stroke-width="2" d="M124.42,-431.22C144.82,-416.41 176.33,-395.75 207,-384.5 255.57,-366.69 313.35,-357.94 357.92,-353.64"/>
<polygon fill="black" stroke="black" stroke-width="2" points="356.58,-357.28 366.23,-352.89 355.95,-350.3 356.58,-357.28"/>
<text text-anchor="middle" x="271.5" y="-387.7" font-family="Times,serif" font-size="14.00">Host header, auth token</text>
</g>
<!-- resolve_namespace -->
<g id="node4" class="node">
<title>resolve_namespace</title>
<ellipse fill="white" stroke="white" cx="430" cy="-275.5" rx="156.27" ry="18"/>
<text text-anchor="middle" x="430" y="-270.45" font-family="Times,serif" font-size="14.00">Resolve Namespace from Host Header</text>
</g>
<!-- jbl&#45;&gt;resolve_namespace -->
<g id="edge3" class="edge">
<title>jbl&#45;&gt;resolve_namespace</title>
<path fill="none" stroke="black" d="M430,-330.31C430,-322.73 430,-313.6 430,-305.04"/>
<polygon fill="black" stroke="black" points="433.5,-305.04 430,-295.04 426.5,-305.04 433.5,-305.04"/>
</g>
<!-- configuration -->
<g id="node3" class="node">
<title>configuration</title>
<polygon fill="#c1b2ff" stroke="#c1b2ff" points="365.88,-467.5 274.12,-467.5 274.12,-431.5 365.88,-431.5 365.88,-467.5"/>
<text text-anchor="middle" x="320" y="-444.45" font-family="Times,serif" font-size="14.00">Configuration</text>
</g>
<!-- configuration&#45;&gt;jbl -->
<g id="edge2" class="edge">
<title>configuration&#45;&gt;jbl</title>
<path fill="none" stroke="black" stroke-width="2" d="M325.4,-431.03C330.54,-416.92 339.51,-397.34 353,-384.5 357.77,-379.96 363.23,-375.94 369,-372.39"/>
<polygon fill="black" stroke="black" stroke-width="2" points="369.24,-376.26 376.27,-368.33 365.83,-370.15 369.24,-376.26"/>
<text text-anchor="middle" x="417.5" y="-387.7" font-family="Times,serif" font-size="14.00">Host header, auth token</text>
</g>
<!-- jonlineio -->
<g id="node5" class="node">
<title>jonlineio</title>
<ellipse fill="white" stroke="white" cx="464" cy="-202.5" rx="46.23" ry="18"/>
<text text-anchor="middle" x="464" y="-197.45" font-family="Times,serif" font-size="14.00">jonline.io</text>
</g>
<!-- resolve_namespace&#45;&gt;jonlineio -->
<g id="edge4" class="edge">
<title>resolve_namespace&#45;&gt;jonlineio</title>
<path fill="none" stroke="black" stroke-dasharray="1,5" d="M438.23,-257.31C442.03,-249.38 446.64,-239.76 450.9,-230.86"/>
<polygon fill="black" stroke="black" points="454.03,-232.42 455.19,-221.89 447.72,-229.4 454.03,-232.42"/>
</g>
<!-- oakcitysocial -->
<g id="node6" class="node">
<title>oakcitysocial</title>
<ellipse fill="white" stroke="white" cx="593" cy="-202.5" rx="61.59" ry="18"/>
<text text-anchor="middle" x="593" y="-197.45" font-family="Times,serif" font-size="14.00">oakcity.social</text>
</g>
<!-- resolve_namespace&#45;&gt;oakcitysocial -->
<g id="edge5" class="edge">
<title>resolve_namespace&#45;&gt;oakcitysocial</title>
<path fill="none" stroke="black" stroke-dasharray="1,5" d="M468.63,-257.67C492.85,-247.12 524.13,-233.5 549.26,-222.55"/>
<polygon fill="black" stroke="black" points="550.45,-225.85 558.22,-218.65 547.66,-219.43 550.45,-225.85"/>
</g>
<!-- bullcitysocial -->
<g id="node7" class="node">
<title>bullcitysocial</title>
<ellipse fill="white" stroke="white" cx="337" cy="-202.5" rx="62.61" ry="18"/>
<text text-anchor="middle" x="337" y="-197.45" font-family="Times,serif" font-size="14.00">bullcity.social</text>
</g>
<!-- resolve_namespace&#45;&gt;bullcitysocial -->
<g id="edge6" class="edge">
<title>resolve_namespace&#45;&gt;bullcitysocial</title>
<path fill="none" stroke="black" stroke-dasharray="1,5" d="M407.49,-257.31C395.46,-248.13 380.49,-236.7 367.44,-226.74"/>
<polygon fill="black" stroke="black" points="369.62,-224 359.55,-220.72 365.37,-229.57 369.62,-224"/>
</g>
<!-- jonline0 -->
<g id="node8" class="node">
<title>jonline0</title>
<ellipse fill="white" stroke="white" cx="464" cy="-107" rx="36.51" ry="18"/>
<text text-anchor="middle" x="464" y="-101.95" font-family="Times,serif" font-size="14.00">jonline</text>
</g>
<!-- jonlineio&#45;&gt;jonline0 -->
<g id="edge9" class="edge">
<title>jonlineio&#45;&gt;jonline0</title>
<path fill="none" stroke="black" d="M464,-184.35C464,-170.99 464,-152.15 464,-136.53"/>
<polygon fill="black" stroke="black" points="467.5,-136.87 464,-126.87 460.5,-136.87 467.5,-136.87"/>
</g>
<!-- jonline1 -->
<g id="node13" class="node">
<title>jonline1</title>
<ellipse fill="white" stroke="white" cx="719" cy="-107" rx="36.51" ry="18"/>
<text text-anchor="middle" x="719" y="-101.95" font-family="Times,serif" font-size="14.00">jonline</text>
</g>
<!-- oakcitysocial&#45;&gt;jonline1 -->
<g id="edge13" class="edge">
<title>oakcitysocial&#45;&gt;jonline1</title>
<path fill="none" stroke="black" d="M623.44,-186.57C638.1,-178.78 655.59,-168.56 670,-157.5 679.78,-149.99 689.55,-140.6 697.76,-132.03"/>
<polygon fill="black" stroke="black" points="700.11,-134.64 704.36,-124.94 694.99,-129.87 700.11,-134.64"/>
</g>
<!-- jonline2 -->
<g id="node17" class="node">
<title>jonline2</title>
<ellipse fill="white" stroke="white" cx="213" cy="-107" rx="36.51" ry="18"/>
<text text-anchor="middle" x="213" y="-101.95" font-family="Times,serif" font-size="14.00">jonline</text>
</g>
<!-- bullcitysocial&#45;&gt;jonline2 -->
<g id="edge16" class="edge">
<title>bullcitysocial&#45;&gt;jonline2</title>
<path fill="none" stroke="black" d="M307.01,-186.26C292.81,-178.46 275.95,-168.34 262,-157.5 252.26,-149.93 242.5,-140.54 234.29,-131.97"/>
<polygon fill="black" stroke="black" points="237.06,-129.81 227.68,-124.89 231.94,-134.59 237.06,-129.81"/>
</g>
<!-- minio0 -->
<g id="node9" class="node">
<title>minio0</title>
<ellipse fill="white" stroke="white" cx="427" cy="-34" rx="33.95" ry="18"/>
<text text-anchor="middle" x="427" y="-28.95" font-family="Times,serif" font-size="14.00">Minio</text>
</g>
<!-- jonline0&#45;&gt;minio0 -->
<g id="edge7" class="edge">
<title>jonline0&#45;&gt;minio0</title>
<path fill="none" stroke="black" d="M455.23,-89.17C450.95,-80.95 445.69,-70.86 440.87,-61.62"/>
<polygon fill="black" stroke="black" points="444.13,-60.3 436.41,-53.05 437.92,-63.53 444.13,-60.3"/>
</g>
<!-- postgres0 -->
<g id="node10" class="node">
<title>postgres0</title>
<ellipse fill="white" stroke="white" cx="521" cy="-34" rx="42.14" ry="18"/>
<text text-anchor="middle" x="521" y="-28.95" font-family="Times,serif" font-size="14.00">Postgres</text>
</g>
<!-- jonline0&#45;&gt;postgres0 -->
<g id="edge8" class="edge">
<title>jonline0&#45;&gt;postgres0</title>
<path fill="none" stroke="black" d="M476.93,-89.89C483.9,-81.21 492.66,-70.29 500.54,-60.49"/>
<polygon fill="black" stroke="black" points="503.24,-62.71 506.77,-52.72 497.78,-58.33 503.24,-62.71"/>
</g>
<!-- tls0 -->
<g id="node11" class="node">
<title>tls0</title>
<polygon fill="white" stroke="white" points="651.38,-366.5 508.62,-366.5 508.62,-330.5 651.38,-330.5 651.38,-366.5"/>
<text text-anchor="middle" x="580" y="-343.45" font-family="Times,serif" font-size="14.00">jonline&#45;tls (TLS secret)</text>
</g>
<!-- certs -->
<g id="node12" class="node">
<title>certs</title>
<polygon fill="#c1b2ff" stroke="#c1b2ff" points="657.62,-480 384.38,-480 384.38,-419 657.62,-419 657.62,-480"/>
<polygon fill="none" stroke="#c1b2ff" points="395.38,-450.5 395.38,-473 646.62,-473 646.62,-450.5 395.38,-450.5"/>
<text text-anchor="start" x="444.5" y="-456.7" font-family="Times,serif" font-size="14.00">TLS/SSL Cert Management</text>
<polygon fill="none" stroke="#c1b2ff" points="395.38,-426 395.38,-448.5 646.62,-448.5 646.62,-426 395.38,-426"/>
<text text-anchor="start" x="398.38" y="-432.2" font-family="Times,serif" font-size="14.00">Based on K8s ClusterRoles and RoleBinding</text>
<polygon fill="none" stroke="#c1b2ff" points="392.38,-423 392.38,-476 649.62,-476 649.62,-423 392.38,-423"/>
</g>
<!-- certs&#45;&gt;jbl -->
<g id="edge10" class="edge">
<title>certs&#45;&gt;jbl</title>
<path fill="none" stroke="black" d="M508.68,-418.71C502.94,-407.15 495.3,-394.36 486,-384.5 482.26,-380.54 477.98,-376.84 473.49,-373.45"/>
<polygon fill="black" stroke="black" points="475.54,-370.61 465.33,-367.79 471.55,-376.36 475.54,-370.61"/>
</g>
<!-- certs&#45;&gt;tls0 -->
<g id="edge17" class="edge">
<title>certs&#45;&gt;tls0</title>
<path fill="none" stroke="black" d="M538.86,-418.53C546.78,-405.24 556.04,-389.71 563.76,-376.75"/>
<polygon fill="black" stroke="black" points="566.69,-378.68 568.8,-368.3 560.67,-375.09 566.69,-378.68"/>
</g>
<!-- tls1 -->
<g id="node16" class="node">
<title>tls1</title>
<polygon fill="white" stroke="white" points="916.38,-125 773.62,-125 773.62,-89 916.38,-89 916.38,-125"/>
<text text-anchor="middle" x="845" y="-101.95" font-family="Times,serif" font-size="14.00">jonline&#45;tls (TLS secret)</text>
</g>
<!-- certs&#45;&gt;tls1 -->
<g id="edge18" class="edge">
<title>certs&#45;&gt;tls1</title>
<path fill="none" stroke="black" d="M658.12,-439.77C713.24,-428.06 764,-402.8 764,-349.5 764,-349.5 764,-349.5 764,-201.5 764,-172.88 785.95,-148.71 807,-132.13"/>
<polygon fill="black" stroke="black" points="809.07,-134.95 815,-126.17 804.89,-129.34 809.07,-134.95"/>
</g>
<!-- tls2 -->
<g id="node20" class="node">
<title>tls2</title>
<polygon fill="white" stroke="white" points="158.38,-125 15.62,-125 15.62,-89 158.38,-89 158.38,-125"/>
<text text-anchor="middle" x="87" y="-101.95" font-family="Times,serif" font-size="14.00">jonline&#45;tls (TLS secret)</text>
</g>
<!-- certs&#45;&gt;tls2 -->
<g id="edge19" class="edge">
<title>certs&#45;&gt;tls2</title>
<path fill="none" stroke="black" d="M386.73,-418.58C369.43,-413.41 352.13,-407.55 336,-401 293.3,-383.67 246,-395.59 246,-349.5 246,-349.5 246,-349.5 246,-201.5 246,-161.31 201.65,-177.86 167,-157.5 152.83,-149.18 137.45,-139.75 123.99,-131.38"/>
<polygon fill="black" stroke="black" points="126.2,-128.63 115.86,-126.3 122.49,-134.57 126.2,-128.63"/>
</g>
<!-- minio1 -->
<g id="node14" class="node">
<title>minio1</title>
<ellipse fill="white" stroke="white" cx="717" cy="-34" rx="33.95" ry="18"/>
<text text-anchor="middle" x="717" y="-28.95" font-family="Times,serif" font-size="14.00">Minio</text>
</g>
<!-- jonline1&#45;&gt;minio1 -->
<g id="edge11" class="edge">
<title>jonline1&#45;&gt;minio1</title>
<path fill="none" stroke="black" d="M718.52,-88.81C718.3,-81.14 718.04,-71.89 717.8,-63.24"/>
<polygon fill="black" stroke="black" points="721.3,-63.44 717.52,-53.54 714.31,-63.64 721.3,-63.44"/>
</g>
<!-- postgres1 -->
<g id="node15" class="node">
<title>postgres1</title>
<ellipse fill="white" stroke="white" cx="811" cy="-34" rx="42.14" ry="18"/>
<text text-anchor="middle" x="811" y="-28.95" font-family="Times,serif" font-size="14.00">Postgres</text>
</g>
<!-- jonline1&#45;&gt;postgres1 -->
<g id="edge12" class="edge">
<title>jonline1&#45;&gt;postgres1</title>
<path fill="none" stroke="black" d="M738.06,-91.29C750.84,-81.43 767.9,-68.26 782.31,-57.14"/>
<polygon fill="black" stroke="black" points="784.35,-59.99 790.13,-51.11 780.07,-54.45 784.35,-59.99"/>
</g>
<!-- minio2 -->
<g id="node18" class="node">
<title>minio2</title>
<ellipse fill="white" stroke="white" cx="114" cy="-34" rx="33.95" ry="18"/>
<text text-anchor="middle" x="114" y="-28.95" font-family="Times,serif" font-size="14.00">Minio</text>
</g>
<!-- jonline2&#45;&gt;minio2 -->
<g id="edge14" class="edge">
<title>jonline2&#45;&gt;minio2</title>
<path fill="none" stroke="black" d="M192.97,-91.63C178.51,-81.27 158.79,-67.12 142.67,-55.56"/>
<polygon fill="black" stroke="black" points="145.06,-52.97 134.9,-49.99 140.98,-58.66 145.06,-52.97"/>
</g>
<!-- postgres2 -->
<g id="node19" class="node">
<title>postgres2</title>
<ellipse fill="white" stroke="white" cx="208" cy="-34" rx="42.14" ry="18"/>
<text text-anchor="middle" x="208" y="-28.95" font-family="Times,serif" font-size="14.00">Postgres</text>
</g>
<!-- jonline2&#45;&gt;postgres2 -->
<g id="edge15" class="edge">
<title>jonline2&#45;&gt;postgres2</title>
<path fill="none" stroke="black" d="M211.79,-88.81C211.25,-81.14 210.6,-71.89 209.99,-63.24"/>
<polygon fill="black" stroke="black" points="213.5,-63.27 209.31,-53.54 206.52,-63.76 213.5,-63.27"/>
</g>
</g>
</svg>
