<?xml version="1.0" encoding="UTF-8" standalone="no"?>
<!DOCTYPE svg PUBLIC "-//W3C//DTD SVG 1.1//EN"
 "http://www.w3.org/Graphics/SVG/1.1/DTD/svg11.dtd">
<!-- Generated by graphviz version 9.0.0 (20230911.1827)
 -->
<!-- Title: G Pages: 1 -->
<svg width="1567pt" height="1150pt"
 viewBox="0.00 0.00 1567.00 1149.90" xmlns="http://www.w3.org/2000/svg" xmlns:xlink="http://www.w3.org/1999/xlink">
<g id="graph0" class="graph" transform="scale(1 1) rotate(0) translate(4 1145.9)">
<title>G</title>
<polygon fill="white" stroke="none" points="-4,4 -4,-1145.9 1563,-1145.9 1563,4 -4,4"/>
<g id="clust1" class="cluster">
<title>cluster0</title>
<polygon fill="lightgrey" stroke="lightgrey" points="809,-327.25 809,-924.56 1417,-924.56 1417,-327.25 809,-327.25"/>
<polygon fill="none" stroke="lightgrey" points="994.5,-895.06 994.5,-917.56 1231.5,-917.56 1231.5,-895.06 994.5,-895.06"/>
<text text-anchor="start" x="1105.12" y="-902.26" font-family="Times,serif" font-weight="bold" font-size="14.00">jbl</text>
<polygon fill="none" stroke="lightgrey" points="994.5,-870.56 994.5,-893.06 1231.5,-893.06 1231.5,-870.56 994.5,-870.56"/>
<text text-anchor="start" x="1064.25" y="-876.76" font-family="Times,serif" font-size="14.00">(K8s Namespace)</text>
<polygon fill="none" stroke="lightgrey" points="994.5,-846.06 994.5,-868.56 1231.5,-868.56 1231.5,-846.06 994.5,-846.06"/>
<text text-anchor="start" x="997.5" y="-852.26" font-family="Times,serif" font-size="14.00">(could be the same as another namespace)</text>
<polygon fill="none" stroke="lightgrey" points="991.5,-843.06 991.5,-920.56 1234.5,-920.56 1234.5,-843.06 991.5,-843.06"/>
</g>
<g id="clust2" class="cluster">
<title>cluster4</title>
<polygon fill="lightgrey" stroke="lightgrey" points="541,-302.5 541,-428.5 801,-428.5 801,-302.5 541,-302.5"/>
<text text-anchor="start" x="617" y="-412.2" font-family="Times,serif" font-weight="bold" font-size="14.00">K8s Control Plane</text>
</g>
<g id="clust3" class="cluster">
<title>cluster1</title>
<polygon fill="lightgrey" stroke="lightgrey" points="8,-8 8,-283.5 517,-283.5 517,-8 8,-8"/>
<polygon fill="none" stroke="lightgrey" points="210.75,-254 210.75,-276.5 314.25,-276.5 314.25,-254 210.75,-254"/>
<text text-anchor="start" x="242.62" y="-261.2" font-family="Times,serif" font-weight="bold" font-size="14.00">jonline</text>
<polygon fill="none" stroke="lightgrey" points="210.75,-229.5 210.75,-252 314.25,-252 314.25,-229.5 210.75,-229.5"/>
<text text-anchor="start" x="213.75" y="-235.7" font-family="Times,serif" font-size="14.00">(K8s Namespace)</text>
<polygon fill="none" stroke="lightgrey" points="207.75,-226.5 207.75,-279.5 317.25,-279.5 317.25,-226.5 207.75,-226.5"/>
</g>
<g id="clust4" class="cluster">
<title>cluster2</title>
<polygon fill="lightgrey" stroke="lightgrey" points="1042,-8 1042,-283.5 1551,-283.5 1551,-8 1042,-8"/>
<polygon fill="none" stroke="lightgrey" points="1244.75,-254 1244.75,-276.5 1348.25,-276.5 1348.25,-254 1244.75,-254"/>
<text text-anchor="start" x="1259.38" y="-261.2" font-family="Times,serif" font-weight="bold" font-size="14.00">oakcitysocial</text>
<polygon fill="none" stroke="lightgrey" points="1244.75,-229.5 1244.75,-252 1348.25,-252 1348.25,-229.5 1244.75,-229.5"/>
<text text-anchor="start" x="1247.75" y="-235.7" font-family="Times,serif" font-size="14.00">(K8s Namespace)</text>
<polygon fill="none" stroke="lightgrey" points="1241.75,-226.5 1241.75,-279.5 1351.25,-279.5 1351.25,-226.5 1241.75,-226.5"/>
</g>
<g id="clust5" class="cluster">
<title>cluster3</title>
<polygon fill="lightgrey" stroke="lightgrey" points="525,-8 525,-283.5 1034,-283.5 1034,-8 525,-8"/>
<polygon fill="none" stroke="lightgrey" points="727.75,-254 727.75,-276.5 831.25,-276.5 831.25,-254 727.75,-254"/>
<text text-anchor="start" x="741.62" y="-261.2" font-family="Times,serif" font-weight="bold" font-size="14.00">bullcitysocial</text>
<polygon fill="none" stroke="lightgrey" points="727.75,-229.5 727.75,-252 831.25,-252 831.25,-229.5 727.75,-229.5"/>
<text text-anchor="start" x="730.75" y="-235.7" font-family="Times,serif" font-size="14.00">(K8s Namespace)</text>
<polygon fill="none" stroke="lightgrey" points="724.75,-226.5 724.75,-279.5 834.25,-279.5 834.25,-226.5 724.75,-226.5"/>
</g>
<!-- browser -->
<g id="node1" class="node">
<title>browser</title>
<ellipse fill="#c1b2ff" stroke="#c1b2ff" cx="1113" cy="-1072.73" rx="65.17" ry="65.17"/>
<ellipse fill="none" stroke="#c1b2ff" cx="1113" cy="-1072.73" rx="69.17" ry="69.17"/>
<text text-anchor="start" x="1073.25" y="-1068.68" font-family="Times,serif" font-weight="bold" font-size="14.00">Web Browser</text>
</g>
<!-- jbl -->
<g id="node2" class="node">
<title>jbl</title>
<ellipse fill="white" stroke="white" cx="1113" cy="-753.28" rx="295.57" ry="77.78"/>
<polygon fill="none" stroke="white" points="915,-778.78 915,-801.28 1311,-801.28 1311,-778.78 915,-778.78"/>
<text text-anchor="start" x="1105.12" y="-785.98" font-family="Times,serif" font-weight="bold" font-size="14.00">jbl</text>
<polygon fill="none" stroke="white" points="915,-754.28 915,-776.78 1311,-776.78 1311,-754.28 915,-754.28"/>
<text text-anchor="start" x="1057.88" y="-760.48" font-family="Times,serif" font-size="14.00">(K8s LoadBalancer)</text>
<polygon fill="none" stroke="white" points="915,-729.78 915,-752.28 1311,-752.28 1311,-729.78 915,-729.78"/>
<text text-anchor="start" x="1035.75" y="-735.98" font-family="Times,serif" font-size="14.00">&quot;Jonline Balancer of Loads&quot;</text>
<polygon fill="none" stroke="white" points="915,-705.28 915,-727.78 1311,-727.78 1311,-705.28 915,-705.28"/>
<text text-anchor="start" x="918" y="-711.48" font-family="Times,serif" font-size="14.00">Could feasibly just pre&#45;configure and run/fork/await an Nginx instance.</text>
<polygon fill="none" stroke="white" points="912,-702.28 912,-804.28 1314,-804.28 1314,-702.28 912,-702.28"/>
</g>
<!-- browser&#45;&gt;jbl -->
<g id="edge1" class="edge">
<title>browser&#45;&gt;jbl</title>
<path fill="none" stroke="black" stroke-width="2" d="M1113,-1003.24C1113,-956.22 1113,-893.37 1113,-842.59"/>
<polygon fill="black" stroke="black" stroke-width="2" points="1116.5,-844.31 1113,-834.31 1109.5,-844.31 1116.5,-844.31"/>
<polygon fill="none" stroke="black" points="1116,-960.06 1116,-982.56 1417.5,-982.56 1417.5,-960.06 1116,-960.06"/>
<text text-anchor="start" x="1205.62" y="-967.26" font-family="Times,serif" font-style="italic" font-size="14.00">Single</text>
<text text-anchor="start" x="1239.38" y="-967.26" font-family="Times,serif" font-size="14.00"> </text>
<text text-anchor="start" x="1243.12" y="-967.26" font-family="Times,serif" font-weight="bold" font-size="14.00">$12/mo</text>
<text text-anchor="start" x="1285.88" y="-967.26" font-family="Times,serif" font-size="14.00"> ingress</text>
<polygon fill="none" stroke="black" points="1116,-935.56 1116,-958.06 1417.5,-958.06 1417.5,-935.56 1116,-935.56"/>
<text text-anchor="start" x="1119" y="-941.76" font-family="Times,serif" font-size="14.00">Host header: jonline.io | oakcity.social | bullcity.social</text>
<polygon fill="none" stroke="black" points="1113,-932.56 1113,-985.56 1420.5,-985.56 1420.5,-932.56 1113,-932.56"/>
</g>
<!-- parse_host -->
<g id="node5" class="node">
<title>parse_host</title>
<polygon fill="white" stroke="white" points="1147.31,-601.5 960.69,-601.5 912.69,-565.5 1099.31,-565.5 1147.31,-601.5"/>
<text text-anchor="middle" x="1030" y="-578.45" font-family="Times,serif" font-size="14.00">Parse Host Header</text>
</g>
<!-- jbl&#45;&gt;parse_host -->
<g id="edge3" class="edge">
<title>jbl&#45;&gt;parse_host</title>
<path fill="none" stroke="black" d="M1075.14,-675.76C1063.81,-652.85 1052.12,-629.21 1043.47,-611.73"/>
<polygon fill="black" stroke="black" points="1046.75,-610.47 1039.18,-603.06 1040.48,-613.58 1046.75,-610.47"/>
</g>
<!-- configuration -->
<g id="node3" class="node">
<title>configuration</title>
<polygon fill="#c1b2ff" stroke="#c1b2ff" points="1409,-638.5 1165,-638.5 1165,-528.5 1409,-528.5 1409,-638.5"/>
<polygon fill="none" stroke="#c1b2ff" points="1176,-609 1176,-631.5 1398,-631.5 1398,-609 1176,-609"/>
<text text-anchor="start" x="1232.25" y="-616.2" font-family="Times,serif" font-weight="bold" font-size="14.00">JBL Configuration</text>
<polygon fill="none" stroke="#c1b2ff" points="1176,-584.5 1176,-607 1398,-607 1398,-584.5 1176,-584.5"/>
<text text-anchor="start" x="1238.25" y="-590.7" font-family="Times,serif" font-size="14.00">(K8s ConfigMap)</text>
<polygon fill="none" stroke="#c1b2ff" points="1176,-560 1176,-582.5 1398,-582.5 1398,-560 1176,-560"/>
<text text-anchor="start" x="1179.38" y="-566.2" font-family="Times,serif" font-size="14.00">Maps domain name &#45;&gt; K8s namespace</text>
<polygon fill="none" stroke="#c1b2ff" points="1176,-535.5 1176,-558 1398,-558 1398,-535.5 1176,-535.5"/>
<text text-anchor="start" x="1179" y="-541.7" font-family="Times,serif" font-size="14.00">Configurable with deploys/jbl/Makefile</text>
<polygon fill="none" stroke="#c1b2ff" points="1173,-532.5 1173,-634.5 1401,-634.5 1401,-532.5 1173,-532.5"/>
</g>
<!-- resolve_namespace -->
<g id="node4" class="node">
<title>resolve_namespace</title>
<polygon fill="white" stroke="white" points="1275.12,-491.5 910.64,-491.5 816.88,-455.5 1181.36,-455.5 1275.12,-491.5"/>
<text text-anchor="middle" x="1046" y="-468.45" font-family="Times,serif" font-size="14.00">Resolve Namespace from Host Header</text>
</g>
<!-- configuration&#45;&gt;resolve_namespace -->
<g id="edge2" class="edge">
<title>configuration&#45;&gt;resolve_namespace</title>
<path fill="none" stroke="black" stroke-width="2" d="M1165.44,-528.03C1140.54,-516.86 1115.69,-505.73 1095.16,-496.53"/>
<polygon fill="black" stroke="black" stroke-width="2" points="1098.16,-494.04 1087.61,-493.15 1095.3,-500.43 1098.16,-494.04"/>
</g>
<!-- jonlineio -->
<g id="node6" class="node">
<title>jonlineio</title>
<polygon fill="white" stroke="white" points="926.88,-371.25 865.12,-371.25 865.12,-335.25 932.88,-335.25 932.88,-365.25 926.88,-371.25"/>
<polyline fill="none" stroke="white" points="926.88,-371.25 926.88,-365.25"/>
<polyline fill="none" stroke="white" points="932.88,-365.25 926.88,-365.25"/>
<text text-anchor="middle" x="899" y="-348.2" font-family="Times,serif" font-size="14.00">jonline.io</text>
</g>
<!-- resolve_namespace&#45;&gt;jonlineio -->
<g id="edge5" class="edge">
<title>resolve_namespace&#45;&gt;jonlineio</title>
<path fill="none" stroke="black" stroke-dasharray="1,5" d="M1017.72,-455.01C1005.78,-447.29 991.92,-437.85 980,-428.5 960.49,-413.2 939.92,-394.31 924.39,-379.41"/>
<polygon fill="black" stroke="black" points="927.02,-377.08 917.41,-372.64 922.15,-382.11 927.02,-377.08"/>
</g>
<!-- oakcitysocial -->
<g id="node7" class="node">
<title>oakcitysocial</title>
<polygon fill="white" stroke="white" points="1287.12,-371.25 1202.88,-371.25 1202.88,-335.25 1293.12,-335.25 1293.12,-365.25 1287.12,-371.25"/>
<polyline fill="none" stroke="white" points="1287.12,-371.25 1287.12,-365.25"/>
<polyline fill="none" stroke="white" points="1293.12,-365.25 1287.12,-365.25"/>
<text text-anchor="middle" x="1248" y="-348.2" font-family="Times,serif" font-size="14.00">oakcity.social</text>
</g>
<!-- resolve_namespace&#45;&gt;oakcitysocial -->
<g id="edge6" class="edge">
<title>resolve_namespace&#45;&gt;oakcitysocial</title>
<path fill="none" stroke="black" stroke-dasharray="1,5" d="M1075.81,-455.05C1110.97,-434.47 1169.54,-400.18 1208.47,-377.39"/>
<polygon fill="black" stroke="black" points="1210.23,-380.41 1217.09,-372.34 1206.7,-374.37 1210.23,-380.41"/>
</g>
<!-- bullcitysocial -->
<g id="node8" class="node">
<title>bullcitysocial</title>
<polygon fill="white" stroke="white" points="1074.88,-371.25 989.12,-371.25 989.12,-335.25 1080.88,-335.25 1080.88,-365.25 1074.88,-371.25"/>
<polyline fill="none" stroke="white" points="1074.88,-371.25 1074.88,-365.25"/>
<polyline fill="none" stroke="white" points="1080.88,-365.25 1074.88,-365.25"/>
<text text-anchor="middle" x="1035" y="-348.2" font-family="Times,serif" font-size="14.00">bullcity.social</text>
</g>
<!-- resolve_namespace&#45;&gt;bullcitysocial -->
<g id="edge7" class="edge">
<title>resolve_namespace&#45;&gt;bullcitysocial</title>
<path fill="none" stroke="black" stroke-dasharray="1,5" d="M1044.38,-455.05C1042.6,-435.99 1039.74,-405.17 1037.64,-382.63"/>
<polygon fill="black" stroke="black" points="1041.15,-382.53 1036.73,-372.89 1034.18,-383.17 1041.15,-382.53"/>
</g>
<!-- parse_host&#45;&gt;resolve_namespace -->
<g id="edge4" class="edge">
<title>parse_host&#45;&gt;resolve_namespace</title>
<path fill="none" stroke="black" d="M1032.57,-565.15C1035.05,-548.38 1038.86,-522.68 1041.79,-502.93"/>
<polygon fill="black" stroke="black" points="1045.21,-503.71 1043.21,-493.31 1038.29,-502.69 1045.21,-503.71"/>
</g>
<!-- certs -->
<g id="node9" class="node">
<title>certs</title>
<polygon fill="#c1b2ff" stroke="#c1b2ff" points="793,-396 549,-396 549,-310.5 793,-310.5 793,-396"/>
<polygon fill="none" stroke="#c1b2ff" points="560,-366.5 560,-389 782,-389 782,-366.5 560,-366.5"/>
<text text-anchor="start" x="589.25" y="-373.7" font-family="Times,serif" font-weight="bold" font-size="14.00">TLS/SSL Cert Management</text>
<polygon fill="none" stroke="#c1b2ff" points="560,-342 560,-364.5 782,-364.5 782,-342 560,-342"/>
<text text-anchor="start" x="570.88" y="-348.2" font-family="Times,serif" font-size="14.00">(K8s ClusterRoles and RoleBinding)</text>
<polygon fill="none" stroke="#c1b2ff" points="560,-317.5 560,-340 782,-340 782,-317.5 560,-317.5"/>
<text text-anchor="start" x="563" y="-323.7" font-family="Times,serif" font-size="14.00">Configurable with deploys/jbl/Makefile</text>
<polygon fill="none" stroke="#c1b2ff" points="557,-314.5 557,-392 785,-392 785,-314.5 557,-314.5"/>
</g>
<!-- parse_host&#45;&gt;certs -->
<g id="edge11" class="edge">
<title>parse_host&#45;&gt;certs</title>
<path fill="none" stroke="black" d="M969.81,-565.05C923.26,-549.9 858.44,-525.1 808,-491.5 772.07,-467.56 737.76,-433.17 712.46,-404.8"/>
<polygon fill="black" stroke="black" points="715.14,-402.54 705.91,-397.34 709.88,-407.17 715.14,-402.54"/>
</g>
<!-- jonline0 -->
<g id="node10" class="node">
<title>jonline0</title>
<ellipse fill="white" stroke="white" cx="429" cy="-159.5" rx="80.26" ry="43.13"/>
<polygon fill="none" stroke="white" points="383.25,-160.5 383.25,-183 474.75,-183 474.75,-160.5 383.25,-160.5"/>
<text text-anchor="start" x="409.12" y="-167.7" font-family="Times,serif" font-weight="bold" font-size="14.00">jonline</text>
<polygon fill="none" stroke="white" points="383.25,-136 383.25,-158.5 474.75,-158.5 474.75,-136 383.25,-136"/>
<text text-anchor="start" x="386.25" y="-142.2" font-family="Times,serif" font-size="14.00">(K8s ClusterIP)</text>
<polygon fill="none" stroke="white" points="380.25,-133 380.25,-186 477.75,-186 477.75,-133 380.25,-133"/>
</g>
<!-- jonlineio&#45;&gt;jonline0 -->
<g id="edge10" class="edge">
<title>jonlineio&#45;&gt;jonline0</title>
<path fill="none" stroke="black" d="M873.51,-334.97C855.28,-323.58 829.69,-309.51 805,-302.5 744.16,-285.22 576.58,-313.7 521,-283.5 491.7,-267.58 469.08,-237.88 453.6,-211.64"/>
<polygon fill="black" stroke="black" points="456.74,-210.09 448.76,-203.11 450.65,-213.54 456.74,-210.09"/>
</g>
<!-- jonline1 -->
<g id="node14" class="node">
<title>jonline1</title>
<ellipse fill="white" stroke="white" cx="1463" cy="-159.5" rx="80.26" ry="43.13"/>
<polygon fill="none" stroke="white" points="1417.25,-160.5 1417.25,-183 1508.75,-183 1508.75,-160.5 1417.25,-160.5"/>
<text text-anchor="start" x="1443.12" y="-167.7" font-family="Times,serif" font-weight="bold" font-size="14.00">jonline</text>
<polygon fill="none" stroke="white" points="1417.25,-136 1417.25,-158.5 1508.75,-158.5 1508.75,-136 1417.25,-136"/>
<text text-anchor="start" x="1420.25" y="-142.2" font-family="Times,serif" font-size="14.00">(K8s ClusterIP)</text>
<polygon fill="none" stroke="white" points="1414.25,-133 1414.25,-186 1511.75,-186 1511.75,-133 1414.25,-133"/>
</g>
<!-- oakcitysocial&#45;&gt;jonline1 -->
<g id="edge14" class="edge">
<title>oakcitysocial&#45;&gt;jonline1</title>
<path fill="none" stroke="black" d="M1289.99,-334.81C1315.73,-322.82 1348.35,-305.16 1373,-283.5 1396.58,-262.78 1417.64,-234.84 1433.44,-210.83"/>
<polygon fill="black" stroke="black" points="1436.38,-212.73 1438.85,-202.43 1430.5,-208.94 1436.38,-212.73"/>
</g>
<!-- jonline2 -->
<g id="node18" class="node">
<title>jonline2</title>
<ellipse fill="white" stroke="white" cx="946" cy="-159.5" rx="80.26" ry="43.13"/>
<polygon fill="none" stroke="white" points="900.25,-160.5 900.25,-183 991.75,-183 991.75,-160.5 900.25,-160.5"/>
<text text-anchor="start" x="926.12" y="-167.7" font-family="Times,serif" font-weight="bold" font-size="14.00">jonline</text>
<polygon fill="none" stroke="white" points="900.25,-136 900.25,-158.5 991.75,-158.5 991.75,-136 900.25,-136"/>
<text text-anchor="start" x="903.25" y="-142.2" font-family="Times,serif" font-size="14.00">(K8s ClusterIP)</text>
<polygon fill="none" stroke="white" points="897.25,-133 897.25,-186 994.75,-186 994.75,-133 897.25,-133"/>
</g>
<!-- bullcitysocial&#45;&gt;jonline2 -->
<g id="edge17" class="edge">
<title>bullcitysocial&#45;&gt;jonline2</title>
<path fill="none" stroke="black" d="M1026.94,-334.9C1014.19,-307.42 988.86,-252.83 969.91,-212.01"/>
<polygon fill="black" stroke="black" points="973.14,-210.66 965.76,-203.06 966.79,-213.61 973.14,-210.66"/>
</g>
<!-- tls0 -->
<g id="node13" class="node">
<title>tls0</title>
<polygon fill="#c1b2ff" stroke="#c1b2ff" points="330.25,-214.5 15.75,-214.5 15.75,-104.5 330.25,-104.5 330.25,-214.5"/>
<polygon fill="none" stroke="#c1b2ff" points="26.75,-185 26.75,-207.5 319.25,-207.5 319.25,-185 26.75,-185"/>
<text text-anchor="start" x="145.62" y="-191.2" font-family="Times,serif" font-size="14.00">jonline&#45;tls</text>
<polygon fill="none" stroke="#c1b2ff" points="26.75,-160.5 26.75,-183 319.25,-183 319.25,-160.5 26.75,-160.5"/>
<text text-anchor="start" x="138.88" y="-166.7" font-family="Times,serif" font-size="14.00">(K8s Secret)</text>
<polygon fill="none" stroke="#c1b2ff" points="26.75,-136 26.75,-158.5 319.25,-158.5 319.25,-136 26.75,-136"/>
<text text-anchor="start" x="29.75" y="-142.2" font-family="Times,serif" font-size="14.00">Configurable with deploys/generated_certs/Makefile</text>
<polygon fill="none" stroke="#c1b2ff" points="26.75,-111.5 26.75,-134 319.25,-134 319.25,-111.5 26.75,-111.5"/>
<text text-anchor="start" x="53.75" y="-118.7" font-family="Times,serif" font-size="14.00">Lightweight integration with </text>
<text text-anchor="start" x="213.5" y="-118.7" font-family="Times,serif" font-style="italic" font-size="14.00">Cert&#45;Manager</text>
<polygon fill="none" stroke="#c1b2ff" points="23.75,-108.5 23.75,-210.5 322.25,-210.5 322.25,-108.5 23.75,-108.5"/>
</g>
<!-- certs&#45;&gt;tls0 -->
<g id="edge18" class="edge">
<title>certs&#45;&gt;tls0</title>
<path fill="none" stroke="black" d="M548.8,-339.63C484.59,-329.87 405.79,-312.86 340,-283.5 305.14,-267.94 270.5,-244.17 241.89,-221.66"/>
<polygon fill="black" stroke="black" points="244.39,-219.17 234.39,-215.67 240.02,-224.64 244.39,-219.17"/>
</g>
<!-- tls1 -->
<g id="node17" class="node">
<title>tls1</title>
<polygon fill="#c1b2ff" stroke="#c1b2ff" points="1364.25,-214.5 1049.75,-214.5 1049.75,-104.5 1364.25,-104.5 1364.25,-214.5"/>
<polygon fill="none" stroke="#c1b2ff" points="1060.75,-185 1060.75,-207.5 1353.25,-207.5 1353.25,-185 1060.75,-185"/>
<text text-anchor="start" x="1179.62" y="-191.2" font-family="Times,serif" font-size="14.00">jonline&#45;tls</text>
<polygon fill="none" stroke="#c1b2ff" points="1060.75,-160.5 1060.75,-183 1353.25,-183 1353.25,-160.5 1060.75,-160.5"/>
<text text-anchor="start" x="1172.88" y="-166.7" font-family="Times,serif" font-size="14.00">(K8s Secret)</text>
<polygon fill="none" stroke="#c1b2ff" points="1060.75,-136 1060.75,-158.5 1353.25,-158.5 1353.25,-136 1060.75,-136"/>
<text text-anchor="start" x="1063.75" y="-142.2" font-family="Times,serif" font-size="14.00">Configurable with deploys/generated_certs/Makefile</text>
<polygon fill="none" stroke="#c1b2ff" points="1060.75,-111.5 1060.75,-134 1353.25,-134 1353.25,-111.5 1060.75,-111.5"/>
<text text-anchor="start" x="1087.75" y="-118.7" font-family="Times,serif" font-size="14.00">Lightweight integration with </text>
<text text-anchor="start" x="1247.5" y="-118.7" font-family="Times,serif" font-style="italic" font-size="14.00">Cert&#45;Manager</text>
<polygon fill="none" stroke="#c1b2ff" points="1057.75,-108.5 1057.75,-210.5 1356.25,-210.5 1356.25,-108.5 1057.75,-108.5"/>
</g>
<!-- certs&#45;&gt;tls1 -->
<g id="edge19" class="edge">
<title>certs&#45;&gt;tls1</title>
<path fill="none" stroke="black" d="M776.62,-310.02C786.12,-307.14 795.67,-304.57 805,-302.5 906.43,-279.99 940.59,-319.64 1038,-283.5 1075,-269.77 1111.06,-245.51 1140.31,-222.14"/>
<polygon fill="black" stroke="black" points="1142.44,-224.92 1147.98,-215.89 1138.02,-219.49 1142.44,-224.92"/>
</g>
<!-- tls2 -->
<g id="node21" class="node">
<title>tls2</title>
<polygon fill="#c1b2ff" stroke="#c1b2ff" points="847.25,-214.5 532.75,-214.5 532.75,-104.5 847.25,-104.5 847.25,-214.5"/>
<polygon fill="none" stroke="#c1b2ff" points="543.75,-185 543.75,-207.5 836.25,-207.5 836.25,-185 543.75,-185"/>
<text text-anchor="start" x="662.62" y="-191.2" font-family="Times,serif" font-size="14.00">jonline&#45;tls</text>
<polygon fill="none" stroke="#c1b2ff" points="543.75,-160.5 543.75,-183 836.25,-183 836.25,-160.5 543.75,-160.5"/>
<text text-anchor="start" x="655.88" y="-166.7" font-family="Times,serif" font-size="14.00">(K8s Secret)</text>
<polygon fill="none" stroke="#c1b2ff" points="543.75,-136 543.75,-158.5 836.25,-158.5 836.25,-136 543.75,-136"/>
<text text-anchor="start" x="546.75" y="-142.2" font-family="Times,serif" font-size="14.00">Configurable with deploys/generated_certs/Makefile</text>
<polygon fill="none" stroke="#c1b2ff" points="543.75,-111.5 543.75,-134 836.25,-134 836.25,-111.5 543.75,-111.5"/>
<text text-anchor="start" x="570.75" y="-118.7" font-family="Times,serif" font-size="14.00">Lightweight integration with </text>
<text text-anchor="start" x="730.5" y="-118.7" font-family="Times,serif" font-style="italic" font-size="14.00">Cert&#45;Manager</text>
<polygon fill="none" stroke="#c1b2ff" points="540.75,-108.5 540.75,-210.5 839.25,-210.5 839.25,-108.5 540.75,-108.5"/>
</g>
<!-- certs&#45;&gt;tls2 -->
<g id="edge20" class="edge">
<title>certs&#45;&gt;tls2</title>
<path fill="none" stroke="black" d="M675.17,-310.17C677.61,-285.56 680.74,-253.96 683.5,-226.14"/>
<polygon fill="black" stroke="black" points="686.96,-226.68 684.46,-216.39 679.99,-225.99 686.96,-226.68"/>
</g>
<!-- minio0 -->
<g id="node11" class="node">
<title>minio0</title>
<path fill="white" stroke="white" d="M335,-48.73C335,-50.53 322.9,-52 308,-52 293.1,-52 281,-50.53 281,-48.73 281,-48.73 281,-19.27 281,-19.27 281,-17.47 293.1,-16 308,-16 322.9,-16 335,-17.47 335,-19.27 335,-19.27 335,-48.73 335,-48.73"/>
<path fill="none" stroke="white" d="M335,-48.73C335,-46.92 322.9,-45.45 308,-45.45 293.1,-45.45 281,-46.92 281,-48.73"/>
<text text-anchor="middle" x="308" y="-28.95" font-family="Times,serif" font-size="14.00">Minio</text>
</g>
<!-- jonline0&#45;&gt;minio0 -->
<g id="edge8" class="edge">
<title>jonline0&#45;&gt;minio0</title>
<path fill="none" stroke="black" d="M374.85,-127.37C358.67,-116.09 341.95,-102.21 329.5,-86.5 324.04,-79.61 319.75,-71.13 316.49,-63.06"/>
<polygon fill="black" stroke="black" points="319.87,-62.12 313.17,-53.91 313.29,-64.5 319.87,-62.12"/>
<text text-anchor="start" x="329" y="-74.2" font-family="Times,serif" font-size="14.00">5GB @ </text>
<text text-anchor="start" x="374.75" y="-74.2" font-family="Times,serif" font-weight="bold" font-size="14.00">50¢/mo</text>
</g>
<!-- postgres0 -->
<g id="node12" class="node">
<title>postgres0</title>
<path fill="white" stroke="white" d="M450.88,-48.73C450.88,-50.53 437.04,-52 420,-52 402.96,-52 389.12,-50.53 389.12,-48.73 389.12,-48.73 389.12,-19.27 389.12,-19.27 389.12,-17.47 402.96,-16 420,-16 437.04,-16 450.88,-17.47 450.88,-19.27 450.88,-19.27 450.88,-48.73 450.88,-48.73"/>
<path fill="none" stroke="white" d="M450.88,-48.73C450.88,-46.92 437.04,-45.45 420,-45.45 402.96,-45.45 389.12,-46.92 389.12,-48.73"/>
<text text-anchor="middle" x="420" y="-28.95" font-family="Times,serif" font-size="14.00">Postgres</text>
</g>
<!-- jonline0&#45;&gt;postgres0 -->
<g id="edge9" class="edge">
<title>jonline0&#45;&gt;postgres0</title>
<path fill="none" stroke="black" d="M425.9,-116C424.65,-98.82 423.24,-79.44 422.11,-63.94"/>
<polygon fill="black" stroke="black" points="425.6,-63.69 421.38,-53.97 418.62,-64.19 425.6,-63.69"/>
<text text-anchor="start" x="423" y="-74.2" font-family="Times,serif" font-size="14.00">1GB @ </text>
<text text-anchor="start" x="468.75" y="-74.2" font-family="Times,serif" font-weight="bold" font-size="14.00">10¢/mo</text>
</g>
<!-- minio1 -->
<g id="node15" class="node">
<title>minio1</title>
<path fill="white" stroke="white" d="M1369,-48.73C1369,-50.53 1356.9,-52 1342,-52 1327.1,-52 1315,-50.53 1315,-48.73 1315,-48.73 1315,-19.27 1315,-19.27 1315,-17.47 1327.1,-16 1342,-16 1356.9,-16 1369,-17.47 1369,-19.27 1369,-19.27 1369,-48.73 1369,-48.73"/>
<path fill="none" stroke="white" d="M1369,-48.73C1369,-46.92 1356.9,-45.45 1342,-45.45 1327.1,-45.45 1315,-46.92 1315,-48.73"/>
<text text-anchor="middle" x="1342" y="-28.95" font-family="Times,serif" font-size="14.00">Minio</text>
</g>
<!-- jonline1&#45;&gt;minio1 -->
<g id="edge12" class="edge">
<title>jonline1&#45;&gt;minio1</title>
<path fill="none" stroke="black" d="M1408.85,-127.37C1392.67,-116.09 1375.95,-102.21 1363.5,-86.5 1358.04,-79.61 1353.75,-71.13 1350.49,-63.06"/>
<polygon fill="black" stroke="black" points="1353.87,-62.12 1347.17,-53.91 1347.29,-64.5 1353.87,-62.12"/>
<text text-anchor="start" x="1363" y="-74.2" font-family="Times,serif" font-size="14.00">5GB @ </text>
<text text-anchor="start" x="1408.75" y="-74.2" font-family="Times,serif" font-weight="bold" font-size="14.00">50¢/mo</text>
</g>
<!-- postgres1 -->
<g id="node16" class="node">
<title>postgres1</title>
<path fill="white" stroke="white" d="M1484.88,-48.73C1484.88,-50.53 1471.04,-52 1454,-52 1436.96,-52 1423.12,-50.53 1423.12,-48.73 1423.12,-48.73 1423.12,-19.27 1423.12,-19.27 1423.12,-17.47 1436.96,-16 1454,-16 1471.04,-16 1484.88,-17.47 1484.88,-19.27 1484.88,-19.27 1484.88,-48.73 1484.88,-48.73"/>
<path fill="none" stroke="white" d="M1484.88,-48.73C1484.88,-46.92 1471.04,-45.45 1454,-45.45 1436.96,-45.45 1423.12,-46.92 1423.12,-48.73"/>
<text text-anchor="middle" x="1454" y="-28.95" font-family="Times,serif" font-size="14.00">Postgres</text>
</g>
<!-- jonline1&#45;&gt;postgres1 -->
<g id="edge13" class="edge">
<title>jonline1&#45;&gt;postgres1</title>
<path fill="none" stroke="black" d="M1459.9,-116C1458.65,-98.82 1457.24,-79.44 1456.11,-63.94"/>
<polygon fill="black" stroke="black" points="1459.6,-63.69 1455.38,-53.97 1452.62,-64.19 1459.6,-63.69"/>
<text text-anchor="start" x="1457" y="-74.2" font-family="Times,serif" font-size="14.00">1GB @ </text>
<text text-anchor="start" x="1502.75" y="-74.2" font-family="Times,serif" font-weight="bold" font-size="14.00">10¢/mo</text>
</g>
<!-- minio2 -->
<g id="node19" class="node">
<title>minio2</title>
<path fill="white" stroke="white" d="M852,-48.73C852,-50.53 839.9,-52 825,-52 810.1,-52 798,-50.53 798,-48.73 798,-48.73 798,-19.27 798,-19.27 798,-17.47 810.1,-16 825,-16 839.9,-16 852,-17.47 852,-19.27 852,-19.27 852,-48.73 852,-48.73"/>
<path fill="none" stroke="white" d="M852,-48.73C852,-46.92 839.9,-45.45 825,-45.45 810.1,-45.45 798,-46.92 798,-48.73"/>
<text text-anchor="middle" x="825" y="-28.95" font-family="Times,serif" font-size="14.00">Minio</text>
</g>
<!-- jonline2&#45;&gt;minio2 -->
<g id="edge15" class="edge">
<title>jonline2&#45;&gt;minio2</title>
<path fill="none" stroke="black" d="M891.85,-127.37C875.67,-116.09 858.95,-102.21 846.5,-86.5 841.04,-79.61 836.75,-71.13 833.49,-63.06"/>
<polygon fill="black" stroke="black" points="836.87,-62.12 830.17,-53.91 830.29,-64.5 836.87,-62.12"/>
<text text-anchor="start" x="846" y="-74.2" font-family="Times,serif" font-size="14.00">5GB @ </text>
<text text-anchor="start" x="891.75" y="-74.2" font-family="Times,serif" font-weight="bold" font-size="14.00">50¢/mo</text>
</g>
<!-- postgres2 -->
<g id="node20" class="node">
<title>postgres2</title>
<path fill="white" stroke="white" d="M967.88,-48.73C967.88,-50.53 954.04,-52 937,-52 919.96,-52 906.12,-50.53 906.12,-48.73 906.12,-48.73 906.12,-19.27 906.12,-19.27 906.12,-17.47 919.96,-16 937,-16 954.04,-16 967.88,-17.47 967.88,-19.27 967.88,-19.27 967.88,-48.73 967.88,-48.73"/>
<path fill="none" stroke="white" d="M967.88,-48.73C967.88,-46.92 954.04,-45.45 937,-45.45 919.96,-45.45 906.12,-46.92 906.12,-48.73"/>
<text text-anchor="middle" x="937" y="-28.95" font-family="Times,serif" font-size="14.00">Postgres</text>
</g>
<!-- jonline2&#45;&gt;postgres2 -->
<g id="edge16" class="edge">
<title>jonline2&#45;&gt;postgres2</title>
<path fill="none" stroke="black" d="M942.9,-116C941.65,-98.82 940.24,-79.44 939.11,-63.94"/>
<polygon fill="black" stroke="black" points="942.6,-63.69 938.38,-53.97 935.62,-64.19 942.6,-63.69"/>
<text text-anchor="start" x="940" y="-74.2" font-family="Times,serif" font-size="14.00">1GB @ </text>
<text text-anchor="start" x="985.75" y="-74.2" font-family="Times,serif" font-weight="bold" font-size="14.00">10¢/mo</text>
</g>
</g>
</svg>
