<?xml version="1.0" encoding="UTF-8" standalone="no"?>
<!DOCTYPE svg PUBLIC "-//W3C//DTD SVG 1.1//EN"
 "http://www.w3.org/Graphics/SVG/1.1/DTD/svg11.dtd">
<!-- Generated by graphviz version 9.0.0 (20230911.1827)
 -->
<!-- Title: G Pages: 1 -->
<svg width="1567pt" height="1312pt"
 viewBox="0.00 0.00 1567.00 1312.40" xmlns="http://www.w3.org/2000/svg" xmlns:xlink="http://www.w3.org/1999/xlink">
<g id="graph0" class="graph" transform="scale(1 1) rotate(0) translate(4 1308.4)">
<title>G</title>
<polygon fill="white" stroke="none" points="-4,4 -4,-1308.4 1563,-1308.4 1563,4 -4,4"/>
<g id="clust1" class="cluster">
<title>cluster0</title>
<polygon fill="lightgrey" stroke="lightgrey" points="729,-327.25 729,-924.56 1517,-924.56 1517,-327.25 729,-327.25"/>
<polygon fill="none" stroke="lightgrey" points="1004.5,-895.06 1004.5,-917.56 1241.5,-917.56 1241.5,-895.06 1004.5,-895.06"/>
<text text-anchor="start" x="1115.12" y="-902.26" font-family="Times,serif" font-weight="bold" font-size="14.00">jbl</text>
<polygon fill="none" stroke="lightgrey" points="1004.5,-870.56 1004.5,-893.06 1241.5,-893.06 1241.5,-870.56 1004.5,-870.56"/>
<text text-anchor="start" x="1074.25" y="-876.76" font-family="Times,serif" font-size="14.00">(K8s Namespace)</text>
<polygon fill="none" stroke="lightgrey" points="1004.5,-846.06 1004.5,-868.56 1241.5,-868.56 1241.5,-846.06 1004.5,-846.06"/>
<text text-anchor="start" x="1007.5" y="-852.26" font-family="Times,serif" font-size="14.00">(could be the same as another namespace)</text>
<polygon fill="none" stroke="lightgrey" points="1001.5,-843.06 1001.5,-920.56 1244.5,-920.56 1244.5,-843.06 1001.5,-843.06"/>
</g>
<g id="clust2" class="cluster">
<title>cluster4</title>
<polygon fill="lightgrey" stroke="lightgrey" points="461,-302.5 461,-428.5 721,-428.5 721,-302.5 461,-302.5"/>
<text text-anchor="start" x="537" y="-412.2" font-family="Times,serif" font-weight="bold" font-size="14.00">K8s Control Plane</text>
</g>
<g id="clust3" class="cluster">
<title>cluster1</title>
<polygon fill="lightgrey" stroke="lightgrey" points="8,-8 8,-283.5 517,-283.5 517,-8 8,-8"/>
<polygon fill="none" stroke="lightgrey" points="210.75,-254 210.75,-276.5 314.25,-276.5 314.25,-254 210.75,-254"/>
<text text-anchor="start" x="242.62" y="-261.2" font-family="Times,serif" font-weight="bold" font-size="14.00">jonline</text>
<polygon fill="none" stroke="lightgrey" points="210.75,-229.5 210.75,-252 314.25,-252 314.25,-229.5 210.75,-229.5"/>
<text text-anchor="start" x="213.75" y="-235.7" font-family="Times,serif" font-size="14.00">(K8s Namespace)</text>
<polygon fill="none" stroke="lightgrey" points="207.75,-226.5 207.75,-279.5 317.25,-279.5 317.25,-226.5 207.75,-226.5"/>
</g>
<g id="clust4" class="cluster">
<title>cluster2</title>
<polygon fill="lightgrey" stroke="lightgrey" points="1042,-8 1042,-283.5 1551,-283.5 1551,-8 1042,-8"/>
<polygon fill="none" stroke="lightgrey" points="1244.75,-254 1244.75,-276.5 1348.25,-276.5 1348.25,-254 1244.75,-254"/>
<text text-anchor="start" x="1259.38" y="-261.2" font-family="Times,serif" font-weight="bold" font-size="14.00">oakcitysocial</text>
<polygon fill="none" stroke="lightgrey" points="1244.75,-229.5 1244.75,-252 1348.25,-252 1348.25,-229.5 1244.75,-229.5"/>
<text text-anchor="start" x="1247.75" y="-235.7" font-family="Times,serif" font-size="14.00">(K8s Namespace)</text>
<polygon fill="none" stroke="lightgrey" points="1241.75,-226.5 1241.75,-279.5 1351.25,-279.5 1351.25,-226.5 1241.75,-226.5"/>
</g>
<g id="clust5" class="cluster">
<title>cluster3</title>
<polygon fill="lightgrey" stroke="lightgrey" points="525,-8 525,-283.5 1034,-283.5 1034,-8 525,-8"/>
<polygon fill="none" stroke="lightgrey" points="727.75,-254 727.75,-276.5 831.25,-276.5 831.25,-254 727.75,-254"/>
<text text-anchor="start" x="741.62" y="-261.2" font-family="Times,serif" font-weight="bold" font-size="14.00">bullcitysocial</text>
<polygon fill="none" stroke="lightgrey" points="727.75,-229.5 727.75,-252 831.25,-252 831.25,-229.5 727.75,-229.5"/>
<text text-anchor="start" x="730.75" y="-235.7" font-family="Times,serif" font-size="14.00">(K8s Namespace)</text>
<polygon fill="none" stroke="lightgrey" points="724.75,-226.5 724.75,-279.5 834.25,-279.5 834.25,-226.5 724.75,-226.5"/>
</g>
<!-- browser -->
<g id="node1" class="node">
<title>browser</title>
<ellipse fill="#c1b2ff" stroke="#c1b2ff" cx="928" cy="-1235.23" rx="65.17" ry="65.17"/>
<ellipse fill="none" stroke="#c1b2ff" cx="928" cy="-1235.23" rx="69.17" ry="69.17"/>
<text text-anchor="start" x="888.25" y="-1231.18" font-family="Times,serif" font-weight="bold" font-size="14.00">Web Browser</text>
</g>
<!-- jbl -->
<g id="node2" class="node">
<title>jbl</title>
<ellipse fill="white" stroke="white" cx="1123" cy="-753.28" rx="295.57" ry="77.78"/>
<polygon fill="none" stroke="white" points="925,-778.78 925,-801.28 1321,-801.28 1321,-778.78 925,-778.78"/>
<text text-anchor="start" x="1115.12" y="-785.98" font-family="Times,serif" font-weight="bold" font-size="14.00">jbl</text>
<polygon fill="none" stroke="white" points="925,-754.28 925,-776.78 1321,-776.78 1321,-754.28 925,-754.28"/>
<text text-anchor="start" x="1067.88" y="-760.48" font-family="Times,serif" font-size="14.00">(K8s LoadBalancer)</text>
<polygon fill="none" stroke="white" points="925,-729.78 925,-752.28 1321,-752.28 1321,-729.78 925,-729.78"/>
<text text-anchor="start" x="1045.75" y="-735.98" font-family="Times,serif" font-size="14.00">&quot;Jonline Balancer of Loads&quot;</text>
<polygon fill="none" stroke="white" points="925,-705.28 925,-727.78 1321,-727.78 1321,-705.28 925,-705.28"/>
<text text-anchor="start" x="928" y="-711.48" font-family="Times,serif" font-size="14.00">Could feasibly just pre&#45;configure and run/fork/await an Nginx instance.</text>
<polygon fill="none" stroke="white" points="922,-702.28 922,-804.28 1324,-804.28 1324,-702.28 922,-702.28"/>
</g>
<!-- browser&#45;&gt;jbl -->
<g id="edge1" class="edge">
<title>browser&#45;&gt;jbl</title>
<path fill="none" stroke="black" stroke-width="2" d="M909.97,-1168.18C900.46,-1121.4 894.27,-1057.92 913.25,-1005.56 936.73,-940.8 985,-881.03 1029.32,-836.04"/>
<polygon fill="black" stroke="black" stroke-width="2" points="1030.53,-839.79 1035.12,-830.24 1025.58,-834.84 1030.53,-839.79"/>
<polygon fill="none" stroke="black" points="916,-1049.56 916,-1072.06 1144.75,-1072.06 1144.75,-1049.56 916,-1049.56"/>
<text text-anchor="start" x="969.25" y="-1056.76" font-family="Times,serif" font-style="italic" font-size="14.00">Single</text>
<text text-anchor="start" x="1003" y="-1056.76" font-family="Times,serif" font-size="14.00"> </text>
<text text-anchor="start" x="1006.75" y="-1056.76" font-family="Times,serif" font-weight="bold" font-size="14.00">$12/mo</text>
<text text-anchor="start" x="1049.5" y="-1056.76" font-family="Times,serif" font-size="14.00"> ingress</text>
<polygon fill="none" stroke="black" points="916,-1008.56 916,-1047.56 1144.75,-1047.56 1144.75,-1008.56 916,-1008.56"/>
<text text-anchor="start" x="994.38" y="-1031.26" font-family="Times,serif" font-size="14.00">Host Header:</text>
<text text-anchor="start" x="919" y="-1014.76" font-family="Times,serif" font-size="14.00">jonline.io | oakcity.social | bullcity.social</text>
<polygon fill="none" stroke="black" points="913,-1005.56 913,-1075.06 1147.75,-1075.06 1147.75,-1005.56 913,-1005.56"/>
</g>
<!-- resolve_dns -->
<g id="node3" class="node">
<title>resolve_dns</title>
<polygon fill="none" stroke="black" points="1266.8,-1129.06 1125.54,-1129.06 1089.2,-1093.06 1230.46,-1093.06 1266.8,-1129.06"/>
<text text-anchor="middle" x="1178" y="-1106.01" font-family="Times,serif" font-size="14.00">DNS Lookup</text>
</g>
<!-- browser&#45;&gt;resolve_dns -->
<g id="edge2" class="edge">
<title>browser&#45;&gt;resolve_dns</title>
<path fill="none" stroke="black" stroke-width="2" d="M990.12,-1203.88C1034.19,-1182.34 1092.37,-1153.91 1132.24,-1134.43"/>
<polygon fill="black" stroke="black" stroke-width="2" points="1132.3,-1138.29 1139.75,-1130.76 1129.22,-1132 1132.3,-1138.29"/>
</g>
<!-- parse_host -->
<g id="node9" class="node">
<title>parse_host</title>
<polygon fill="white" stroke="white" points="1240.31,-601.5 1053.69,-601.5 1005.69,-565.5 1192.31,-565.5 1240.31,-601.5"/>
<text text-anchor="middle" x="1123" y="-578.45" font-family="Times,serif" font-size="14.00">Parse Host Header</text>
</g>
<!-- jbl&#45;&gt;parse_host -->
<g id="edge10" class="edge">
<title>jbl&#45;&gt;parse_host</title>
<path fill="none" stroke="black" d="M1123,-675.27C1123,-653.22 1123,-630.54 1123,-613.36"/>
<polygon fill="black" stroke="black" points="1126.5,-613.43 1123,-603.43 1119.5,-613.43 1126.5,-613.43"/>
</g>
<!-- jonlineio_dns -->
<g id="node4" class="node">
<title>jonlineio_dns</title>
<polygon fill="none" stroke="black" points="1200.88,-987.56 1139.12,-987.56 1139.12,-951.56 1206.88,-951.56 1206.88,-981.56 1200.88,-987.56"/>
<polyline fill="none" stroke="black" points="1200.88,-987.56 1200.88,-981.56"/>
<polyline fill="none" stroke="black" points="1206.88,-981.56 1200.88,-981.56"/>
<text text-anchor="middle" x="1173" y="-964.51" font-family="Times,serif" font-size="14.00">jonline.io</text>
</g>
<!-- resolve_dns&#45;&gt;jonlineio_dns -->
<g id="edge3" class="edge">
<title>resolve_dns&#45;&gt;jonlineio_dns</title>
<path fill="none" stroke="black" stroke-dasharray="1,5" d="M1178.39,-1092.66C1178.72,-1071.91 1178.89,-1036.17 1177,-1005.56 1176.87,-1003.5 1176.71,-1001.37 1176.52,-999.23"/>
<polygon fill="black" stroke="black" points="1180.02,-999.07 1175.51,-989.48 1173.06,-999.79 1180.02,-999.07"/>
</g>
<!-- oakcitysocial_dns -->
<g id="node5" class="node">
<title>oakcitysocial_dns</title>
<polygon fill="none" stroke="black" points="1309.12,-987.56 1224.88,-987.56 1224.88,-951.56 1315.12,-951.56 1315.12,-981.56 1309.12,-987.56"/>
<polyline fill="none" stroke="black" points="1309.12,-987.56 1309.12,-981.56"/>
<polyline fill="none" stroke="black" points="1315.12,-981.56 1309.12,-981.56"/>
<text text-anchor="middle" x="1270" y="-964.51" font-family="Times,serif" font-size="14.00">oakcity.social</text>
</g>
<!-- resolve_dns&#45;&gt;oakcitysocial_dns -->
<g id="edge4" class="edge">
<title>resolve_dns&#45;&gt;oakcitysocial_dns</title>
<path fill="none" stroke="black" stroke-dasharray="1,5" d="M1189.47,-1092.68C1205.25,-1068.74 1233.83,-1025.41 1252.35,-997.32"/>
<polygon fill="black" stroke="black" points="1255.26,-999.27 1257.85,-988.99 1249.42,-995.41 1255.26,-999.27"/>
</g>
<!-- bullcitysocial_dns -->
<g id="node6" class="node">
<title>bullcitysocial_dns</title>
<polygon fill="none" stroke="black" points="1114.88,-987.56 1029.12,-987.56 1029.12,-951.56 1120.88,-951.56 1120.88,-981.56 1114.88,-987.56"/>
<polyline fill="none" stroke="black" points="1114.88,-987.56 1114.88,-981.56"/>
<polyline fill="none" stroke="black" points="1120.88,-981.56 1114.88,-981.56"/>
<text text-anchor="middle" x="1075" y="-964.51" font-family="Times,serif" font-size="14.00">bullcity.social</text>
</g>
<!-- resolve_dns&#45;&gt;bullcitysocial_dns -->
<g id="edge5" class="edge">
<title>resolve_dns&#45;&gt;bullcitysocial_dns</title>
<path fill="none" stroke="black" stroke-dasharray="1,5" d="M1178.12,-1092.85C1177.39,-1070.31 1172.93,-1030.71 1152,-1005.56 1146.32,-998.74 1139.03,-993.18 1131.2,-988.68"/>
<polygon fill="black" stroke="black" points="1132.93,-985.64 1122.43,-984.21 1129.75,-991.87 1132.93,-985.64"/>
</g>
<!-- jonlineio_dns&#45;&gt;jbl -->
<g id="edge6" class="edge">
<title>jonlineio_dns&#45;&gt;jbl</title>
<path fill="none" stroke="black" stroke-dasharray="1,5" d="M1168.99,-951.39C1163.45,-927.65 1153.06,-883.1 1143.55,-842.35"/>
<polygon fill="black" stroke="black" points="1146.99,-841.68 1141.31,-832.73 1140.17,-843.27 1146.99,-841.68"/>
</g>
<!-- oakcitysocial_dns&#45;&gt;jbl -->
<g id="edge7" class="edge">
<title>oakcitysocial_dns&#45;&gt;jbl</title>
<path fill="none" stroke="black" stroke-dasharray="1,5" d="M1258.22,-951.39C1241.56,-927.11 1209.97,-881.07 1181.52,-839.58"/>
<polygon fill="black" stroke="black" points="1184.52,-837.78 1175.98,-831.51 1178.75,-841.74 1184.52,-837.78"/>
</g>
<!-- bullcitysocial_dns&#45;&gt;jbl -->
<g id="edge8" class="edge">
<title>bullcitysocial_dns&#45;&gt;jbl</title>
<path fill="none" stroke="black" stroke-dasharray="1,5" d="M1078.85,-951.39C1084.17,-927.65 1094.14,-883.1 1103.27,-842.35"/>
<polygon fill="black" stroke="black" points="1106.66,-843.26 1105.43,-832.74 1099.82,-841.73 1106.66,-843.26"/>
</g>
<!-- configuration -->
<g id="node7" class="node">
<title>configuration</title>
<polygon fill="#c1b2ff" stroke="#c1b2ff" points="1502,-638.5 1258,-638.5 1258,-528.5 1502,-528.5 1502,-638.5"/>
<polygon fill="none" stroke="#c1b2ff" points="1269,-609 1269,-631.5 1491,-631.5 1491,-609 1269,-609"/>
<text text-anchor="start" x="1325.25" y="-616.2" font-family="Times,serif" font-weight="bold" font-size="14.00">JBL Configuration</text>
<polygon fill="none" stroke="#c1b2ff" points="1269,-584.5 1269,-607 1491,-607 1491,-584.5 1269,-584.5"/>
<text text-anchor="start" x="1331.25" y="-590.7" font-family="Times,serif" font-size="14.00">(K8s ConfigMap)</text>
<polygon fill="none" stroke="#c1b2ff" points="1269,-560 1269,-582.5 1491,-582.5 1491,-560 1269,-560"/>
<text text-anchor="start" x="1272.38" y="-566.2" font-family="Times,serif" font-size="14.00">Maps domain name &#45;&gt; K8s namespace</text>
<polygon fill="none" stroke="#c1b2ff" points="1269,-535.5 1269,-558 1491,-558 1491,-535.5 1269,-535.5"/>
<text text-anchor="start" x="1272" y="-541.7" font-family="Times,serif" font-size="14.00">Configurable with deploys/jbl/Makefile</text>
<polygon fill="none" stroke="#c1b2ff" points="1266,-532.5 1266,-634.5 1494,-634.5 1494,-532.5 1266,-532.5"/>
</g>
<!-- resolve_namespace -->
<g id="node8" class="node">
<title>resolve_namespace</title>
<polygon fill="white" stroke="white" points="1508.96,-491.5 894.98,-491.5 737.04,-455.5 1351.02,-455.5 1508.96,-491.5"/>
<text text-anchor="middle" x="1123" y="-468.45" font-family="Times,serif" font-size="14.00">Resolve Namespace from Host Header based on JBL Configuration</text>
</g>
<!-- configuration&#45;&gt;resolve_namespace -->
<g id="edge9" class="edge">
<title>configuration&#45;&gt;resolve_namespace</title>
<path fill="none" stroke="black" stroke-width="2" d="M1257.52,-531.03C1228.48,-518.83 1199.04,-506.45 1175.13,-496.4"/>
<polygon fill="black" stroke="black" stroke-width="2" points="1177.92,-493.78 1167.34,-493.13 1175.2,-500.23 1177.92,-493.78"/>
</g>
<!-- jonlineio -->
<g id="node10" class="node">
<title>jonlineio</title>
<polygon fill="white" stroke="white" points="925.88,-371.25 864.12,-371.25 864.12,-335.25 931.88,-335.25 931.88,-365.25 925.88,-371.25"/>
<polyline fill="none" stroke="white" points="925.88,-371.25 925.88,-365.25"/>
<polyline fill="none" stroke="white" points="931.88,-365.25 925.88,-365.25"/>
<text text-anchor="middle" x="898" y="-348.2" font-family="Times,serif" font-size="14.00">jonline.io</text>
</g>
<!-- resolve_namespace&#45;&gt;jonlineio -->
<g id="edge12" class="edge">
<title>resolve_namespace&#45;&gt;jonlineio</title>
<path fill="none" stroke="black" stroke-dasharray="1,5" d="M1084.25,-455.19C1067.16,-447.34 1046.93,-437.76 1029,-428.5 997.63,-412.3 962.89,-392.52 937.08,-377.46"/>
<polygon fill="black" stroke="black" points="939,-374.53 928.6,-372.49 935.46,-380.56 939,-374.53"/>
</g>
<!-- oakcitysocial -->
<g id="node11" class="node">
<title>oakcitysocial</title>
<polygon fill="white" stroke="white" points="1348.12,-371.25 1263.88,-371.25 1263.88,-335.25 1354.12,-335.25 1354.12,-365.25 1348.12,-371.25"/>
<polyline fill="none" stroke="white" points="1348.12,-371.25 1348.12,-365.25"/>
<polyline fill="none" stroke="white" points="1354.12,-365.25 1348.12,-365.25"/>
<text text-anchor="middle" x="1309" y="-348.2" font-family="Times,serif" font-size="14.00">oakcity.social</text>
</g>
<!-- resolve_namespace&#45;&gt;oakcitysocial -->
<g id="edge13" class="edge">
<title>resolve_namespace&#45;&gt;oakcitysocial</title>
<path fill="none" stroke="black" stroke-dasharray="1,5" d="M1150.44,-455.05C1182.68,-434.56 1236.3,-400.47 1272.14,-377.68"/>
<polygon fill="black" stroke="black" points="1273.91,-380.71 1280.47,-372.39 1270.15,-374.8 1273.91,-380.71"/>
</g>
<!-- bullcitysocial -->
<g id="node12" class="node">
<title>bullcitysocial</title>
<polygon fill="white" stroke="white" points="1123.88,-371.25 1038.12,-371.25 1038.12,-335.25 1129.88,-335.25 1129.88,-365.25 1123.88,-371.25"/>
<polyline fill="none" stroke="white" points="1123.88,-371.25 1123.88,-365.25"/>
<polyline fill="none" stroke="white" points="1129.88,-365.25 1123.88,-365.25"/>
<text text-anchor="middle" x="1084" y="-348.2" font-family="Times,serif" font-size="14.00">bullcity.social</text>
</g>
<!-- resolve_namespace&#45;&gt;bullcitysocial -->
<g id="edge14" class="edge">
<title>resolve_namespace&#45;&gt;bullcitysocial</title>
<path fill="none" stroke="black" stroke-dasharray="1,5" d="M1117.25,-455.05C1110.93,-435.9 1100.7,-404.89 1093.26,-382.31"/>
<polygon fill="black" stroke="black" points="1096.58,-381.22 1090.13,-372.82 1089.93,-383.42 1096.58,-381.22"/>
</g>
<!-- parse_host&#45;&gt;resolve_namespace -->
<g id="edge11" class="edge">
<title>parse_host&#45;&gt;resolve_namespace</title>
<path fill="none" stroke="black" d="M1123,-565.15C1123,-548.46 1123,-522.92 1123,-503.2"/>
<polygon fill="black" stroke="black" points="1126.5,-503.32 1123,-493.32 1119.5,-503.32 1126.5,-503.32"/>
</g>
<!-- certs -->
<g id="node13" class="node">
<title>certs</title>
<polygon fill="#c1b2ff" stroke="#c1b2ff" points="713,-396 469,-396 469,-310.5 713,-310.5 713,-396"/>
<polygon fill="none" stroke="#c1b2ff" points="480,-366.5 480,-389 702,-389 702,-366.5 480,-366.5"/>
<text text-anchor="start" x="509.25" y="-373.7" font-family="Times,serif" font-weight="bold" font-size="14.00">TLS/SSL Cert Management</text>
<polygon fill="none" stroke="#c1b2ff" points="480,-342 480,-364.5 702,-364.5 702,-342 480,-342"/>
<text text-anchor="start" x="490.88" y="-348.2" font-family="Times,serif" font-size="14.00">(K8s ClusterRoles and RoleBinding)</text>
<polygon fill="none" stroke="#c1b2ff" points="480,-317.5 480,-340 702,-340 702,-317.5 480,-317.5"/>
<text text-anchor="start" x="483" y="-323.7" font-family="Times,serif" font-size="14.00">Configurable with deploys/jbl/Makefile</text>
<polygon fill="none" stroke="#c1b2ff" points="477,-314.5 477,-392 705,-392 705,-314.5 477,-314.5"/>
</g>
<!-- parse_host&#45;&gt;certs -->
<g id="edge18" class="edge">
<title>parse_host&#45;&gt;certs</title>
<path fill="none" stroke="black" d="M1016.65,-574.14C933.69,-563.92 817.85,-541.33 728,-491.5 689.28,-470.02 654.18,-434.39 629.21,-404.81"/>
<polygon fill="black" stroke="black" points="632.16,-402.88 623.08,-397.42 626.77,-407.35 632.16,-402.88"/>
</g>
<!-- jonline0 -->
<g id="node14" class="node">
<title>jonline0</title>
<ellipse fill="white" stroke="white" cx="429" cy="-159.5" rx="80.26" ry="43.13"/>
<polygon fill="none" stroke="white" points="383.25,-160.5 383.25,-183 474.75,-183 474.75,-160.5 383.25,-160.5"/>
<text text-anchor="start" x="409.12" y="-167.7" font-family="Times,serif" font-weight="bold" font-size="14.00">jonline</text>
<polygon fill="none" stroke="white" points="383.25,-136 383.25,-158.5 474.75,-158.5 474.75,-136 383.25,-136"/>
<text text-anchor="start" x="386.25" y="-142.2" font-family="Times,serif" font-size="14.00">(K8s ClusterIP)</text>
<polygon fill="none" stroke="white" points="380.25,-133 380.25,-186 477.75,-186 477.75,-133 380.25,-133"/>
</g>
<!-- jonlineio&#45;&gt;jonline0 -->
<g id="edge17" class="edge">
<title>jonlineio&#45;&gt;jonline0</title>
<path fill="none" stroke="black" d="M863.67,-340.31C829.09,-328.78 773.98,-311.74 725,-302.5 680.26,-294.06 560.72,-305.76 521,-283.5 492.02,-267.26 469.45,-237.7 453.93,-211.62"/>
<polygon fill="black" stroke="black" points="457.08,-210.09 449.08,-203.15 451.01,-213.57 457.08,-210.09"/>
</g>
<!-- jonline1 -->
<g id="node18" class="node">
<title>jonline1</title>
<ellipse fill="white" stroke="white" cx="1463" cy="-159.5" rx="80.26" ry="43.13"/>
<polygon fill="none" stroke="white" points="1417.25,-160.5 1417.25,-183 1508.75,-183 1508.75,-160.5 1417.25,-160.5"/>
<text text-anchor="start" x="1443.12" y="-167.7" font-family="Times,serif" font-weight="bold" font-size="14.00">jonline</text>
<polygon fill="none" stroke="white" points="1417.25,-136 1417.25,-158.5 1508.75,-158.5 1508.75,-136 1417.25,-136"/>
<text text-anchor="start" x="1420.25" y="-142.2" font-family="Times,serif" font-size="14.00">(K8s ClusterIP)</text>
<polygon fill="none" stroke="white" points="1414.25,-133 1414.25,-186 1511.75,-186 1511.75,-133 1414.25,-133"/>
</g>
<!-- oakcitysocial&#45;&gt;jonline1 -->
<g id="edge21" class="edge">
<title>oakcitysocial&#45;&gt;jonline1</title>
<path fill="none" stroke="black" d="M1326.17,-334.96C1339.41,-321.36 1357.94,-301.73 1373,-283.5 1392.48,-259.93 1412.72,-232.57 1429.05,-209.65"/>
<polygon fill="black" stroke="black" points="1431.77,-211.87 1434.7,-201.68 1426.06,-207.82 1431.77,-211.87"/>
</g>
<!-- jonline2 -->
<g id="node22" class="node">
<title>jonline2</title>
<ellipse fill="white" stroke="white" cx="946" cy="-159.5" rx="80.26" ry="43.13"/>
<polygon fill="none" stroke="white" points="900.25,-160.5 900.25,-183 991.75,-183 991.75,-160.5 900.25,-160.5"/>
<text text-anchor="start" x="926.12" y="-167.7" font-family="Times,serif" font-weight="bold" font-size="14.00">jonline</text>
<polygon fill="none" stroke="white" points="900.25,-136 900.25,-158.5 991.75,-158.5 991.75,-136 900.25,-136"/>
<text text-anchor="start" x="903.25" y="-142.2" font-family="Times,serif" font-size="14.00">(K8s ClusterIP)</text>
<polygon fill="none" stroke="white" points="897.25,-133 897.25,-186 994.75,-186 994.75,-133 897.25,-133"/>
</g>
<!-- bullcitysocial&#45;&gt;jonline2 -->
<g id="edge24" class="edge">
<title>bullcitysocial&#45;&gt;jonline2</title>
<path fill="none" stroke="black" d="M1071.51,-334.9C1051.32,-306.84 1010.8,-250.53 981.24,-209.46"/>
<polygon fill="black" stroke="black" points="984.11,-207.47 975.43,-201.39 978.43,-211.55 984.11,-207.47"/>
</g>
<!-- tls0 -->
<g id="node17" class="node">
<title>tls0</title>
<polygon fill="#c1b2ff" stroke="#c1b2ff" points="330.25,-214.5 15.75,-214.5 15.75,-104.5 330.25,-104.5 330.25,-214.5"/>
<polygon fill="none" stroke="#c1b2ff" points="26.75,-185 26.75,-207.5 319.25,-207.5 319.25,-185 26.75,-185"/>
<text text-anchor="start" x="145.62" y="-191.2" font-family="Times,serif" font-size="14.00">jonline&#45;tls</text>
<polygon fill="none" stroke="#c1b2ff" points="26.75,-160.5 26.75,-183 319.25,-183 319.25,-160.5 26.75,-160.5"/>
<text text-anchor="start" x="138.88" y="-166.7" font-family="Times,serif" font-size="14.00">(K8s Secret)</text>
<polygon fill="none" stroke="#c1b2ff" points="26.75,-136 26.75,-158.5 319.25,-158.5 319.25,-136 26.75,-136"/>
<text text-anchor="start" x="29.75" y="-142.2" font-family="Times,serif" font-size="14.00">Configurable with deploys/generated_certs/Makefile</text>
<polygon fill="none" stroke="#c1b2ff" points="26.75,-111.5 26.75,-134 319.25,-134 319.25,-111.5 26.75,-111.5"/>
<text text-anchor="start" x="53.75" y="-118.7" font-family="Times,serif" font-size="14.00">Lightweight integration with </text>
<text text-anchor="start" x="213.5" y="-118.7" font-family="Times,serif" font-style="italic" font-size="14.00">Cert&#45;Manager</text>
<polygon fill="none" stroke="#c1b2ff" points="23.75,-108.5 23.75,-210.5 322.25,-210.5 322.25,-108.5 23.75,-108.5"/>
</g>
<!-- certs&#45;&gt;tls0 -->
<g id="edge25" class="edge">
<title>certs&#45;&gt;tls0</title>
<path fill="none" stroke="black" d="M468.68,-328.31C426.68,-317.62 380.15,-302.95 340,-283.5 306.37,-267.21 272.57,-243.92 244.25,-221.97"/>
<polygon fill="black" stroke="black" points="246.48,-219.27 236.45,-215.84 242.15,-224.77 246.48,-219.27"/>
</g>
<!-- tls1 -->
<g id="node21" class="node">
<title>tls1</title>
<polygon fill="#c1b2ff" stroke="#c1b2ff" points="1364.25,-214.5 1049.75,-214.5 1049.75,-104.5 1364.25,-104.5 1364.25,-214.5"/>
<polygon fill="none" stroke="#c1b2ff" points="1060.75,-185 1060.75,-207.5 1353.25,-207.5 1353.25,-185 1060.75,-185"/>
<text text-anchor="start" x="1179.62" y="-191.2" font-family="Times,serif" font-size="14.00">jonline&#45;tls</text>
<polygon fill="none" stroke="#c1b2ff" points="1060.75,-160.5 1060.75,-183 1353.25,-183 1353.25,-160.5 1060.75,-160.5"/>
<text text-anchor="start" x="1172.88" y="-166.7" font-family="Times,serif" font-size="14.00">(K8s Secret)</text>
<polygon fill="none" stroke="#c1b2ff" points="1060.75,-136 1060.75,-158.5 1353.25,-158.5 1353.25,-136 1060.75,-136"/>
<text text-anchor="start" x="1063.75" y="-142.2" font-family="Times,serif" font-size="14.00">Configurable with deploys/generated_certs/Makefile</text>
<polygon fill="none" stroke="#c1b2ff" points="1060.75,-111.5 1060.75,-134 1353.25,-134 1353.25,-111.5 1060.75,-111.5"/>
<text text-anchor="start" x="1087.75" y="-118.7" font-family="Times,serif" font-size="14.00">Lightweight integration with </text>
<text text-anchor="start" x="1247.5" y="-118.7" font-family="Times,serif" font-style="italic" font-size="14.00">Cert&#45;Manager</text>
<polygon fill="none" stroke="#c1b2ff" points="1057.75,-108.5 1057.75,-210.5 1356.25,-210.5 1356.25,-108.5 1057.75,-108.5"/>
</g>
<!-- certs&#45;&gt;tls1 -->
<g id="edge26" class="edge">
<title>certs&#45;&gt;tls1</title>
<path fill="none" stroke="black" d="M695.84,-310.03C705.59,-307.11 715.41,-304.52 725,-302.5 793.18,-288.11 972.42,-307.06 1038,-283.5 1075.29,-270.1 1111.52,-245.75 1140.81,-222.23"/>
<polygon fill="black" stroke="black" points="1142.98,-224.98 1148.5,-215.93 1138.55,-219.56 1142.98,-224.98"/>
</g>
<!-- tls2 -->
<g id="node25" class="node">
<title>tls2</title>
<polygon fill="#c1b2ff" stroke="#c1b2ff" points="847.25,-214.5 532.75,-214.5 532.75,-104.5 847.25,-104.5 847.25,-214.5"/>
<polygon fill="none" stroke="#c1b2ff" points="543.75,-185 543.75,-207.5 836.25,-207.5 836.25,-185 543.75,-185"/>
<text text-anchor="start" x="662.62" y="-191.2" font-family="Times,serif" font-size="14.00">jonline&#45;tls</text>
<polygon fill="none" stroke="#c1b2ff" points="543.75,-160.5 543.75,-183 836.25,-183 836.25,-160.5 543.75,-160.5"/>
<text text-anchor="start" x="655.88" y="-166.7" font-family="Times,serif" font-size="14.00">(K8s Secret)</text>
<polygon fill="none" stroke="#c1b2ff" points="543.75,-136 543.75,-158.5 836.25,-158.5 836.25,-136 543.75,-136"/>
<text text-anchor="start" x="546.75" y="-142.2" font-family="Times,serif" font-size="14.00">Configurable with deploys/generated_certs/Makefile</text>
<polygon fill="none" stroke="#c1b2ff" points="543.75,-111.5 543.75,-134 836.25,-134 836.25,-111.5 543.75,-111.5"/>
<text text-anchor="start" x="570.75" y="-118.7" font-family="Times,serif" font-size="14.00">Lightweight integration with </text>
<text text-anchor="start" x="730.5" y="-118.7" font-family="Times,serif" font-style="italic" font-size="14.00">Cert&#45;Manager</text>
<polygon fill="none" stroke="#c1b2ff" points="540.75,-108.5 540.75,-210.5 839.25,-210.5 839.25,-108.5 540.75,-108.5"/>
</g>
<!-- certs&#45;&gt;tls2 -->
<g id="edge27" class="edge">
<title>certs&#45;&gt;tls2</title>
<path fill="none" stroke="black" d="M612.73,-310.17C625.6,-285.23 642.19,-253.11 656.69,-225.03"/>
<polygon fill="black" stroke="black" points="659.75,-226.72 661.23,-216.23 653.53,-223.51 659.75,-226.72"/>
</g>
<!-- minio0 -->
<g id="node15" class="node">
<title>minio0</title>
<path fill="white" stroke="white" d="M335,-48.73C335,-50.53 322.9,-52 308,-52 293.1,-52 281,-50.53 281,-48.73 281,-48.73 281,-19.27 281,-19.27 281,-17.47 293.1,-16 308,-16 322.9,-16 335,-17.47 335,-19.27 335,-19.27 335,-48.73 335,-48.73"/>
<path fill="none" stroke="white" d="M335,-48.73C335,-46.92 322.9,-45.45 308,-45.45 293.1,-45.45 281,-46.92 281,-48.73"/>
<text text-anchor="middle" x="308" y="-28.95" font-family="Times,serif" font-size="14.00">Minio</text>
</g>
<!-- jonline0&#45;&gt;minio0 -->
<g id="edge15" class="edge">
<title>jonline0&#45;&gt;minio0</title>
<path fill="none" stroke="black" d="M375.29,-126.98C359.37,-115.72 342.89,-101.95 330.5,-86.5 324.96,-79.59 320.52,-71.11 317.1,-63.04"/>
<polygon fill="black" stroke="black" points="320.44,-61.97 313.59,-53.88 313.9,-64.47 320.44,-61.97"/>
<text text-anchor="start" x="331" y="-74.2" font-family="Times,serif" font-size="14.00">5GB @ </text>
<text text-anchor="start" x="376.75" y="-74.2" font-family="Times,serif" font-weight="bold" font-size="14.00">50¢/mo</text>
</g>
<!-- postgres0 -->
<g id="node16" class="node">
<title>postgres0</title>
<path fill="white" stroke="white" d="M450.88,-48.73C450.88,-50.53 437.04,-52 420,-52 402.96,-52 389.12,-50.53 389.12,-48.73 389.12,-48.73 389.12,-19.27 389.12,-19.27 389.12,-17.47 402.96,-16 420,-16 437.04,-16 450.88,-17.47 450.88,-19.27 450.88,-19.27 450.88,-48.73 450.88,-48.73"/>
<path fill="none" stroke="white" d="M450.88,-48.73C450.88,-46.92 437.04,-45.45 420,-45.45 402.96,-45.45 389.12,-46.92 389.12,-48.73"/>
<text text-anchor="middle" x="420" y="-28.95" font-family="Times,serif" font-size="14.00">Postgres</text>
</g>
<!-- jonline0&#45;&gt;postgres0 -->
<g id="edge16" class="edge">
<title>jonline0&#45;&gt;postgres0</title>
<path fill="none" stroke="black" d="M425.9,-116C424.65,-98.82 423.24,-79.44 422.11,-63.94"/>
<polygon fill="black" stroke="black" points="425.6,-63.69 421.38,-53.97 418.62,-64.19 425.6,-63.69"/>
<text text-anchor="start" x="424" y="-74.2" font-family="Times,serif" font-size="14.00">1GB @ </text>
<text text-anchor="start" x="469.75" y="-74.2" font-family="Times,serif" font-weight="bold" font-size="14.00">10¢/mo</text>
</g>
<!-- minio1 -->
<g id="node19" class="node">
<title>minio1</title>
<path fill="white" stroke="white" d="M1369,-48.73C1369,-50.53 1356.9,-52 1342,-52 1327.1,-52 1315,-50.53 1315,-48.73 1315,-48.73 1315,-19.27 1315,-19.27 1315,-17.47 1327.1,-16 1342,-16 1356.9,-16 1369,-17.47 1369,-19.27 1369,-19.27 1369,-48.73 1369,-48.73"/>
<path fill="none" stroke="white" d="M1369,-48.73C1369,-46.92 1356.9,-45.45 1342,-45.45 1327.1,-45.45 1315,-46.92 1315,-48.73"/>
<text text-anchor="middle" x="1342" y="-28.95" font-family="Times,serif" font-size="14.00">Minio</text>
</g>
<!-- jonline1&#45;&gt;minio1 -->
<g id="edge19" class="edge">
<title>jonline1&#45;&gt;minio1</title>
<path fill="none" stroke="black" d="M1408.85,-127.37C1392.67,-116.09 1375.95,-102.21 1363.5,-86.5 1358.04,-79.61 1353.75,-71.13 1350.49,-63.06"/>
<polygon fill="black" stroke="black" points="1353.87,-62.12 1347.17,-53.91 1347.29,-64.5 1353.87,-62.12"/>
<text text-anchor="start" x="1363" y="-74.2" font-family="Times,serif" font-size="14.00">5GB @ </text>
<text text-anchor="start" x="1408.75" y="-74.2" font-family="Times,serif" font-weight="bold" font-size="14.00">50¢/mo</text>
</g>
<!-- postgres1 -->
<g id="node20" class="node">
<title>postgres1</title>
<path fill="white" stroke="white" d="M1484.88,-48.73C1484.88,-50.53 1471.04,-52 1454,-52 1436.96,-52 1423.12,-50.53 1423.12,-48.73 1423.12,-48.73 1423.12,-19.27 1423.12,-19.27 1423.12,-17.47 1436.96,-16 1454,-16 1471.04,-16 1484.88,-17.47 1484.88,-19.27 1484.88,-19.27 1484.88,-48.73 1484.88,-48.73"/>
<path fill="none" stroke="white" d="M1484.88,-48.73C1484.88,-46.92 1471.04,-45.45 1454,-45.45 1436.96,-45.45 1423.12,-46.92 1423.12,-48.73"/>
<text text-anchor="middle" x="1454" y="-28.95" font-family="Times,serif" font-size="14.00">Postgres</text>
</g>
<!-- jonline1&#45;&gt;postgres1 -->
<g id="edge20" class="edge">
<title>jonline1&#45;&gt;postgres1</title>
<path fill="none" stroke="black" d="M1459.9,-116C1458.65,-98.82 1457.24,-79.44 1456.11,-63.94"/>
<polygon fill="black" stroke="black" points="1459.6,-63.69 1455.38,-53.97 1452.62,-64.19 1459.6,-63.69"/>
<text text-anchor="start" x="1457" y="-74.2" font-family="Times,serif" font-size="14.00">1GB @ </text>
<text text-anchor="start" x="1502.75" y="-74.2" font-family="Times,serif" font-weight="bold" font-size="14.00">10¢/mo</text>
</g>
<!-- minio2 -->
<g id="node23" class="node">
<title>minio2</title>
<path fill="white" stroke="white" d="M852,-48.73C852,-50.53 839.9,-52 825,-52 810.1,-52 798,-50.53 798,-48.73 798,-48.73 798,-19.27 798,-19.27 798,-17.47 810.1,-16 825,-16 839.9,-16 852,-17.47 852,-19.27 852,-19.27 852,-48.73 852,-48.73"/>
<path fill="none" stroke="white" d="M852,-48.73C852,-46.92 839.9,-45.45 825,-45.45 810.1,-45.45 798,-46.92 798,-48.73"/>
<text text-anchor="middle" x="825" y="-28.95" font-family="Times,serif" font-size="14.00">Minio</text>
</g>
<!-- jonline2&#45;&gt;minio2 -->
<g id="edge22" class="edge">
<title>jonline2&#45;&gt;minio2</title>
<path fill="none" stroke="black" d="M891.85,-127.37C875.67,-116.09 858.95,-102.21 846.5,-86.5 841.04,-79.61 836.75,-71.13 833.49,-63.06"/>
<polygon fill="black" stroke="black" points="836.87,-62.12 830.17,-53.91 830.29,-64.5 836.87,-62.12"/>
<text text-anchor="start" x="846" y="-74.2" font-family="Times,serif" font-size="14.00">5GB @ </text>
<text text-anchor="start" x="891.75" y="-74.2" font-family="Times,serif" font-weight="bold" font-size="14.00">50¢/mo</text>
</g>
<!-- postgres2 -->
<g id="node24" class="node">
<title>postgres2</title>
<path fill="white" stroke="white" d="M967.88,-48.73C967.88,-50.53 954.04,-52 937,-52 919.96,-52 906.12,-50.53 906.12,-48.73 906.12,-48.73 906.12,-19.27 906.12,-19.27 906.12,-17.47 919.96,-16 937,-16 954.04,-16 967.88,-17.47 967.88,-19.27 967.88,-19.27 967.88,-48.73 967.88,-48.73"/>
<path fill="none" stroke="white" d="M967.88,-48.73C967.88,-46.92 954.04,-45.45 937,-45.45 919.96,-45.45 906.12,-46.92 906.12,-48.73"/>
<text text-anchor="middle" x="937" y="-28.95" font-family="Times,serif" font-size="14.00">Postgres</text>
</g>
<!-- jonline2&#45;&gt;postgres2 -->
<g id="edge23" class="edge">
<title>jonline2&#45;&gt;postgres2</title>
<path fill="none" stroke="black" d="M942.9,-116C941.65,-98.82 940.24,-79.44 939.11,-63.94"/>
<polygon fill="black" stroke="black" points="942.6,-63.69 938.38,-53.97 935.62,-64.19 942.6,-63.69"/>
<text text-anchor="start" x="940" y="-74.2" font-family="Times,serif" font-size="14.00">1GB @ </text>
<text text-anchor="start" x="985.75" y="-74.2" font-family="Times,serif" font-weight="bold" font-size="14.00">10¢/mo</text>
</g>
</g>
</svg>
