<?xml version="1.0" encoding="UTF-8" standalone="no"?>
<!DOCTYPE svg PUBLIC "-//W3C//DTD SVG 1.1//EN"
 "http://www.w3.org/Graphics/SVG/1.1/DTD/svg11.dtd">
<!-- Generated by graphviz version 12.2.1 (20241206.2353)
 -->
<!-- Title: G Pages: 1 -->
<svg width="1486pt" height="669pt"
 viewBox="0.00 0.00 1486.00 668.61" xmlns="http://www.w3.org/2000/svg" xmlns:xlink="http://www.w3.org/1999/xlink">
<g id="graph0" class="graph" transform="scale(1 1) rotate(0) translate(4 664.61)">
<title>G</title>
<polygon fill="white" stroke="none" points="-4,4 -4,-664.61 1482,-664.61 1482,4 -4,4"/>
<g id="clust1" class="cluster">
<title>cluster0</title>
<polygon fill="lightgrey" stroke="lightgrey" points="8,-8 8,-333.77 490,-333.77 490,-8 8,-8"/>
<polygon fill="none" stroke="lightgrey" points="197.25,-304.27 197.25,-326.77 300.75,-326.77 300.75,-304.27 197.25,-304.27"/>
<text text-anchor="start" x="229.12" y="-311.47" font-family="Times,serif" font-weight="bold" font-size="14.00">jonline</text>
<polygon fill="none" stroke="lightgrey" points="197.25,-279.77 197.25,-302.27 300.75,-302.27 300.75,-279.77 197.25,-279.77"/>
<text text-anchor="start" x="200.25" y="-285.97" font-family="Times,serif" font-size="14.00">(K8s Namespace)</text>
<polygon fill="none" stroke="lightgrey" points="194.25,-276.77 194.25,-329.77 303.75,-329.77 303.75,-276.77 194.25,-276.77"/>
</g>
<g id="clust2" class="cluster">
<title>cluster1</title>
<polygon fill="lightgrey" stroke="lightgrey" points="498,-8 498,-333.77 980,-333.77 980,-8 498,-8"/>
<polygon fill="none" stroke="lightgrey" points="687.25,-304.27 687.25,-326.77 790.75,-326.77 790.75,-304.27 687.25,-304.27"/>
<text text-anchor="start" x="701.88" y="-311.47" font-family="Times,serif" font-weight="bold" font-size="14.00">oakcitysocial</text>
<polygon fill="none" stroke="lightgrey" points="687.25,-279.77 687.25,-302.27 790.75,-302.27 790.75,-279.77 687.25,-279.77"/>
<text text-anchor="start" x="690.25" y="-285.97" font-family="Times,serif" font-size="14.00">(K8s Namespace)</text>
<polygon fill="none" stroke="lightgrey" points="684.25,-276.77 684.25,-329.77 793.75,-329.77 793.75,-276.77 684.25,-276.77"/>
</g>
<g id="clust3" class="cluster">
<title>cluster2</title>
<polygon fill="lightgrey" stroke="lightgrey" points="988,-8 988,-333.77 1470,-333.77 1470,-8 988,-8"/>
<polygon fill="none" stroke="lightgrey" points="1177.25,-304.27 1177.25,-326.77 1280.75,-326.77 1280.75,-304.27 1177.25,-304.27"/>
<text text-anchor="start" x="1191.12" y="-311.47" font-family="Times,serif" font-weight="bold" font-size="14.00">bullcitysocial</text>
<polygon fill="none" stroke="lightgrey" points="1177.25,-279.77 1177.25,-302.27 1280.75,-302.27 1280.75,-279.77 1177.25,-279.77"/>
<text text-anchor="start" x="1180.25" y="-285.97" font-family="Times,serif" font-size="14.00">(K8s Namespace)</text>
<polygon fill="none" stroke="lightgrey" points="1174.25,-276.77 1174.25,-329.77 1283.75,-329.77 1283.75,-276.77 1174.25,-276.77"/>
</g>
<!-- browser -->
<g id="node1" class="node">
<title>browser</title>
<ellipse fill="#c1b2ff" stroke="#c1b2ff" cx="645" cy="-591.44" rx="65.17" ry="65.17"/>
<ellipse fill="none" stroke="#c1b2ff" cx="645" cy="-591.44" rx="69.17" ry="69.17"/>
<text text-anchor="start" x="605.25" y="-587.39" font-family="Times,serif" font-weight="bold" font-size="14.00">Web Browser</text>
</g>
<!-- resolve_dns -->
<g id="node2" class="node">
<title>resolve_dns</title>
<polygon fill="none" stroke="black" points="733.8,-485.27 592.54,-485.27 556.2,-449.27 697.46,-449.27 733.8,-485.27"/>
<text text-anchor="middle" x="645" y="-462.22" font-family="Times,serif" font-size="14.00">DNS Lookup</text>
</g>
<!-- browser&#45;&gt;resolve_dns -->
<g id="edge1" class="edge">
<title>browser&#45;&gt;resolve_dns</title>
<path fill="none" stroke="black" stroke-width="2" d="M645,-521.85C645,-513.11 645,-504.57 645,-496.97"/>
<polygon fill="black" stroke="black" stroke-width="2" points="648.5,-498.58 645,-488.58 641.5,-498.58 648.5,-498.58"/>
</g>
<!-- jonlineio -->
<g id="node3" class="node">
<title>jonlineio</title>
<polygon fill="none" stroke="black" points="482.88,-412.27 421.12,-412.27 421.12,-376.27 488.88,-376.27 488.88,-406.27 482.88,-412.27"/>
<polyline fill="none" stroke="black" points="482.88,-412.27 482.88,-406.27"/>
<polyline fill="none" stroke="black" points="488.88,-406.27 482.88,-406.27"/>
<text text-anchor="middle" x="455" y="-389.22" font-family="Times,serif" font-size="14.00">jonline.io</text>
</g>
<!-- resolve_dns&#45;&gt;jonlineio -->
<g id="edge2" class="edge">
<title>resolve_dns&#45;&gt;jonlineio</title>
<path fill="none" stroke="black" stroke-dasharray="1,5" d="M598.52,-448.9C568.38,-437.64 529.34,-423.05 499.59,-411.93"/>
<polygon fill="black" stroke="black" points="501.09,-408.75 490.5,-408.53 498.64,-415.31 501.09,-408.75"/>
</g>
<!-- oakcitysocial -->
<g id="node4" class="node">
<title>oakcitysocial</title>
<polygon fill="none" stroke="black" points="684.12,-412.27 599.88,-412.27 599.88,-376.27 690.12,-376.27 690.12,-406.27 684.12,-412.27"/>
<polyline fill="none" stroke="black" points="684.12,-412.27 684.12,-406.27"/>
<polyline fill="none" stroke="black" points="690.12,-406.27 684.12,-406.27"/>
<text text-anchor="middle" x="645" y="-389.22" font-family="Times,serif" font-size="14.00">oakcity.social</text>
</g>
<!-- resolve_dns&#45;&gt;oakcitysocial -->
<g id="edge3" class="edge">
<title>resolve_dns&#45;&gt;oakcitysocial</title>
<path fill="none" stroke="black" stroke-dasharray="1,5" d="M645,-449.08C645,-441.49 645,-432.37 645,-423.81"/>
<polygon fill="black" stroke="black" points="648.5,-423.81 645,-413.81 641.5,-423.81 648.5,-423.81"/>
</g>
<!-- bullcitysocial -->
<g id="node5" class="node">
<title>bullcitysocial</title>
<polygon fill="none" stroke="black" points="971.88,-412.27 886.12,-412.27 886.12,-376.27 977.88,-376.27 977.88,-406.27 971.88,-412.27"/>
<polyline fill="none" stroke="black" points="971.88,-412.27 971.88,-406.27"/>
<polyline fill="none" stroke="black" points="977.88,-406.27 971.88,-406.27"/>
<text text-anchor="middle" x="932" y="-389.22" font-family="Times,serif" font-size="14.00">bullcity.social</text>
</g>
<!-- resolve_dns&#45;&gt;bullcitysocial -->
<g id="edge4" class="edge">
<title>resolve_dns&#45;&gt;bullcitysocial</title>
<path fill="none" stroke="black" stroke-dasharray="1,5" d="M701.02,-452.41C751.22,-439.99 824.51,-421.86 875.01,-409.37"/>
<polygon fill="black" stroke="black" points="875.72,-412.8 884.58,-407 874.04,-406 875.72,-412.8"/>
</g>
<!-- jonline0 -->
<g id="node6" class="node">
<title>jonline0</title>
<ellipse fill="white" stroke="white" cx="221" cy="-221.63" rx="97.76" ry="43.13"/>
<polygon fill="none" stroke="white" points="162.88,-222.63 162.88,-245.13 279.12,-245.13 279.12,-222.63 162.88,-222.63"/>
<text text-anchor="start" x="201.12" y="-229.83" font-family="Times,serif" font-weight="bold" font-size="14.00">jonline</text>
<polygon fill="none" stroke="white" points="162.88,-198.13 162.88,-220.63 279.12,-220.63 279.12,-198.13 162.88,-198.13"/>
<text text-anchor="start" x="165.88" y="-204.33" font-family="Times,serif" font-size="14.00">(K8s LoadBalancer)</text>
<polygon fill="none" stroke="white" points="159.88,-195.13 159.88,-248.13 282.12,-248.13 282.12,-195.13 159.88,-195.13"/>
</g>
<!-- jonlineio&#45;&gt;jonline0 -->
<g id="edge8" class="edge">
<title>jonlineio&#45;&gt;jonline0</title>
<path fill="none" stroke="black" d="M431.28,-375.97C396.13,-350.34 329.11,-301.47 280.15,-265.77"/>
<polygon fill="black" stroke="black" points="282.29,-262.99 272.15,-259.93 278.16,-268.65 282.29,-262.99"/>
<text text-anchor="start" x="404.46" y="-345.97" font-family="Times,serif" font-weight="bold" font-size="14.00">$12/mo</text>
</g>
<!-- jonline1 -->
<g id="node10" class="node">
<title>jonline1</title>
<ellipse fill="white" stroke="white" cx="645" cy="-221.63" rx="97.76" ry="43.13"/>
<polygon fill="none" stroke="white" points="586.88,-222.63 586.88,-245.13 703.12,-245.13 703.12,-222.63 586.88,-222.63"/>
<text text-anchor="start" x="625.12" y="-229.83" font-family="Times,serif" font-weight="bold" font-size="14.00">jonline</text>
<polygon fill="none" stroke="white" points="586.88,-198.13 586.88,-220.63 703.12,-220.63 703.12,-198.13 586.88,-198.13"/>
<text text-anchor="start" x="589.88" y="-204.33" font-family="Times,serif" font-size="14.00">(K8s LoadBalancer)</text>
<polygon fill="none" stroke="white" points="583.88,-195.13 583.88,-248.13 706.12,-248.13 706.12,-195.13 583.88,-195.13"/>
</g>
<!-- oakcitysocial&#45;&gt;jonline1 -->
<g id="edge12" class="edge">
<title>oakcitysocial&#45;&gt;jonline1</title>
<path fill="none" stroke="black" d="M645,-375.97C645,-352.83 645,-310.74 645,-276.51"/>
<polygon fill="black" stroke="black" points="648.5,-276.75 645,-266.75 641.5,-276.75 648.5,-276.75"/>
<text text-anchor="start" x="645" y="-345.97" font-family="Times,serif" font-weight="bold" font-size="14.00">$12/mo</text>
</g>
<!-- jonline2 -->
<g id="node14" class="node">
<title>jonline2</title>
<ellipse fill="white" stroke="white" cx="1110" cy="-221.63" rx="97.76" ry="43.13"/>
<polygon fill="none" stroke="white" points="1051.88,-222.63 1051.88,-245.13 1168.12,-245.13 1168.12,-222.63 1051.88,-222.63"/>
<text text-anchor="start" x="1090.12" y="-229.83" font-family="Times,serif" font-weight="bold" font-size="14.00">jonline</text>
<polygon fill="none" stroke="white" points="1051.88,-198.13 1051.88,-220.63 1168.12,-220.63 1168.12,-198.13 1051.88,-198.13"/>
<text text-anchor="start" x="1054.88" y="-204.33" font-family="Times,serif" font-size="14.00">(K8s LoadBalancer)</text>
<polygon fill="none" stroke="white" points="1048.88,-195.13 1048.88,-248.13 1171.12,-248.13 1171.12,-195.13 1048.88,-195.13"/>
</g>
<!-- bullcitysocial&#45;&gt;jonline2 -->
<g id="edge16" class="edge">
<title>bullcitysocial&#45;&gt;jonline2</title>
<path fill="none" stroke="black" d="M950.05,-375.97C976.01,-351.08 1024.84,-304.27 1061.75,-268.89"/>
<polygon fill="black" stroke="black" points="1064.01,-271.56 1068.81,-262.12 1059.17,-266.51 1064.01,-271.56"/>
<text text-anchor="start" x="984.6" y="-345.97" font-family="Times,serif" font-weight="bold" font-size="14.00">$12/mo</text>
</g>
<!-- minio0 -->
<g id="node7" class="node">
<title>minio0</title>
<path fill="white" stroke="white" d="M70,-85.73C70,-87.53 57.9,-89 43,-89 28.1,-89 16,-87.53 16,-85.73 16,-85.73 16,-56.27 16,-56.27 16,-54.47 28.1,-53 43,-53 57.9,-53 70,-54.47 70,-56.27 70,-56.27 70,-85.73 70,-85.73"/>
<path fill="none" stroke="white" d="M70,-85.73C70,-83.92 57.9,-82.45 43,-82.45 28.1,-82.45 16,-83.92 16,-85.73"/>
<text text-anchor="middle" x="43" y="-65.95" font-family="Times,serif" font-size="14.00">Minio</text>
</g>
<!-- jonline0&#45;&gt;minio0 -->
<g id="edge5" class="edge">
<title>jonline0&#45;&gt;minio0</title>
<path fill="none" stroke="black" d="M137.78,-198.77C115.99,-189.8 94,-177.42 77.5,-160.5 61.48,-144.07 52.68,-119.36 47.99,-100.22"/>
<polygon fill="black" stroke="black" points="51.45,-99.65 45.89,-90.63 44.61,-101.15 51.45,-99.65"/>
<text text-anchor="start" x="77.5" y="-148.2" font-family="Times,serif" font-size="14.00">5GB @ </text>
<text text-anchor="start" x="123.25" y="-148.2" font-family="Times,serif" font-weight="bold" font-size="14.00">50¢/mo</text>
</g>
<!-- postgres0 -->
<g id="node8" class="node">
<title>postgres0</title>
<path fill="white" stroke="white" d="M149.88,-85.73C149.88,-87.53 136.04,-89 119,-89 101.96,-89 88.12,-87.53 88.12,-85.73 88.12,-85.73 88.12,-56.27 88.12,-56.27 88.12,-54.47 101.96,-53 119,-53 136.04,-53 149.88,-54.47 149.88,-56.27 149.88,-56.27 149.88,-85.73 149.88,-85.73"/>
<path fill="none" stroke="white" d="M149.88,-85.73C149.88,-83.92 136.04,-82.45 119,-82.45 101.96,-82.45 88.12,-83.92 88.12,-85.73"/>
<text text-anchor="middle" x="119" y="-65.95" font-family="Times,serif" font-size="14.00">Postgres</text>
</g>
<!-- jonline0&#45;&gt;postgres0 -->
<g id="edge6" class="edge">
<title>jonline0&#45;&gt;postgres0</title>
<path fill="none" stroke="black" d="M193.13,-180.02C175.35,-154.11 152.82,-121.28 137.28,-98.64"/>
<polygon fill="black" stroke="black" points="140.29,-96.84 131.74,-90.57 134.52,-100.8 140.29,-96.84"/>
<text text-anchor="start" x="179.14" y="-148.2" font-family="Times,serif" font-size="14.00">1GB @ </text>
<text text-anchor="start" x="224.89" y="-148.2" font-family="Times,serif" font-weight="bold" font-size="14.00">10¢/mo</text>
</g>
<!-- tls0 -->
<g id="node9" class="node">
<title>tls0</title>
<polygon fill="#c1b2ff" stroke="#c1b2ff" points="482.25,-126 167.75,-126 167.75,-16 482.25,-16 482.25,-126"/>
<polygon fill="none" stroke="#c1b2ff" points="178.75,-96.5 178.75,-119 471.25,-119 471.25,-96.5 178.75,-96.5"/>
<text text-anchor="start" x="297.62" y="-102.7" font-family="Times,serif" font-size="14.00">jonline&#45;tls</text>
<polygon fill="none" stroke="#c1b2ff" points="178.75,-72 178.75,-94.5 471.25,-94.5 471.25,-72 178.75,-72"/>
<text text-anchor="start" x="290.88" y="-78.2" font-family="Times,serif" font-size="14.00">(K8s Secret)</text>
<polygon fill="none" stroke="#c1b2ff" points="178.75,-47.5 178.75,-70 471.25,-70 471.25,-47.5 178.75,-47.5"/>
<text text-anchor="start" x="181.75" y="-53.7" font-family="Times,serif" font-size="14.00">Configurable with deploys/generated_certs/Makefile</text>
<polygon fill="none" stroke="#c1b2ff" points="178.75,-23 178.75,-45.5 471.25,-45.5 471.25,-23 178.75,-23"/>
<text text-anchor="start" x="205.75" y="-30.2" font-family="Times,serif" font-size="14.00">Lightweight integration with </text>
<text text-anchor="start" x="365.5" y="-30.2" font-family="Times,serif" font-style="italic" font-size="14.00">Cert&#45;Manager</text>
<polygon fill="none" stroke="#c1b2ff" points="175.75,-20 175.75,-122 474.25,-122 474.25,-20 175.75,-20"/>
</g>
<!-- jonline0&#45;&gt;tls0 -->
<g id="edge7" class="edge">
<title>jonline0&#45;&gt;tls0</title>
<path fill="none" stroke="black" d="M256.23,-180.93C261.7,-174.26 267.14,-167.29 272,-160.5 277.61,-152.67 283.2,-144.23 288.53,-135.77"/>
<polygon fill="black" stroke="black" points="291.34,-137.88 293.63,-127.54 285.39,-134.2 291.34,-137.88"/>
</g>
<!-- minio1 -->
<g id="node11" class="node">
<title>minio1</title>
<path fill="white" stroke="white" d="M560,-85.73C560,-87.53 547.9,-89 533,-89 518.1,-89 506,-87.53 506,-85.73 506,-85.73 506,-56.27 506,-56.27 506,-54.47 518.1,-53 533,-53 547.9,-53 560,-54.47 560,-56.27 560,-56.27 560,-85.73 560,-85.73"/>
<path fill="none" stroke="white" d="M560,-85.73C560,-83.92 547.9,-82.45 533,-82.45 518.1,-82.45 506,-83.92 506,-85.73"/>
<text text-anchor="middle" x="533" y="-65.95" font-family="Times,serif" font-size="14.00">Minio</text>
</g>
<!-- jonline1&#45;&gt;minio1 -->
<g id="edge9" class="edge">
<title>jonline1&#45;&gt;minio1</title>
<path fill="none" stroke="black" d="M569.84,-193.8C555.81,-185.33 542.93,-174.42 534.5,-160.5 523.72,-142.71 523.92,-118.99 526.5,-100.59"/>
<polygon fill="black" stroke="black" points="529.93,-101.32 528.19,-90.87 523.03,-100.12 529.93,-101.32"/>
<text text-anchor="start" x="534.5" y="-148.2" font-family="Times,serif" font-size="14.00">5GB @ </text>
<text text-anchor="start" x="580.25" y="-148.2" font-family="Times,serif" font-weight="bold" font-size="14.00">50¢/mo</text>
</g>
<!-- postgres1 -->
<g id="node12" class="node">
<title>postgres1</title>
<path fill="white" stroke="white" d="M639.88,-85.73C639.88,-87.53 626.04,-89 609,-89 591.96,-89 578.12,-87.53 578.12,-85.73 578.12,-85.73 578.12,-56.27 578.12,-56.27 578.12,-54.47 591.96,-53 609,-53 626.04,-53 639.88,-54.47 639.88,-56.27 639.88,-56.27 639.88,-85.73 639.88,-85.73"/>
<path fill="none" stroke="white" d="M639.88,-85.73C639.88,-83.92 626.04,-82.45 609,-82.45 591.96,-82.45 578.12,-83.92 578.12,-85.73"/>
<text text-anchor="middle" x="609" y="-65.95" font-family="Times,serif" font-size="14.00">Postgres</text>
</g>
<!-- jonline1&#45;&gt;postgres1 -->
<g id="edge10" class="edge">
<title>jonline1&#45;&gt;postgres1</title>
<path fill="none" stroke="black" d="M634.78,-178.44C628.72,-153.41 621.2,-122.37 615.85,-100.28"/>
<polygon fill="black" stroke="black" points="619.31,-99.69 613.55,-90.79 612.5,-101.34 619.31,-99.69"/>
<text text-anchor="start" x="630.22" y="-148.2" font-family="Times,serif" font-size="14.00">1GB @ </text>
<text text-anchor="start" x="675.97" y="-148.2" font-family="Times,serif" font-weight="bold" font-size="14.00">10¢/mo</text>
</g>
<!-- tls1 -->
<g id="node13" class="node">
<title>tls1</title>
<polygon fill="#c1b2ff" stroke="#c1b2ff" points="972.25,-126 657.75,-126 657.75,-16 972.25,-16 972.25,-126"/>
<polygon fill="none" stroke="#c1b2ff" points="668.75,-96.5 668.75,-119 961.25,-119 961.25,-96.5 668.75,-96.5"/>
<text text-anchor="start" x="787.62" y="-102.7" font-family="Times,serif" font-size="14.00">jonline&#45;tls</text>
<polygon fill="none" stroke="#c1b2ff" points="668.75,-72 668.75,-94.5 961.25,-94.5 961.25,-72 668.75,-72"/>
<text text-anchor="start" x="780.88" y="-78.2" font-family="Times,serif" font-size="14.00">(K8s Secret)</text>
<polygon fill="none" stroke="#c1b2ff" points="668.75,-47.5 668.75,-70 961.25,-70 961.25,-47.5 668.75,-47.5"/>
<text text-anchor="start" x="671.75" y="-53.7" font-family="Times,serif" font-size="14.00">Configurable with deploys/generated_certs/Makefile</text>
<polygon fill="none" stroke="#c1b2ff" points="668.75,-23 668.75,-45.5 961.25,-45.5 961.25,-23 668.75,-23"/>
<text text-anchor="start" x="695.75" y="-30.2" font-family="Times,serif" font-size="14.00">Lightweight integration with </text>
<text text-anchor="start" x="855.5" y="-30.2" font-family="Times,serif" font-style="italic" font-size="14.00">Cert&#45;Manager</text>
<polygon fill="none" stroke="#c1b2ff" points="665.75,-20 665.75,-122 964.25,-122 964.25,-20 665.75,-20"/>
</g>
<!-- jonline1&#45;&gt;tls1 -->
<g id="edge11" class="edge">
<title>jonline1&#45;&gt;tls1</title>
<path fill="none" stroke="black" d="M694.34,-183.91C703.99,-176.35 713.93,-168.31 723,-160.5 732.61,-152.22 742.52,-143.22 752.12,-134.23"/>
<polygon fill="black" stroke="black" points="754.49,-136.8 759.35,-127.39 749.68,-131.72 754.49,-136.8"/>
</g>
<!-- minio2 -->
<g id="node15" class="node">
<title>minio2</title>
<path fill="white" stroke="white" d="M1050,-85.73C1050,-87.53 1037.9,-89 1023,-89 1008.1,-89 996,-87.53 996,-85.73 996,-85.73 996,-56.27 996,-56.27 996,-54.47 1008.1,-53 1023,-53 1037.9,-53 1050,-54.47 1050,-56.27 1050,-56.27 1050,-85.73 1050,-85.73"/>
<path fill="none" stroke="white" d="M1050,-85.73C1050,-83.92 1037.9,-82.45 1023,-82.45 1008.1,-82.45 996,-83.92 996,-85.73"/>
<text text-anchor="middle" x="1023" y="-65.95" font-family="Times,serif" font-size="14.00">Minio</text>
</g>
<!-- jonline2&#45;&gt;minio2 -->
<g id="edge13" class="edge">
<title>jonline2&#45;&gt;minio2</title>
<path fill="none" stroke="black" d="M1042.73,-190.08C1031.8,-182.05 1021.96,-172.26 1015.5,-160.5 1005.47,-142.23 1008.12,-118.58 1012.86,-100.32"/>
<polygon fill="black" stroke="black" points="1016.16,-101.52 1015.65,-90.94 1009.45,-99.53 1016.16,-101.52"/>
<text text-anchor="start" x="1015.5" y="-148.2" font-family="Times,serif" font-size="14.00">5GB @ </text>
<text text-anchor="start" x="1061.25" y="-148.2" font-family="Times,serif" font-weight="bold" font-size="14.00">50¢/mo</text>
</g>
<!-- postgres2 -->
<g id="node16" class="node">
<title>postgres2</title>
<path fill="white" stroke="white" d="M1129.88,-85.73C1129.88,-87.53 1116.04,-89 1099,-89 1081.96,-89 1068.12,-87.53 1068.12,-85.73 1068.12,-85.73 1068.12,-56.27 1068.12,-56.27 1068.12,-54.47 1081.96,-53 1099,-53 1116.04,-53 1129.88,-54.47 1129.88,-56.27 1129.88,-56.27 1129.88,-85.73 1129.88,-85.73"/>
<path fill="none" stroke="white" d="M1129.88,-85.73C1129.88,-83.92 1116.04,-82.45 1099,-82.45 1081.96,-82.45 1068.12,-83.92 1068.12,-85.73"/>
<text text-anchor="middle" x="1099" y="-65.95" font-family="Times,serif" font-size="14.00">Postgres</text>
</g>
<!-- jonline2&#45;&gt;postgres2 -->
<g id="edge14" class="edge">
<title>jonline2&#45;&gt;postgres2</title>
<path fill="none" stroke="black" d="M1109.63,-178.03C1109.33,-166.94 1108.83,-155.02 1108,-144 1106.92,-129.67 1105.02,-113.81 1103.24,-100.64"/>
<polygon fill="black" stroke="black" points="1106.73,-100.33 1101.87,-90.91 1099.79,-101.3 1106.73,-100.33"/>
<text text-anchor="start" x="1108.9" y="-148.2" font-family="Times,serif" font-size="14.00">1GB @ </text>
<text text-anchor="start" x="1154.65" y="-148.2" font-family="Times,serif" font-weight="bold" font-size="14.00">10¢/mo</text>
</g>
<!-- tls2 -->
<g id="node17" class="node">
<title>tls2</title>
<polygon fill="#c1b2ff" stroke="#c1b2ff" points="1462.25,-126 1147.75,-126 1147.75,-16 1462.25,-16 1462.25,-126"/>
<polygon fill="none" stroke="#c1b2ff" points="1158.75,-96.5 1158.75,-119 1451.25,-119 1451.25,-96.5 1158.75,-96.5"/>
<text text-anchor="start" x="1277.62" y="-102.7" font-family="Times,serif" font-size="14.00">jonline&#45;tls</text>
<polygon fill="none" stroke="#c1b2ff" points="1158.75,-72 1158.75,-94.5 1451.25,-94.5 1451.25,-72 1158.75,-72"/>
<text text-anchor="start" x="1270.88" y="-78.2" font-family="Times,serif" font-size="14.00">(K8s Secret)</text>
<polygon fill="none" stroke="#c1b2ff" points="1158.75,-47.5 1158.75,-70 1451.25,-70 1451.25,-47.5 1158.75,-47.5"/>
<text text-anchor="start" x="1161.75" y="-53.7" font-family="Times,serif" font-size="14.00">Configurable with deploys/generated_certs/Makefile</text>
<polygon fill="none" stroke="#c1b2ff" points="1158.75,-23 1158.75,-45.5 1451.25,-45.5 1451.25,-23 1158.75,-23"/>
<text text-anchor="start" x="1185.75" y="-30.2" font-family="Times,serif" font-size="14.00">Lightweight integration with </text>
<text text-anchor="start" x="1345.5" y="-30.2" font-family="Times,serif" font-style="italic" font-size="14.00">Cert&#45;Manager</text>
<polygon fill="none" stroke="#c1b2ff" points="1155.75,-20 1155.75,-122 1454.25,-122 1454.25,-20 1155.75,-20"/>
</g>
<!-- jonline2&#45;&gt;tls2 -->
<g id="edge15" class="edge">
<title>jonline2&#45;&gt;tls2</title>
<path fill="none" stroke="black" d="M1165.12,-185.76C1177.14,-177.73 1189.65,-169.03 1201,-160.5 1212.14,-152.13 1223.65,-142.93 1234.77,-133.74"/>
<polygon fill="black" stroke="black" points="1236.99,-136.44 1242.43,-127.34 1232.51,-131.07 1236.99,-136.44"/>
</g>
</g>
</svg>
