<?xml version="1.0" encoding="UTF-8" standalone="no"?>
<!DOCTYPE svg PUBLIC "-//W3C//DTD SVG 1.1//EN"
 "http://www.w3.org/Graphics/SVG/1.1/DTD/svg11.dtd">
<!-- Generated by graphviz version 11.0.0 (20240428.1522)
 -->
<!-- Title: G Pages: 1 -->
<svg width="1486pt" height="667pt"
 viewBox="0.00 0.00 1486.00 666.61" xmlns="http://www.w3.org/2000/svg" xmlns:xlink="http://www.w3.org/1999/xlink">
<g id="graph0" class="graph" transform="scale(1 1) rotate(0) translate(4 662.61)">
<title>G</title>
<polygon fill="white" stroke="none" points="-4,4 -4,-662.61 1482,-662.61 1482,4 -4,4"/>
<g id="clust1" class="cluster">
<title>cluster0</title>
<polygon fill="lightgrey" stroke="lightgrey" points="8,-8 8,-333.77 490,-333.77 490,-8 8,-8"/>
<polygon fill="none" stroke="lightgrey" points="197.25,-304.27 197.25,-326.77 300.75,-326.77 300.75,-304.27 197.25,-304.27"/>
<text text-anchor="start" x="229.12" y="-311.47" font-family="Times,serif" font-weight="bold" font-size="14.00">jonline</text>
<polygon fill="none" stroke="lightgrey" points="197.25,-279.77 197.25,-302.27 300.75,-302.27 300.75,-279.77 197.25,-279.77"/>
<text text-anchor="start" x="200.25" y="-285.97" font-family="Times,serif" font-size="14.00">(K8s Namespace)</text>
<polygon fill="none" stroke="lightgrey" points="194.25,-276.77 194.25,-329.77 303.75,-329.77 303.75,-276.77 194.25,-276.77"/>
</g>
<g id="clust2" class="cluster">
<title>cluster1</title>
<polygon fill="lightgrey" stroke="lightgrey" points="498,-8 498,-333.77 980,-333.77 980,-8 498,-8"/>
<polygon fill="none" stroke="lightgrey" points="687.25,-304.27 687.25,-326.77 790.75,-326.77 790.75,-304.27 687.25,-304.27"/>
<text text-anchor="start" x="701.88" y="-311.47" font-family="Times,serif" font-weight="bold" font-size="14.00">oakcitysocial</text>
<polygon fill="none" stroke="lightgrey" points="687.25,-279.77 687.25,-302.27 790.75,-302.27 790.75,-279.77 687.25,-279.77"/>
<text text-anchor="start" x="690.25" y="-285.97" font-family="Times,serif" font-size="14.00">(K8s Namespace)</text>
<polygon fill="none" stroke="lightgrey" points="684.25,-276.77 684.25,-329.77 793.75,-329.77 793.75,-276.77 684.25,-276.77"/>
</g>
<g id="clust3" class="cluster">
<title>cluster2</title>
<polygon fill="lightgrey" stroke="lightgrey" points="988,-8 988,-333.77 1470,-333.77 1470,-8 988,-8"/>
<polygon fill="none" stroke="lightgrey" points="1177.25,-304.27 1177.25,-326.77 1280.75,-326.77 1280.75,-304.27 1177.25,-304.27"/>
<text text-anchor="start" x="1191.12" y="-311.47" font-family="Times,serif" font-weight="bold" font-size="14.00">bullcitysocial</text>
<polygon fill="none" stroke="lightgrey" points="1177.25,-279.77 1177.25,-302.27 1280.75,-302.27 1280.75,-279.77 1177.25,-279.77"/>
<text text-anchor="start" x="1180.25" y="-285.97" font-family="Times,serif" font-size="14.00">(K8s Namespace)</text>
<polygon fill="none" stroke="lightgrey" points="1174.25,-276.77 1174.25,-329.77 1283.75,-329.77 1283.75,-276.77 1174.25,-276.77"/>
</g>
<!-- browser -->
<g id="node1" class="node">
<title>browser</title>
<ellipse fill="#c1b2ff" stroke="#c1b2ff" cx="645" cy="-589.44" rx="65.17" ry="65.17"/>
<ellipse fill="none" stroke="#c1b2ff" cx="645" cy="-589.44" rx="69.17" ry="69.17"/>
<text text-anchor="start" x="605.25" y="-585.39" font-family="Times,serif" font-weight="bold" font-size="14.00">Web Browser</text>
</g>
<!-- resolve_dns -->
<g id="node2" class="node">
<title>resolve_dns</title>
<polygon fill="none" stroke="black" points="733.8,-484.27 592.54,-484.27 556.2,-448.27 697.46,-448.27 733.8,-484.27"/>
<text text-anchor="middle" x="645" y="-461.22" font-family="Times,serif" font-size="14.00">DNS Lookup</text>
</g>
<!-- browser&#45;&gt;resolve_dns -->
<g id="edge1" class="edge">
<title>browser&#45;&gt;resolve_dns</title>
<path fill="none" stroke="black" stroke-width="2" d="M645,-520.06C645,-511.67 645,-503.48 645,-496.15"/>
<polygon fill="black" stroke="black" stroke-width="2" points="648.5,-497.78 645,-487.78 641.5,-497.78 648.5,-497.78"/>
</g>
<!-- jonlineio -->
<g id="node3" class="node">
<title>jonlineio</title>
<polygon fill="none" stroke="black" points="481.88,-412.27 420.12,-412.27 420.12,-376.27 487.88,-376.27 487.88,-406.27 481.88,-412.27"/>
<polyline fill="none" stroke="black" points="481.88,-412.27 481.88,-406.27"/>
<polyline fill="none" stroke="black" points="487.88,-406.27 481.88,-406.27"/>
<text text-anchor="middle" x="454" y="-389.22" font-family="Times,serif" font-size="14.00">jonline.io</text>
</g>
<!-- resolve_dns&#45;&gt;jonlineio -->
<g id="edge2" class="edge">
<title>resolve_dns&#45;&gt;jonlineio</title>
<path fill="none" stroke="black" stroke-dasharray="1,5" d="M597.3,-447.78C567.08,-436.71 528.27,-422.49 498.67,-411.64"/>
<polygon fill="black" stroke="black" points="500.22,-408.48 489.63,-408.32 497.81,-415.05 500.22,-408.48"/>
</g>
<!-- oakcitysocial -->
<g id="node4" class="node">
<title>oakcitysocial</title>
<polygon fill="none" stroke="black" points="684.12,-412.27 599.88,-412.27 599.88,-376.27 690.12,-376.27 690.12,-406.27 684.12,-412.27"/>
<polyline fill="none" stroke="black" points="684.12,-412.27 684.12,-406.27"/>
<polyline fill="none" stroke="black" points="690.12,-406.27 684.12,-406.27"/>
<text text-anchor="middle" x="645" y="-389.22" font-family="Times,serif" font-size="14.00">oakcity.social</text>
</g>
<!-- resolve_dns&#45;&gt;oakcitysocial -->
<g id="edge3" class="edge">
<title>resolve_dns&#45;&gt;oakcitysocial</title>
<path fill="none" stroke="black" stroke-dasharray="1,5" d="M645,-447.96C645,-440.67 645,-431.99 645,-423.8"/>
<polygon fill="black" stroke="black" points="648.5,-423.88 645,-413.88 641.5,-423.88 648.5,-423.88"/>
</g>
<!-- bullcitysocial -->
<g id="node5" class="node">
<title>bullcitysocial</title>
<polygon fill="none" stroke="black" points="971.88,-412.27 886.12,-412.27 886.12,-376.27 977.88,-376.27 977.88,-406.27 971.88,-412.27"/>
<polyline fill="none" stroke="black" points="971.88,-412.27 971.88,-406.27"/>
<polyline fill="none" stroke="black" points="977.88,-406.27 971.88,-406.27"/>
<text text-anchor="middle" x="932" y="-389.22" font-family="Times,serif" font-size="14.00">bullcity.social</text>
</g>
<!-- resolve_dns&#45;&gt;bullcitysocial -->
<g id="edge4" class="edge">
<title>resolve_dns&#45;&gt;bullcitysocial</title>
<path fill="none" stroke="black" stroke-dasharray="1,5" d="M701.36,-451.52C751.44,-439.31 824.32,-421.53 874.69,-409.25"/>
<polygon fill="black" stroke="black" points="875.35,-412.69 884.24,-406.92 873.7,-405.89 875.35,-412.69"/>
</g>
<!-- jonline0 -->
<g id="node6" class="node">
<title>jonline0</title>
<ellipse fill="white" stroke="white" cx="217" cy="-221.63" rx="97.76" ry="43.13"/>
<polygon fill="none" stroke="white" points="158.88,-222.63 158.88,-245.13 275.12,-245.13 275.12,-222.63 158.88,-222.63"/>
<text text-anchor="start" x="197.12" y="-229.83" font-family="Times,serif" font-weight="bold" font-size="14.00">jonline</text>
<polygon fill="none" stroke="white" points="158.88,-198.13 158.88,-220.63 275.12,-220.63 275.12,-198.13 158.88,-198.13"/>
<text text-anchor="start" x="161.88" y="-204.33" font-family="Times,serif" font-size="14.00">(K8s LoadBalancer)</text>
<polygon fill="none" stroke="white" points="155.88,-195.13 155.88,-248.13 278.12,-248.13 278.12,-195.13 155.88,-195.13"/>
</g>
<!-- jonlineio&#45;&gt;jonline0 -->
<g id="edge8" class="edge">
<title>jonlineio&#45;&gt;jonline0</title>
<path fill="none" stroke="black" d="M429.97,-375.97C394.3,-350.28 326.21,-301.26 276.6,-265.54"/>
<polygon fill="black" stroke="black" points="278.95,-262.92 268.79,-259.92 274.86,-268.61 278.95,-262.92"/>
<text text-anchor="start" x="402" y="-345.97" font-family="Times,serif" font-weight="bold" font-size="14.00">$12/mo</text>
</g>
<!-- jonline1 -->
<g id="node10" class="node">
<title>jonline1</title>
<ellipse fill="white" stroke="white" cx="645" cy="-221.63" rx="97.76" ry="43.13"/>
<polygon fill="none" stroke="white" points="586.88,-222.63 586.88,-245.13 703.12,-245.13 703.12,-222.63 586.88,-222.63"/>
<text text-anchor="start" x="625.12" y="-229.83" font-family="Times,serif" font-weight="bold" font-size="14.00">jonline</text>
<polygon fill="none" stroke="white" points="586.88,-198.13 586.88,-220.63 703.12,-220.63 703.12,-198.13 586.88,-198.13"/>
<text text-anchor="start" x="589.88" y="-204.33" font-family="Times,serif" font-size="14.00">(K8s LoadBalancer)</text>
<polygon fill="none" stroke="white" points="583.88,-195.13 583.88,-248.13 706.12,-248.13 706.12,-195.13 583.88,-195.13"/>
</g>
<!-- oakcitysocial&#45;&gt;jonline1 -->
<g id="edge12" class="edge">
<title>oakcitysocial&#45;&gt;jonline1</title>
<path fill="none" stroke="black" d="M645,-375.97C645,-352.83 645,-310.74 645,-276.51"/>
<polygon fill="black" stroke="black" points="648.5,-276.75 645,-266.75 641.5,-276.75 648.5,-276.75"/>
<text text-anchor="start" x="645" y="-345.97" font-family="Times,serif" font-weight="bold" font-size="14.00">$12/mo</text>
</g>
<!-- jonline2 -->
<g id="node14" class="node">
<title>jonline2</title>
<ellipse fill="white" stroke="white" cx="1110" cy="-221.63" rx="97.76" ry="43.13"/>
<polygon fill="none" stroke="white" points="1051.88,-222.63 1051.88,-245.13 1168.12,-245.13 1168.12,-222.63 1051.88,-222.63"/>
<text text-anchor="start" x="1090.12" y="-229.83" font-family="Times,serif" font-weight="bold" font-size="14.00">jonline</text>
<polygon fill="none" stroke="white" points="1051.88,-198.13 1051.88,-220.63 1168.12,-220.63 1168.12,-198.13 1051.88,-198.13"/>
<text text-anchor="start" x="1054.88" y="-204.33" font-family="Times,serif" font-size="14.00">(K8s LoadBalancer)</text>
<polygon fill="none" stroke="white" points="1048.88,-195.13 1048.88,-248.13 1171.12,-248.13 1171.12,-195.13 1048.88,-195.13"/>
</g>
<!-- bullcitysocial&#45;&gt;jonline2 -->
<g id="edge16" class="edge">
<title>bullcitysocial&#45;&gt;jonline2</title>
<path fill="none" stroke="black" d="M950.05,-375.97C976.01,-351.08 1024.84,-304.27 1061.75,-268.89"/>
<polygon fill="black" stroke="black" points="1064.01,-271.56 1068.81,-262.12 1059.17,-266.51 1064.01,-271.56"/>
<text text-anchor="start" x="984" y="-345.97" font-family="Times,serif" font-weight="bold" font-size="14.00">$12/mo</text>
</g>
<!-- minio0 -->
<g id="node7" class="node">
<title>minio0</title>
<path fill="white" stroke="white" d="M70,-85.73C70,-87.53 57.9,-89 43,-89 28.1,-89 16,-87.53 16,-85.73 16,-85.73 16,-56.27 16,-56.27 16,-54.47 28.1,-53 43,-53 57.9,-53 70,-54.47 70,-56.27 70,-56.27 70,-85.73 70,-85.73"/>
<path fill="none" stroke="white" d="M70,-85.73C70,-83.92 57.9,-82.45 43,-82.45 28.1,-82.45 16,-83.92 16,-85.73"/>
<text text-anchor="middle" x="43" y="-65.95" font-family="Times,serif" font-size="14.00">Minio</text>
</g>
<!-- jonline0&#45;&gt;minio0 -->
<g id="edge5" class="edge">
<title>jonline0&#45;&gt;minio0</title>
<path fill="none" stroke="black" d="M133.98,-198.46C112.73,-189.52 91.41,-177.23 75.5,-160.5 59.9,-144.1 51.67,-119.59 47.4,-100.52"/>
<polygon fill="black" stroke="black" points="50.88,-100.09 45.51,-90.96 44.01,-101.44 50.88,-100.09"/>
<text text-anchor="start" x="75" y="-148.2" font-family="Times,serif" font-size="14.00">5GB @ </text>
<text text-anchor="start" x="120.75" y="-148.2" font-family="Times,serif" font-weight="bold" font-size="14.00">50¢/mo</text>
</g>
<!-- postgres0 -->
<g id="node8" class="node">
<title>postgres0</title>
<path fill="white" stroke="white" d="M149.88,-85.73C149.88,-87.53 136.04,-89 119,-89 101.96,-89 88.12,-87.53 88.12,-85.73 88.12,-85.73 88.12,-56.27 88.12,-56.27 88.12,-54.47 101.96,-53 119,-53 136.04,-53 149.88,-54.47 149.88,-56.27 149.88,-56.27 149.88,-85.73 149.88,-85.73"/>
<path fill="none" stroke="white" d="M149.88,-85.73C149.88,-83.92 136.04,-82.45 119,-82.45 101.96,-82.45 88.12,-83.92 88.12,-85.73"/>
<text text-anchor="middle" x="119" y="-65.95" font-family="Times,serif" font-size="14.00">Postgres</text>
</g>
<!-- jonline0&#45;&gt;postgres0 -->
<g id="edge6" class="edge">
<title>jonline0&#45;&gt;postgres0</title>
<path fill="none" stroke="black" d="M190.22,-180.02C173.14,-154.11 151.49,-121.28 136.57,-98.64"/>
<polygon fill="black" stroke="black" points="139.68,-97.01 131.25,-90.59 133.84,-100.86 139.68,-97.01"/>
<text text-anchor="start" x="176" y="-148.2" font-family="Times,serif" font-size="14.00">1GB @ </text>
<text text-anchor="start" x="221.75" y="-148.2" font-family="Times,serif" font-weight="bold" font-size="14.00">10¢/mo</text>
</g>
<!-- tls0 -->
<g id="node9" class="node">
<title>tls0</title>
<polygon fill="#c1b2ff" stroke="#c1b2ff" points="482.25,-126 167.75,-126 167.75,-16 482.25,-16 482.25,-126"/>
<polygon fill="none" stroke="#c1b2ff" points="178.75,-96.5 178.75,-119 471.25,-119 471.25,-96.5 178.75,-96.5"/>
<text text-anchor="start" x="297.62" y="-102.7" font-family="Times,serif" font-size="14.00">jonline&#45;tls</text>
<polygon fill="none" stroke="#c1b2ff" points="178.75,-72 178.75,-94.5 471.25,-94.5 471.25,-72 178.75,-72"/>
<text text-anchor="start" x="290.88" y="-78.2" font-family="Times,serif" font-size="14.00">(K8s Secret)</text>
<polygon fill="none" stroke="#c1b2ff" points="178.75,-47.5 178.75,-70 471.25,-70 471.25,-47.5 178.75,-47.5"/>
<text text-anchor="start" x="181.75" y="-53.7" font-family="Times,serif" font-size="14.00">Configurable with deploys/generated_certs/Makefile</text>
<polygon fill="none" stroke="#c1b2ff" points="178.75,-23 178.75,-45.5 471.25,-45.5 471.25,-23 178.75,-23"/>
<text text-anchor="start" x="205.75" y="-30.2" font-family="Times,serif" font-size="14.00">Lightweight integration with </text>
<text text-anchor="start" x="365.5" y="-30.2" font-family="Times,serif" font-style="italic" font-size="14.00">Cert&#45;Manager</text>
<polygon fill="none" stroke="#c1b2ff" points="175.75,-20 175.75,-122 474.25,-122 474.25,-20 175.75,-20"/>
</g>
<!-- jonline0&#45;&gt;tls0 -->
<g id="edge7" class="edge">
<title>jonline0&#45;&gt;tls0</title>
<path fill="none" stroke="black" d="M252.54,-181.21C258.22,-174.44 263.9,-167.37 269,-160.5 274.83,-152.65 280.68,-144.19 286.28,-135.73"/>
<polygon fill="black" stroke="black" points="289.14,-137.77 291.67,-127.48 283.27,-133.94 289.14,-137.77"/>
</g>
<!-- minio1 -->
<g id="node11" class="node">
<title>minio1</title>
<path fill="white" stroke="white" d="M560,-85.73C560,-87.53 547.9,-89 533,-89 518.1,-89 506,-87.53 506,-85.73 506,-85.73 506,-56.27 506,-56.27 506,-54.47 518.1,-53 533,-53 547.9,-53 560,-54.47 560,-56.27 560,-56.27 560,-85.73 560,-85.73"/>
<path fill="none" stroke="white" d="M560,-85.73C560,-83.92 547.9,-82.45 533,-82.45 518.1,-82.45 506,-83.92 506,-85.73"/>
<text text-anchor="middle" x="533" y="-65.95" font-family="Times,serif" font-size="14.00">Minio</text>
</g>
<!-- jonline1&#45;&gt;minio1 -->
<g id="edge9" class="edge">
<title>jonline1&#45;&gt;minio1</title>
<path fill="none" stroke="black" d="M569.84,-193.8C555.81,-185.33 542.93,-174.42 534.5,-160.5 523.72,-142.71 523.92,-118.99 526.5,-100.59"/>
<polygon fill="black" stroke="black" points="529.93,-101.32 528.19,-90.87 523.03,-100.12 529.93,-101.32"/>
<text text-anchor="start" x="534" y="-148.2" font-family="Times,serif" font-size="14.00">5GB @ </text>
<text text-anchor="start" x="579.75" y="-148.2" font-family="Times,serif" font-weight="bold" font-size="14.00">50¢/mo</text>
</g>
<!-- postgres1 -->
<g id="node12" class="node">
<title>postgres1</title>
<path fill="white" stroke="white" d="M639.88,-85.73C639.88,-87.53 626.04,-89 609,-89 591.96,-89 578.12,-87.53 578.12,-85.73 578.12,-85.73 578.12,-56.27 578.12,-56.27 578.12,-54.47 591.96,-53 609,-53 626.04,-53 639.88,-54.47 639.88,-56.27 639.88,-56.27 639.88,-85.73 639.88,-85.73"/>
<path fill="none" stroke="white" d="M639.88,-85.73C639.88,-83.92 626.04,-82.45 609,-82.45 591.96,-82.45 578.12,-83.92 578.12,-85.73"/>
<text text-anchor="middle" x="609" y="-65.95" font-family="Times,serif" font-size="14.00">Postgres</text>
</g>
<!-- jonline1&#45;&gt;postgres1 -->
<g id="edge10" class="edge">
<title>jonline1&#45;&gt;postgres1</title>
<path fill="none" stroke="black" d="M634.78,-178.44C628.72,-153.41 621.2,-122.37 615.85,-100.28"/>
<polygon fill="black" stroke="black" points="619.31,-99.69 613.55,-90.79 612.5,-101.34 619.31,-99.69"/>
<text text-anchor="start" x="630" y="-148.2" font-family="Times,serif" font-size="14.00">1GB @ </text>
<text text-anchor="start" x="675.75" y="-148.2" font-family="Times,serif" font-weight="bold" font-size="14.00">10¢/mo</text>
</g>
<!-- tls1 -->
<g id="node13" class="node">
<title>tls1</title>
<polygon fill="#c1b2ff" stroke="#c1b2ff" points="972.25,-126 657.75,-126 657.75,-16 972.25,-16 972.25,-126"/>
<polygon fill="none" stroke="#c1b2ff" points="668.75,-96.5 668.75,-119 961.25,-119 961.25,-96.5 668.75,-96.5"/>
<text text-anchor="start" x="787.62" y="-102.7" font-family="Times,serif" font-size="14.00">jonline&#45;tls</text>
<polygon fill="none" stroke="#c1b2ff" points="668.75,-72 668.75,-94.5 961.25,-94.5 961.25,-72 668.75,-72"/>
<text text-anchor="start" x="780.88" y="-78.2" font-family="Times,serif" font-size="14.00">(K8s Secret)</text>
<polygon fill="none" stroke="#c1b2ff" points="668.75,-47.5 668.75,-70 961.25,-70 961.25,-47.5 668.75,-47.5"/>
<text text-anchor="start" x="671.75" y="-53.7" font-family="Times,serif" font-size="14.00">Configurable with deploys/generated_certs/Makefile</text>
<polygon fill="none" stroke="#c1b2ff" points="668.75,-23 668.75,-45.5 961.25,-45.5 961.25,-23 668.75,-23"/>
<text text-anchor="start" x="695.75" y="-30.2" font-family="Times,serif" font-size="14.00">Lightweight integration with </text>
<text text-anchor="start" x="855.5" y="-30.2" font-family="Times,serif" font-style="italic" font-size="14.00">Cert&#45;Manager</text>
<polygon fill="none" stroke="#c1b2ff" points="665.75,-20 665.75,-122 964.25,-122 964.25,-20 665.75,-20"/>
</g>
<!-- jonline1&#45;&gt;tls1 -->
<g id="edge11" class="edge">
<title>jonline1&#45;&gt;tls1</title>
<path fill="none" stroke="black" d="M694.34,-183.91C703.99,-176.35 713.93,-168.31 723,-160.5 732.61,-152.22 742.52,-143.22 752.12,-134.23"/>
<polygon fill="black" stroke="black" points="754.49,-136.8 759.35,-127.39 749.68,-131.72 754.49,-136.8"/>
</g>
<!-- minio2 -->
<g id="node15" class="node">
<title>minio2</title>
<path fill="white" stroke="white" d="M1050,-85.73C1050,-87.53 1037.9,-89 1023,-89 1008.1,-89 996,-87.53 996,-85.73 996,-85.73 996,-56.27 996,-56.27 996,-54.47 1008.1,-53 1023,-53 1037.9,-53 1050,-54.47 1050,-56.27 1050,-56.27 1050,-85.73 1050,-85.73"/>
<path fill="none" stroke="white" d="M1050,-85.73C1050,-83.92 1037.9,-82.45 1023,-82.45 1008.1,-82.45 996,-83.92 996,-85.73"/>
<text text-anchor="middle" x="1023" y="-65.95" font-family="Times,serif" font-size="14.00">Minio</text>
</g>
<!-- jonline2&#45;&gt;minio2 -->
<g id="edge13" class="edge">
<title>jonline2&#45;&gt;minio2</title>
<path fill="none" stroke="black" d="M1042.73,-190.08C1031.8,-182.05 1021.96,-172.26 1015.5,-160.5 1005.47,-142.23 1008.12,-118.58 1012.86,-100.32"/>
<polygon fill="black" stroke="black" points="1016.16,-101.52 1015.65,-90.94 1009.45,-99.53 1016.16,-101.52"/>
<text text-anchor="start" x="1015" y="-148.2" font-family="Times,serif" font-size="14.00">5GB @ </text>
<text text-anchor="start" x="1060.75" y="-148.2" font-family="Times,serif" font-weight="bold" font-size="14.00">50¢/mo</text>
</g>
<!-- postgres2 -->
<g id="node16" class="node">
<title>postgres2</title>
<path fill="white" stroke="white" d="M1129.88,-85.73C1129.88,-87.53 1116.04,-89 1099,-89 1081.96,-89 1068.12,-87.53 1068.12,-85.73 1068.12,-85.73 1068.12,-56.27 1068.12,-56.27 1068.12,-54.47 1081.96,-53 1099,-53 1116.04,-53 1129.88,-54.47 1129.88,-56.27 1129.88,-56.27 1129.88,-85.73 1129.88,-85.73"/>
<path fill="none" stroke="white" d="M1129.88,-85.73C1129.88,-83.92 1116.04,-82.45 1099,-82.45 1081.96,-82.45 1068.12,-83.92 1068.12,-85.73"/>
<text text-anchor="middle" x="1099" y="-65.95" font-family="Times,serif" font-size="14.00">Postgres</text>
</g>
<!-- jonline2&#45;&gt;postgres2 -->
<g id="edge14" class="edge">
<title>jonline2&#45;&gt;postgres2</title>
<path fill="none" stroke="black" d="M1109.63,-178.03C1109.33,-166.94 1108.83,-155.02 1108,-144 1106.92,-129.67 1105.02,-113.81 1103.24,-100.64"/>
<polygon fill="black" stroke="black" points="1106.73,-100.33 1101.87,-90.91 1099.79,-101.3 1106.73,-100.33"/>
<text text-anchor="start" x="1108" y="-148.2" font-family="Times,serif" font-size="14.00">1GB @ </text>
<text text-anchor="start" x="1153.75" y="-148.2" font-family="Times,serif" font-weight="bold" font-size="14.00">10¢/mo</text>
</g>
<!-- tls2 -->
<g id="node17" class="node">
<title>tls2</title>
<polygon fill="#c1b2ff" stroke="#c1b2ff" points="1462.25,-126 1147.75,-126 1147.75,-16 1462.25,-16 1462.25,-126"/>
<polygon fill="none" stroke="#c1b2ff" points="1158.75,-96.5 1158.75,-119 1451.25,-119 1451.25,-96.5 1158.75,-96.5"/>
<text text-anchor="start" x="1277.62" y="-102.7" font-family="Times,serif" font-size="14.00">jonline&#45;tls</text>
<polygon fill="none" stroke="#c1b2ff" points="1158.75,-72 1158.75,-94.5 1451.25,-94.5 1451.25,-72 1158.75,-72"/>
<text text-anchor="start" x="1270.88" y="-78.2" font-family="Times,serif" font-size="14.00">(K8s Secret)</text>
<polygon fill="none" stroke="#c1b2ff" points="1158.75,-47.5 1158.75,-70 1451.25,-70 1451.25,-47.5 1158.75,-47.5"/>
<text text-anchor="start" x="1161.75" y="-53.7" font-family="Times,serif" font-size="14.00">Configurable with deploys/generated_certs/Makefile</text>
<polygon fill="none" stroke="#c1b2ff" points="1158.75,-23 1158.75,-45.5 1451.25,-45.5 1451.25,-23 1158.75,-23"/>
<text text-anchor="start" x="1185.75" y="-30.2" font-family="Times,serif" font-size="14.00">Lightweight integration with </text>
<text text-anchor="start" x="1345.5" y="-30.2" font-family="Times,serif" font-style="italic" font-size="14.00">Cert&#45;Manager</text>
<polygon fill="none" stroke="#c1b2ff" points="1155.75,-20 1155.75,-122 1454.25,-122 1454.25,-20 1155.75,-20"/>
</g>
<!-- jonline2&#45;&gt;tls2 -->
<g id="edge15" class="edge">
<title>jonline2&#45;&gt;tls2</title>
<path fill="none" stroke="black" d="M1165.12,-185.76C1177.14,-177.73 1189.65,-169.03 1201,-160.5 1212.14,-152.13 1223.65,-142.93 1234.77,-133.74"/>
<polygon fill="black" stroke="black" points="1236.99,-136.44 1242.43,-127.34 1232.51,-131.07 1236.99,-136.44"/>
</g>
</g>
</svg>
