<?xml version="1.0" encoding="UTF-8" standalone="no"?>
<!DOCTYPE svg PUBLIC "-//W3C//DTD SVG 1.1//EN"
 "http://www.w3.org/Graphics/SVG/1.1/DTD/svg11.dtd">
<!-- Generated by graphviz version 9.0.0 (20230911.1827)
 -->
<!-- Title: G Pages: 1 -->
<svg width="790pt" height="353pt"
 viewBox="0.00 0.00 790.00 352.50" xmlns="http://www.w3.org/2000/svg" xmlns:xlink="http://www.w3.org/1999/xlink">
<g id="graph0" class="graph" transform="scale(1 1) rotate(0) translate(4 348.5)">
<title>G</title>
<polygon fill="white" stroke="none" points="-4,4 -4,-348.5 786,-348.5 786,4 -4,4"/>
<g id="clust1" class="cluster">
<title>cluster0</title>
<polygon fill="lightgrey" stroke="lightgrey" points="8,-8 8,-156.5 258,-156.5 258,-8 8,-8"/>
<text text-anchor="middle" x="133" y="-139.2" font-family="Times,serif" font-size="14.00">jonline namespace</text>
</g>
<g id="clust2" class="cluster">
<title>cluster1</title>
<polygon fill="lightgrey" stroke="lightgrey" points="266,-8 266,-156.5 516,-156.5 516,-8 266,-8"/>
<text text-anchor="middle" x="391" y="-139.2" font-family="Times,serif" font-size="14.00">oakcitysocial namespace</text>
</g>
<g id="clust3" class="cluster">
<title>cluster2</title>
<polygon fill="lightgrey" stroke="lightgrey" points="524,-8 524,-156.5 774,-156.5 774,-8 524,-8"/>
<text text-anchor="middle" x="649" y="-139.2" font-family="Times,serif" font-size="14.00">bullcitysocial namespace</text>
</g>
<!-- browser -->
<g id="node1" class="node">
<title>browser</title>
<polygon fill="#c1b2ff" stroke="#c1b2ff" points="510.5,-344.5 425.5,-344.5 425.5,-308.5 516.5,-308.5 516.5,-338.5 510.5,-344.5"/>
<polyline fill="none" stroke="#c1b2ff" points="510.5,-344.5 510.5,-338.5"/>
<polyline fill="none" stroke="#c1b2ff" points="516.5,-338.5 510.5,-338.5"/>
<text text-anchor="middle" x="471" y="-321.45" font-family="Times,serif" font-size="14.00">Web Browser</text>
</g>
<!-- resolve_namespace -->
<g id="node2" class="node">
<title>resolve_namespace</title>
<ellipse fill="none" stroke="black" cx="471" cy="-254.5" rx="156.27" ry="18"/>
<text text-anchor="middle" x="471" y="-249.45" font-family="Times,serif" font-size="14.00">Resolve Namespace from DNS lookup</text>
</g>
<!-- browser&#45;&gt;resolve_namespace -->
<g id="edge1" class="edge">
<title>browser&#45;&gt;resolve_namespace</title>
<path fill="none" stroke="black" stroke-width="2" d="M471,-308.2C471,-300.91 471,-292.23 471,-284.04"/>
<polygon fill="black" stroke="black" stroke-width="2" points="474.5,-285.63 471,-275.63 467.5,-285.63 474.5,-285.63"/>
</g>
<!-- jonlineio -->
<g id="node3" class="node">
<title>jonlineio</title>
<ellipse fill="none" stroke="black" cx="279" cy="-182.5" rx="46.23" ry="18"/>
<text text-anchor="middle" x="279" y="-177.45" font-family="Times,serif" font-size="14.00">jonline.io</text>
</g>
<!-- resolve_namespace&#45;&gt;jonlineio -->
<g id="edge2" class="edge">
<title>resolve_namespace&#45;&gt;jonlineio</title>
<path fill="none" stroke="black" stroke-dasharray="1,5" d="M425.5,-236.91C394.39,-225.57 353.39,-210.62 322.67,-199.42"/>
<polygon fill="black" stroke="black" points="323.88,-196.14 313.28,-196 321.48,-202.71 323.88,-196.14"/>
</g>
<!-- oakcitysocial -->
<g id="node4" class="node">
<title>oakcitysocial</title>
<ellipse fill="none" stroke="black" cx="471" cy="-182.5" rx="61.59" ry="18"/>
<text text-anchor="middle" x="471" y="-177.45" font-family="Times,serif" font-size="14.00">oakcity.social</text>
</g>
<!-- resolve_namespace&#45;&gt;oakcitysocial -->
<g id="edge3" class="edge">
<title>resolve_namespace&#45;&gt;oakcitysocial</title>
<path fill="none" stroke="black" stroke-dasharray="1,5" d="M471,-236.2C471,-228.91 471,-220.23 471,-212.04"/>
<polygon fill="black" stroke="black" points="474.5,-212.12 471,-202.12 467.5,-212.12 474.5,-212.12"/>
</g>
<!-- bullcitysocial -->
<g id="node5" class="node">
<title>bullcitysocial</title>
<ellipse fill="none" stroke="black" cx="671" cy="-182.5" rx="62.61" ry="18"/>
<text text-anchor="middle" x="671" y="-177.45" font-family="Times,serif" font-size="14.00">bullcity.social</text>
</g>
<!-- resolve_namespace&#45;&gt;bullcitysocial -->
<g id="edge4" class="edge">
<title>resolve_namespace&#45;&gt;bullcitysocial</title>
<path fill="none" stroke="black" stroke-dasharray="1,5" d="M518.4,-236.91C549.5,-226.03 590.09,-211.82 621.59,-200.79"/>
<polygon fill="black" stroke="black" points="622.61,-204.14 630.9,-197.54 620.3,-197.54 622.61,-204.14"/>
</g>
<!-- jonline0 -->
<g id="node6" class="node">
<title>jonline0</title>
<ellipse fill="white" stroke="white" cx="213" cy="-106" rx="36.51" ry="18"/>
<text text-anchor="middle" x="213" y="-100.95" font-family="Times,serif" font-size="14.00">jonline</text>
</g>
<!-- jonlineio&#45;&gt;jonline0 -->
<g id="edge7" class="edge">
<title>jonlineio&#45;&gt;jonline0</title>
<path fill="none" stroke="black" d="M264.35,-164.97C255.6,-155.09 244.33,-142.36 234.57,-131.35"/>
<polygon fill="black" stroke="black" points="237.41,-129.27 228.16,-124.11 232.17,-133.92 237.41,-129.27"/>
</g>
<!-- jonline1 -->
<g id="node10" class="node">
<title>jonline1</title>
<ellipse fill="white" stroke="white" cx="471" cy="-106" rx="36.51" ry="18"/>
<text text-anchor="middle" x="471" y="-100.95" font-family="Times,serif" font-size="14.00">jonline</text>
</g>
<!-- oakcitysocial&#45;&gt;jonline1 -->
<g id="edge10" class="edge">
<title>oakcitysocial&#45;&gt;jonline1</title>
<path fill="none" stroke="black" d="M471,-164.22C471,-155.82 471,-145.49 471,-135.93"/>
<polygon fill="black" stroke="black" points="474.5,-135.96 471,-125.96 467.5,-135.96 474.5,-135.96"/>
</g>
<!-- jonline2 -->
<g id="node14" class="node">
<title>jonline2</title>
<ellipse fill="white" stroke="white" cx="729" cy="-106" rx="36.51" ry="18"/>
<text text-anchor="middle" x="729" y="-100.95" font-family="Times,serif" font-size="14.00">jonline</text>
</g>
<!-- bullcitysocial&#45;&gt;jonline2 -->
<g id="edge13" class="edge">
<title>bullcitysocial&#45;&gt;jonline2</title>
<path fill="none" stroke="black" d="M684.16,-164.59C691.61,-155.03 701.06,-142.89 709.37,-132.22"/>
<polygon fill="black" stroke="black" points="711.98,-134.56 715.36,-124.52 706.45,-130.26 711.98,-134.56"/>
</g>
<!-- minio0 -->
<g id="node7" class="node">
<title>minio0</title>
<ellipse fill="white" stroke="white" cx="114" cy="-34" rx="33.95" ry="18"/>
<text text-anchor="middle" x="114" y="-28.95" font-family="Times,serif" font-size="14.00">Minio</text>
</g>
<!-- jonline0&#45;&gt;minio0 -->
<g id="edge5" class="edge">
<title>jonline0&#45;&gt;minio0</title>
<path fill="none" stroke="black" d="M192.97,-90.83C178.51,-80.62 158.79,-66.67 142.67,-55.27"/>
<polygon fill="black" stroke="black" points="145.09,-52.69 134.9,-49.78 141.05,-58.41 145.09,-52.69"/>
</g>
<!-- postgres0 -->
<g id="node8" class="node">
<title>postgres0</title>
<ellipse fill="white" stroke="white" cx="208" cy="-34" rx="42.14" ry="18"/>
<text text-anchor="middle" x="208" y="-28.95" font-family="Times,serif" font-size="14.00">Postgres</text>
</g>
<!-- jonline0&#45;&gt;postgres0 -->
<g id="edge6" class="edge">
<title>jonline0&#45;&gt;postgres0</title>
<path fill="none" stroke="black" d="M211.76,-87.7C211.24,-80.41 210.62,-71.73 210.04,-63.54"/>
<polygon fill="black" stroke="black" points="213.53,-63.34 209.33,-53.61 206.55,-63.84 213.53,-63.34"/>
</g>
<!-- tls0 -->
<g id="node9" class="node">
<title>tls0</title>
<polygon fill="white" stroke="white" points="158.38,-124 15.62,-124 15.62,-88 158.38,-88 158.38,-124"/>
<text text-anchor="middle" x="87" y="-100.95" font-family="Times,serif" font-size="14.00">jonline&#45;tls (TLS secret)</text>
</g>
<!-- minio1 -->
<g id="node11" class="node">
<title>minio1</title>
<ellipse fill="white" stroke="white" cx="372" cy="-34" rx="33.95" ry="18"/>
<text text-anchor="middle" x="372" y="-28.95" font-family="Times,serif" font-size="14.00">Minio</text>
</g>
<!-- jonline1&#45;&gt;minio1 -->
<g id="edge8" class="edge">
<title>jonline1&#45;&gt;minio1</title>
<path fill="none" stroke="black" d="M450.97,-90.83C436.51,-80.62 416.79,-66.67 400.67,-55.27"/>
<polygon fill="black" stroke="black" points="403.09,-52.69 392.9,-49.78 399.05,-58.41 403.09,-52.69"/>
</g>
<!-- postgres1 -->
<g id="node12" class="node">
<title>postgres1</title>
<ellipse fill="white" stroke="white" cx="466" cy="-34" rx="42.14" ry="18"/>
<text text-anchor="middle" x="466" y="-28.95" font-family="Times,serif" font-size="14.00">Postgres</text>
</g>
<!-- jonline1&#45;&gt;postgres1 -->
<g id="edge9" class="edge">
<title>jonline1&#45;&gt;postgres1</title>
<path fill="none" stroke="black" d="M469.76,-87.7C469.24,-80.41 468.62,-71.73 468.04,-63.54"/>
<polygon fill="black" stroke="black" points="471.53,-63.34 467.33,-53.61 464.55,-63.84 471.53,-63.34"/>
</g>
<!-- tls1 -->
<g id="node13" class="node">
<title>tls1</title>
<polygon fill="white" stroke="white" points="416.38,-124 273.62,-124 273.62,-88 416.38,-88 416.38,-124"/>
<text text-anchor="middle" x="345" y="-100.95" font-family="Times,serif" font-size="14.00">jonline&#45;tls (TLS secret)</text>
</g>
<!-- minio2 -->
<g id="node15" class="node">
<title>minio2</title>
<ellipse fill="white" stroke="white" cx="630" cy="-34" rx="33.95" ry="18"/>
<text text-anchor="middle" x="630" y="-28.95" font-family="Times,serif" font-size="14.00">Minio</text>
</g>
<!-- jonline2&#45;&gt;minio2 -->
<g id="edge11" class="edge">
<title>jonline2&#45;&gt;minio2</title>
<path fill="none" stroke="black" d="M708.97,-90.83C694.51,-80.62 674.79,-66.67 658.67,-55.27"/>
<polygon fill="black" stroke="black" points="661.09,-52.69 650.9,-49.78 657.05,-58.41 661.09,-52.69"/>
</g>
<!-- postgres2 -->
<g id="node16" class="node">
<title>postgres2</title>
<ellipse fill="white" stroke="white" cx="724" cy="-34" rx="42.14" ry="18"/>
<text text-anchor="middle" x="724" y="-28.95" font-family="Times,serif" font-size="14.00">Postgres</text>
</g>
<!-- jonline2&#45;&gt;postgres2 -->
<g id="edge12" class="edge">
<title>jonline2&#45;&gt;postgres2</title>
<path fill="none" stroke="black" d="M727.76,-87.7C727.24,-80.41 726.62,-71.73 726.04,-63.54"/>
<polygon fill="black" stroke="black" points="729.53,-63.34 725.33,-53.61 722.55,-63.84 729.53,-63.34"/>
</g>
<!-- tls2 -->
<g id="node17" class="node">
<title>tls2</title>
<polygon fill="white" stroke="white" points="674.38,-124 531.62,-124 531.62,-88 674.38,-88 674.38,-124"/>
<text text-anchor="middle" x="603" y="-100.95" font-family="Times,serif" font-size="14.00">jonline&#45;tls (TLS secret)</text>
</g>
</g>
</svg>
