<?xml version="1.0" encoding="UTF-8" standalone="no"?>
<!DOCTYPE svg PUBLIC "-//W3C//DTD SVG 1.1//EN"
 "http://www.w3.org/Graphics/SVG/1.1/DTD/svg11.dtd">
<!-- Generated by graphviz version 9.0.0 (20230911.1827)
 -->
<!-- Title: G Pages: 1 -->
<svg width="1081pt" height="440pt"
 viewBox="0.00 0.00 1081.00 440.27" xmlns="http://www.w3.org/2000/svg" xmlns:xlink="http://www.w3.org/1999/xlink">
<g id="graph0" class="graph" transform="scale(1 1) rotate(0) translate(4 436.27)">
<title>G</title>
<polygon fill="white" stroke="none" points="-4,4 -4,-436.27 1077,-436.27 1077,4 -4,4"/>
<g id="clust1" class="cluster">
<title>cluster0</title>
<polygon fill="lightgrey" stroke="lightgrey" points="8,-8 8,-207.77 355,-207.77 355,-8 8,-8"/>
<text text-anchor="middle" x="181.5" y="-190.47" font-family="Times,serif" font-size="14.00">jonline namespace</text>
</g>
<g id="clust2" class="cluster">
<title>cluster1</title>
<polygon fill="lightgrey" stroke="lightgrey" points="363,-8 363,-182.63 710,-182.63 710,-8 363,-8"/>
<text text-anchor="middle" x="536.5" y="-165.33" font-family="Times,serif" font-size="14.00">oakcitysocial namespace</text>
</g>
<g id="clust3" class="cluster">
<title>cluster2</title>
<polygon fill="lightgrey" stroke="lightgrey" points="718,-8 718,-182.63 1065,-182.63 1065,-8 718,-8"/>
<text text-anchor="middle" x="891.5" y="-165.33" font-family="Times,serif" font-size="14.00">bullcitysocial namespace</text>
</g>
<!-- browser -->
<g id="node1" class="node">
<title>browser</title>
<polygon fill="#c1b2ff" stroke="#c1b2ff" points="538.5,-432.27 453.5,-432.27 453.5,-396.27 544.5,-396.27 544.5,-426.27 538.5,-432.27"/>
<polyline fill="none" stroke="#c1b2ff" points="538.5,-432.27 538.5,-426.27"/>
<polyline fill="none" stroke="#c1b2ff" points="544.5,-426.27 538.5,-426.27"/>
<text text-anchor="middle" x="499" y="-409.22" font-family="Times,serif" font-size="14.00">Web Browser</text>
</g>
<!-- resolve_namespace -->
<g id="node2" class="node">
<title>resolve_namespace</title>
<ellipse fill="none" stroke="black" cx="499" cy="-341.27" rx="156.27" ry="18"/>
<text text-anchor="middle" x="499" y="-336.22" font-family="Times,serif" font-size="14.00">Resolve Namespace from DNS lookup</text>
</g>
<!-- browser&#45;&gt;resolve_namespace -->
<g id="edge1" class="edge">
<title>browser&#45;&gt;resolve_namespace</title>
<path fill="none" stroke="black" stroke-width="2" d="M499,-396.08C499,-388.49 499,-379.37 499,-370.81"/>
<polygon fill="black" stroke="black" stroke-width="2" points="502.5,-372.32 499,-362.32 495.5,-372.32 502.5,-372.32"/>
</g>
<!-- jonlineio -->
<g id="node3" class="node">
<title>jonlineio</title>
<ellipse fill="none" stroke="black" cx="330" cy="-268.27" rx="46.23" ry="18"/>
<text text-anchor="middle" x="330" y="-263.22" font-family="Times,serif" font-size="14.00">jonline.io</text>
</g>
<!-- resolve_namespace&#45;&gt;jonlineio -->
<g id="edge2" class="edge">
<title>resolve_namespace&#45;&gt;jonlineio</title>
<path fill="none" stroke="black" stroke-dasharray="1,5" d="M458.95,-323.44C432.44,-312.3 397.77,-297.74 371.06,-286.52"/>
<polygon fill="black" stroke="black" points="372.48,-283.32 361.91,-282.67 369.77,-289.77 372.48,-283.32"/>
</g>
<!-- oakcitysocial -->
<g id="node4" class="node">
<title>oakcitysocial</title>
<ellipse fill="none" stroke="black" cx="499" cy="-268.27" rx="61.59" ry="18"/>
<text text-anchor="middle" x="499" y="-263.22" font-family="Times,serif" font-size="14.00">oakcity.social</text>
</g>
<!-- resolve_namespace&#45;&gt;oakcitysocial -->
<g id="edge3" class="edge">
<title>resolve_namespace&#45;&gt;oakcitysocial</title>
<path fill="none" stroke="black" stroke-dasharray="1,5" d="M499,-323.08C499,-315.49 499,-306.37 499,-297.81"/>
<polygon fill="black" stroke="black" points="502.5,-297.81 499,-287.81 495.5,-297.81 502.5,-297.81"/>
</g>
<!-- bullcitysocial -->
<g id="node5" class="node">
<title>bullcitysocial</title>
<ellipse fill="none" stroke="black" cx="725" cy="-268.27" rx="62.61" ry="18"/>
<text text-anchor="middle" x="725" y="-263.22" font-family="Times,serif" font-size="14.00">bullcity.social</text>
</g>
<!-- resolve_namespace&#45;&gt;bullcitysocial -->
<g id="edge4" class="edge">
<title>resolve_namespace&#45;&gt;bullcitysocial</title>
<path fill="none" stroke="black" stroke-dasharray="1,5" d="M551.13,-323.89C587.76,-312.38 636.54,-297.06 673.11,-285.57"/>
<polygon fill="black" stroke="black" points="674.1,-288.93 682.59,-282.59 672,-282.25 674.1,-288.93"/>
</g>
<!-- jonline0 -->
<g id="node6" class="node">
<title>jonline0</title>
<ellipse fill="white" stroke="white" cx="200" cy="-132.13" rx="97.76" ry="43.13"/>
<polygon fill="none" stroke="white" points="141.88,-133.13 141.88,-155.63 258.12,-155.63 258.12,-133.13 141.88,-133.13"/>
<text text-anchor="start" x="181.25" y="-139.33" font-family="Times,serif" font-size="14.00">jonline</text>
<polygon fill="none" stroke="white" points="141.88,-108.63 141.88,-131.13 258.12,-131.13 258.12,-108.63 141.88,-108.63"/>
<text text-anchor="start" x="144.88" y="-114.83" font-family="Times,serif" font-size="14.00">(K8s LoadBalancer)</text>
<polygon fill="none" stroke="white" points="138.88,-105.63 138.88,-158.63 261.12,-158.63 261.12,-105.63 138.88,-105.63"/>
</g>
<!-- jonlineio&#45;&gt;jonline0 -->
<g id="edge8" class="edge">
<title>jonlineio&#45;&gt;jonline0</title>
<path fill="none" stroke="black" d="M314.32,-251.09C297.39,-233.62 269.64,-204.99 245.72,-180.3"/>
<polygon fill="black" stroke="black" points="248.3,-177.94 238.82,-173.19 243.27,-182.81 248.3,-177.94"/>
<text text-anchor="middle" x="324.62" y="-218.97" font-family="Times,serif" font-size="14.00">$12/month</text>
</g>
<!-- jonline1 -->
<g id="node10" class="node">
<title>jonline1</title>
<ellipse fill="white" stroke="white" cx="499" cy="-132.13" rx="36.51" ry="18"/>
<text text-anchor="middle" x="499" y="-127.08" font-family="Times,serif" font-size="14.00">jonline</text>
</g>
<!-- oakcitysocial&#45;&gt;jonline1 -->
<g id="edge12" class="edge">
<title>oakcitysocial&#45;&gt;jonline1</title>
<path fill="none" stroke="black" d="M499,-250.01C499,-227.67 499,-188.45 499,-161.66"/>
<polygon fill="black" stroke="black" points="502.5,-161.84 499,-151.84 495.5,-161.84 502.5,-161.84"/>
<text text-anchor="middle" x="528.62" y="-218.97" font-family="Times,serif" font-size="14.00">$12/month</text>
</g>
<!-- jonline2 -->
<g id="node14" class="node">
<title>jonline2</title>
<ellipse fill="white" stroke="white" cx="807" cy="-132.13" rx="36.51" ry="18"/>
<text text-anchor="middle" x="807" y="-127.08" font-family="Times,serif" font-size="14.00">jonline</text>
</g>
<!-- bullcitysocial&#45;&gt;jonline2 -->
<g id="edge16" class="edge">
<title>bullcitysocial&#45;&gt;jonline2</title>
<path fill="none" stroke="black" d="M735.39,-250.28C749.45,-227.28 774.67,-186.01 791.12,-159.1"/>
<polygon fill="black" stroke="black" points="793.94,-161.21 796.17,-150.86 787.96,-157.56 793.94,-161.21"/>
<text text-anchor="middle" x="785.62" y="-218.97" font-family="Times,serif" font-size="14.00">$12/month</text>
</g>
<!-- minio0 -->
<g id="node7" class="node">
<title>minio0</title>
<ellipse fill="white" stroke="white" cx="50" cy="-34" rx="33.95" ry="18"/>
<text text-anchor="middle" x="50" y="-28.95" font-family="Times,serif" font-size="14.00">Minio</text>
</g>
<!-- jonline0&#45;&gt;minio0 -->
<g id="edge5" class="edge">
<title>jonline0&#45;&gt;minio0</title>
<path fill="none" stroke="black" d="M145.42,-96.16C123.55,-82.14 99.17,-66.52 80.53,-54.57"/>
<polygon fill="black" stroke="black" points="82.67,-51.78 72.36,-49.33 78.89,-57.67 82.67,-51.78"/>
</g>
<!-- postgres0 -->
<g id="node8" class="node">
<title>postgres0</title>
<ellipse fill="white" stroke="white" cx="144" cy="-34" rx="42.14" ry="18"/>
<text text-anchor="middle" x="144" y="-28.95" font-family="Times,serif" font-size="14.00">Postgres</text>
</g>
<!-- jonline0&#45;&gt;postgres0 -->
<g id="edge6" class="edge">
<title>jonline0&#45;&gt;postgres0</title>
<path fill="none" stroke="black" d="M176.09,-90.09C170.45,-80.4 164.58,-70.33 159.43,-61.49"/>
<polygon fill="black" stroke="black" points="162.59,-59.96 154.53,-53.08 156.54,-63.48 162.59,-59.96"/>
</g>
<!-- tls0 -->
<g id="node9" class="node">
<title>tls0</title>
<polygon fill="white" stroke="white" points="347.38,-52 204.62,-52 204.62,-16 347.38,-16 347.38,-52"/>
<text text-anchor="middle" x="276" y="-28.95" font-family="Times,serif" font-size="14.00">jonline&#45;tls (TLS secret)</text>
</g>
<!-- jonline0&#45;&gt;tls0 -->
<g id="edge7" class="edge">
<title>jonline0&#45;&gt;tls0</title>
<path fill="none" stroke="black" d="M231.79,-90.92C239.76,-80.84 248.1,-70.28 255.37,-61.1"/>
<polygon fill="black" stroke="black" points="258.09,-63.29 261.55,-53.28 252.6,-58.95 258.09,-63.29"/>
</g>
<!-- minio1 -->
<g id="node11" class="node">
<title>minio1</title>
<ellipse fill="white" stroke="white" cx="405" cy="-34" rx="33.95" ry="18"/>
<text text-anchor="middle" x="405" y="-28.95" font-family="Times,serif" font-size="14.00">Minio</text>
</g>
<!-- jonline1&#45;&gt;minio1 -->
<g id="edge9" class="edge">
<title>jonline1&#45;&gt;minio1</title>
<path fill="none" stroke="black" d="M483.9,-115.69C468.82,-100.27 445.46,-76.38 428.06,-58.59"/>
<polygon fill="black" stroke="black" points="430.62,-56.19 421.12,-51.49 425.61,-61.09 430.62,-56.19"/>
</g>
<!-- postgres1 -->
<g id="node12" class="node">
<title>postgres1</title>
<ellipse fill="white" stroke="white" cx="499" cy="-34" rx="42.14" ry="18"/>
<text text-anchor="middle" x="499" y="-28.95" font-family="Times,serif" font-size="14.00">Postgres</text>
</g>
<!-- jonline1&#45;&gt;postgres1 -->
<g id="edge10" class="edge">
<title>jonline1&#45;&gt;postgres1</title>
<path fill="none" stroke="black" d="M499,-113.95C499,-99.95 499,-79.9 499,-63.51"/>
<polygon fill="black" stroke="black" points="502.5,-63.88 499,-53.88 495.5,-63.88 502.5,-63.88"/>
</g>
<!-- tls1 -->
<g id="node13" class="node">
<title>tls1</title>
<polygon fill="white" stroke="white" points="702.38,-52 559.62,-52 559.62,-16 702.38,-16 702.38,-52"/>
<text text-anchor="middle" x="631" y="-28.95" font-family="Times,serif" font-size="14.00">jonline&#45;tls (TLS secret)</text>
</g>
<!-- jonline1&#45;&gt;tls1 -->
<g id="edge11" class="edge">
<title>jonline1&#45;&gt;tls1</title>
<path fill="none" stroke="black" d="M518.76,-116.74C539.68,-101.51 573.05,-77.2 597.98,-59.05"/>
<polygon fill="black" stroke="black" points="599.83,-62.03 605.85,-53.32 595.7,-56.38 599.83,-62.03"/>
</g>
<!-- minio2 -->
<g id="node15" class="node">
<title>minio2</title>
<ellipse fill="white" stroke="white" cx="760" cy="-34" rx="33.95" ry="18"/>
<text text-anchor="middle" x="760" y="-28.95" font-family="Times,serif" font-size="14.00">Minio</text>
</g>
<!-- jonline2&#45;&gt;minio2 -->
<g id="edge13" class="edge">
<title>jonline2&#45;&gt;minio2</title>
<path fill="none" stroke="black" d="M798.81,-114.39C791.78,-100 781.51,-78.99 773.29,-62.19"/>
<polygon fill="black" stroke="black" points="776.45,-60.68 768.92,-53.24 770.16,-63.76 776.45,-60.68"/>
</g>
<!-- postgres2 -->
<g id="node16" class="node">
<title>postgres2</title>
<ellipse fill="white" stroke="white" cx="854" cy="-34" rx="42.14" ry="18"/>
<text text-anchor="middle" x="854" y="-28.95" font-family="Times,serif" font-size="14.00">Postgres</text>
</g>
<!-- jonline2&#45;&gt;postgres2 -->
<g id="edge14" class="edge">
<title>jonline2&#45;&gt;postgres2</title>
<path fill="none" stroke="black" d="M815.19,-114.39C822.22,-100 832.49,-78.99 840.71,-62.19"/>
<polygon fill="black" stroke="black" points="843.84,-63.76 845.08,-53.24 837.55,-60.68 843.84,-63.76"/>
</g>
<!-- tls2 -->
<g id="node17" class="node">
<title>tls2</title>
<polygon fill="white" stroke="white" points="1057.38,-52 914.62,-52 914.62,-16 1057.38,-16 1057.38,-52"/>
<text text-anchor="middle" x="986" y="-28.95" font-family="Times,serif" font-size="14.00">jonline&#45;tls (TLS secret)</text>
</g>
<!-- jonline2&#45;&gt;tls2 -->
<g id="edge15" class="edge">
<title>jonline2&#45;&gt;tls2</title>
<path fill="none" stroke="black" d="M831.14,-118.17C859.89,-102.73 908.42,-76.66 943.5,-57.82"/>
<polygon fill="black" stroke="black" points="944.98,-61 952.13,-53.19 941.67,-54.84 944.98,-61"/>
</g>
</g>
</svg>
